<?xml version="1.0" encoding="UTF-8" standalone="no"?>
<!-- Created with Inkscape (http://www.inkscape.org/) -->

<svg
   xmlns:dc="http://purl.org/dc/elements/1.1/"
   xmlns:cc="http://creativecommons.org/ns#"
   xmlns:rdf="http://www.w3.org/1999/02/22-rdf-syntax-ns#"
   xmlns:svg="http://www.w3.org/2000/svg"
   xmlns="http://www.w3.org/2000/svg"
   version="1.1"
   width="744.09448"
   height="1052.3622"
   id="svg2">
  <defs
     id="defs4" />
  <metadata
     id="metadata7">
    <rdf:RDF>
      <cc:Work
         rdf:about="">
        <dc:format>image/svg+xml</dc:format>
        <dc:type
           rdf:resource="http://purl.org/dc/dcmitype/StillImage" />
        <dc:title></dc:title>
      </cc:Work>
    </rdf:RDF>
  </metadata>
  <g
     id="layer1">
    <g
       id="text2985"
       style="font-size:40.18677521px;font-style:normal;font-variant:normal;font-weight:normal;font-stretch:normal;line-height:125%;letter-spacing:0px;word-spacing:0px;fill:#000000;fill-opacity:1;stroke:none;font-family:FreeSans;-inkscape-font-specification:FreeSans">
      <path
         d="m -81.13063,11.374602 c -2.571956,-2.8666506 -3.857932,-6.5504347 -3.85793,-11.05136343 -2e-6,-4.50089987 1.285974,-8.18468397 3.85793,-11.05136357 2.598737,-2.866628 6.001214,-4.299955 10.207441,-4.299985 4.232987,3e-5 7.64886,1.433357 10.247628,4.299985 2.598716,2.8398885 3.898087,6.5906504 3.898117,11.25229745 -3e-5,4.34018165 -1.286005,7.95698775 -3.85793,10.85042955 -2.545186,2.866657 -5.961059,4.299984 -10.247628,4.299985 -4.25981,-1e-6 -7.675682,-1.433328 -10.247628,-4.299985 m 10.247628,-21.2588043 c -2.438011,2.46e-5 -4.393765,0.9377151 -5.867269,2.8130742 -1.473524,1.8486117 -2.210281,4.3133981 -2.210273,7.39436667 -8e-6,3.08099743 0.736749,5.55917943 2.210273,7.43455343 1.473504,1.8485968 3.429258,2.772892 5.867269,2.772887 2.411188,5e-6 4.353547,-0.9242902 5.827082,-2.772887 1.500284,-1.8485828 2.250436,-4.2731825 2.25046,-7.27380633 -2.4e-5,-3.16134217 -0.736781,-5.67971097 -2.210273,-7.55511377 -1.446744,-1.8753591 -3.402498,-2.8130496 -5.867269,-2.8130742"
         id="path2990"
         style="font-weight:600;-inkscape-font-specification:FreeSans Semi-Bold" />
      <path
         d="m -28.516095,6.3110681 c -2.6e-5,0.9644901 -0.160773,1.9021805 -0.482241,2.8130742 -0.32152,0.9109047 -0.843947,1.8084087 -1.567284,2.6925137 -0.696595,0.884111 -1.754845,1.594077 -3.174755,2.129899 -1.419953,0.535824 -3.107796,0.803736 -5.063534,0.803736 l -13.181262,0 0,-29.296159 13.060702,0 c 1.821782,2.9e-5 3.389065,0.267941 4.701852,0.803735 1.339537,0.535852 2.33081,1.232422 2.973822,2.089713 0.669755,0.830552 1.151996,1.647682 1.446724,2.4513928 0.294677,0.8037587 0.442028,1.5940978 0.442054,2.3710198 -2.6e-5,1.2592059 -0.308124,2.3442478 -0.924296,3.2551288 -0.616221,0.9109176 -1.647681,1.8352125 -3.094381,2.77288747 3.241708,1.90218763 4.862573,4.27320503 4.862599,7.11305923 m -17.44106,-15.8335895 0,6.630818 6.550444,0 c 2.839847,1.76e-5 4.259778,-1.0984198 4.259799,-3.2953156 -2.1e-5,-2.2236451 -1.419952,-3.3354781 -4.259799,-3.3355024 l -6.550444,0 m 0,11.6541649 0,7.5953005 7.193433,0 c 2.973802,5e-6 4.460711,-1.2591794 4.460732,-3.7775569 -2.1e-5,-2.5451511 -1.48693,-3.817731 -4.460732,-3.8177436 l -7.193433,0"
         id="path2992"
         style="font-weight:600;-inkscape-font-specification:FreeSans Semi-Bold" />
      <path
         d="m -17.700828,-14.545868 0,29.296159 -6.028017,0 0,-29.296159 6.028017,0"
         id="path2994"
         style="font-weight:600;-inkscape-font-specification:FreeSans Semi-Bold" />
      <path
         d="m -4.0957173,15.674587 c -1.0984478,-1e-6 -2.1566985,-0.133957 -3.1747553,-0.401868 -0.99128,-0.267912 -1.9557616,-0.709966 -2.8934474,-1.326164 -0.937695,-0.642987 -1.687848,-1.567281 -2.25046,-2.772887 -0.562616,-1.2323898 -0.843923,-2.6925078 -0.843922,-4.3803586 l 0,-2.8934478 6.0280162,0 0,2.8130742 c -7.2e-6,1.3395659 0.2545088,2.3174431 0.7635487,2.9336346 0.509024,0.5894106 1.3395499,0.8841136 2.4915801,0.8841086 1.0448446,5e-6 1.8485793,-0.294698 2.4112065,-0.8841086 0.5626014,-0.5894003 0.84390854,-1.4333218 0.84392229,-2.5317668 l 0,-21.6606716 6.02801631,0 0,21.6606716 c -1.98e-5,2.7327056 -0.8171501,4.8492074 -2.4513933,6.3495104 -1.6342779,1.473515 -3.951713,2.210272 -6.9523121,2.210273"
         id="path2996"
         style="font-weight:600;-inkscape-font-specification:FreeSans Semi-Bold" />
      <path
         d="m 26.456902,15.393279 c -0.991291,0.187538 -2.022751,0.281307 -3.094382,0.281308 -1.071661,-1e-6 -2.116516,-0.09377 -3.134569,-0.281308 C 19.236667,15.205741 18.205207,14.870851 17.13357,14.38861 16.088706,13.906369 15.177807,13.290173 14.400869,12.540018 13.62392,11.789868 12.980932,10.798595 12.471904,9.5661969 11.989659,8.3070177 11.748539,6.8870864 11.748542,5.3063987 l 0,-19.8522667 6.028016,0 0,19.8522667 c -9e-6,3.4828598 1.861976,5.2242853 5.585962,5.2242803 3.723956,5e-6 5.585941,-1.7414205 5.585962,-5.2242803 l 0,-19.8522667 6.028016,0 0,19.8522667 c -2.7e-5,1.5806877 -0.254542,3.000619 -0.763549,4.2597982 -0.482266,1.2323981 -1.111858,2.2236711 -1.888778,2.9738211 -0.776968,0.750155 -1.701262,1.366351 -2.772888,1.848592 -1.044876,0.482241 -2.076335,0.817131 -3.094381,1.004669"
         id="path2998"
         style="font-weight:600;-inkscape-font-specification:FreeSans Semi-Bold" />
      <path
         d="m 57.69333,8.8428349 -10.97099,0 -1.969152,5.9074561 -6.148577,0 10.408375,-29.296159 6.671005,0 10.127067,29.296159 -6.188763,0 L 57.69333,8.8428349 M 56.045672,3.819488 52.227928,-7.6337429 48.410184,3.819488 l 7.635488,0"
         id="path3000"
         style="font-weight:600;-inkscape-font-specification:FreeSans Semi-Bold" />
      <path
         d="m 87.241278,14.750291 -11.774725,-20.2541348 0,20.2541348 -6.028016,0 0,-29.296159 6.188763,0 11.613978,19.9326402 0,-19.9326402 6.028016,0 0,29.296159 -6.028016,0"
         id="path3002"
         style="font-weight:600;-inkscape-font-specification:FreeSans Semi-Bold" />
    </g>
  </g>
</svg>
