<?xml version="1.0" encoding="UTF-8" standalone="no"?>
<!-- Created with Inkscape (http://www.inkscape.org/) -->

<svg
   xmlns:dc="http://purl.org/dc/elements/1.1/"
   xmlns:cc="http://creativecommons.org/ns#"
   xmlns:rdf="http://www.w3.org/1999/02/22-rdf-syntax-ns#"
   xmlns:svg="http://www.w3.org/2000/svg"
   xmlns="http://www.w3.org/2000/svg"
   version="1.1"
   width="744.09448"
   height="1052.3622"
   id="svg2">
  <defs
     id="defs4" />
  <metadata
     id="metadata7">
    <rdf:RDF>
      <cc:Work
         rdf:about="">
        <dc:format>image/svg+xml</dc:format>
        <dc:type
           rdf:resource="http://purl.org/dc/dcmitype/StillImage" />
        <dc:title></dc:title>
      </cc:Work>
    </rdf:RDF>
  </metadata>
  <g
     id="layer1">
    <g
       id="text2985"
       style="font-size:36px;font-style:normal;font-variant:normal;font-weight:normal;font-stretch:normal;line-height:125%;letter-spacing:0px;word-spacing:0px;fill:#000000;fill-opacity:1;stroke:none;font-family:FreeSans;-inkscape-font-specification:FreeSans">
      <path
         d="m -60.915007,0.560507 0,11.304 -5.4,0 0,-26.244 18.432,0 0,4.5 -13.032,0 0,5.94 11.484,0 0,4.5 -11.484,0"
         id="path2990"
         style="font-weight:600;-inkscape-font-specification:FreeSans Semi-Bold" />
      <path
         d="m -28.665757,7.364507 c -10e-6,-0.72 0.012,-1.284 0.036,-1.692 0.024,-0.40799 0.036,-0.76799 0.036,-1.08 -10e-6,-1.10399 -0.26401,-1.89599 -0.792,-2.376 -0.52801,-0.50399 -1.38001,-0.75599 -2.556,-0.756 l -6.192,0 0,10.404 -5.4,0 0,-26.244 14.076,0 c 1.34398,3e-5 2.49598,0.22803 3.456,0.684 0.98398,0.45602 1.71598,1.05602 2.196,1.8 0.50398,0.74402 0.86398,1.50002 1.08,2.268 0.21598,0.74402 0.32398,1.52402 0.324,2.34 -2e-5,3.16802 -1.47602,5.32801 -4.428,6.48 0.64798,0.26401 1.12798,0.48001 1.44,0.648 0.31198,0.14401 0.62398,0.39601 0.936,0.756 0.33598,0.36001 0.55198,0.68401 0.648,0.972 0.11998,0.28801 0.22798,0.81601 0.324,1.584 0.11998,0.76801 0.19198,1.52401 0.216,2.268 0.024,0.744 0.048,1.848 0.072,3.312 -2e-5,1.008 0.38398,1.728 1.152,2.16 l 0,0.972 -5.796,0 c -0.33602,-0.624 -0.56401,-1.224 -0.684,-1.8 -0.096,-0.576 -0.14401,-1.476 -0.144,-2.7 m 0.864,-13.896 c -2e-5,-1.34398 -0.31202,-2.23198 -0.936,-2.664 -0.62401,-0.45598 -1.58401,-0.68398 -2.88,-0.684 l -6.516,0 0,6.84 6.516,0 c 1.27199,10e-6 2.21999,-0.22799 2.844,-0.684 0.64798,-0.45598 0.97198,-1.39198 0.972,-2.808"
         id="path2992"
         style="font-weight:600;-inkscape-font-specification:FreeSans Semi-Bold" />
      <path
         d="m -12.118127,0.560507 0,6.804 14.2199997,0 0,4.5 -19.6199997,0 0,-26.244 18.9719997,0 0,4.5 -13.5719997,0 0,5.94 12.56399966,0 0,4.5 -12.56399966,0"
         id="path2994"
         style="font-weight:600;-inkscape-font-specification:FreeSans Semi-Bold" />
      <path
         d="m 11.788123,0.560507 0,6.804 14.22,0 0,4.5 -19.6200003,0 0,-26.244 18.9720003,0 0,4.5 -13.572,0 0,5.94 12.564,0 0,4.5 -12.564,0"
         id="path2996"
         style="font-weight:600;-inkscape-font-specification:FreeSans Semi-Bold" />
      <path
         d="m 46.674373,-5.487493 c -0.67202,-3.14398 -2.54402,-4.71598 -5.616,-4.716 -2.13601,2e-5 -3.80401,0.81602 -5.004,2.448 -1.20001,1.63202 -1.80001,3.90001 -1.8,6.804 -1e-5,2.85601 0.57599,5.08801 1.728,6.696 1.17599,1.608 2.80799,2.412 4.896,2.412 1.67998,0 3.02398,-0.456 4.032,-1.368 1.00798,-0.91199 1.59598,-2.20799 1.764,-3.888 l 5.256,0 c -0.16803,3.00001 -1.26003,5.388 -3.276,7.164 -2.01602,1.752 -4.65602,2.628 -7.92,2.628 -3.64801,0 -6.54001,-1.224 -8.676,-3.672 -2.136,-2.472 -3.204,-5.81999 -3.204,-10.044 0,-4.24798 1.08,-7.60798 3.24,-10.08 2.15999,-2.47198 5.08799,-3.70797 8.784,-3.708 3.09598,3e-5 5.62798,0.82803 7.596,2.484 1.99198,1.65602 3.10797,3.93602 3.348,6.84 l -5.148,0"
         id="path2998"
         style="font-weight:600;-inkscape-font-specification:FreeSans Semi-Bold" />
      <path
         d="m 70.819683,6.572507 -9.828,0 -1.764,5.292 -5.508,0 9.324,-26.244 5.976,0 9.072,26.244 -5.544,0 -1.728,-5.292 m -1.476,-4.5 -3.42,-10.26 -3.42,10.26 6.84,0"
         id="path3000"
         style="font-weight:600;-inkscape-font-specification:FreeSans Semi-Bold" />
      <path
         d="m 81.341243,11.864507 0,-26.244 10.26,0 c 2.01599,3e-5 3.67199,0.24003 4.968,0.72 1.31998,0.48002 2.42398,1.24802 3.312,2.304 2.135977,2.54402 3.203977,5.90402 3.203997,10.08 -2e-5,4.22401 -1.06802,7.584 -3.203997,10.08 -1.70402,2.04 -4.46401,3.06 -8.28,3.06 l -10.26,0 m 5.4,-4.5 4.86,0 c 4.05599,0 6.08398,-2.86799 6.084,-8.604 -2e-5,-5.75998 -2.02801,-8.63998 -6.084,-8.64 l -4.86,0 0,17.244"
         id="path3002"
         style="font-weight:600;-inkscape-font-specification:FreeSans Semi-Bold" />
    </g>
  </g>
</svg>
