<?xml version="1.0" encoding="UTF-8" standalone="no"?>
<!-- Created with Inkscape (http://www.inkscape.org/) -->

<svg
   xmlns:dc="http://purl.org/dc/elements/1.1/"
   xmlns:cc="http://creativecommons.org/ns#"
   xmlns:rdf="http://www.w3.org/1999/02/22-rdf-syntax-ns#"
   xmlns:svg="http://www.w3.org/2000/svg"
   xmlns="http://www.w3.org/2000/svg"
   version="1.1"
   width="744.09448"
   height="1052.3622"
   id="svg2">
  <defs
     id="defs4" />
  <metadata
     id="metadata7">
    <rdf:RDF>
      <cc:Work
         rdf:about="">
        <dc:format>image/svg+xml</dc:format>
        <dc:type
           rdf:resource="http://purl.org/dc/dcmitype/StillImage" />
        <dc:title></dc:title>
      </cc:Work>
    </rdf:RDF>
  </metadata>
  <g
     id="layer1">
    <g
       id="text2985"
       style="font-size:49.29834366px;font-style:normal;font-variant:normal;font-weight:normal;font-stretch:normal;line-height:125%;letter-spacing:0px;word-spacing:0px;fill:#000000;fill-opacity:1;stroke:none;font-family:FreeSans;-inkscape-font-specification:FreeSans">
      <path
         d="m -66.868092,-15.310395 0,29.7762 17.205122,0 0,6.162293 -24.599873,0 0,-35.938493 7.394751,0"
         id="path2992"
         style="font-weight:600;-inkscape-font-specification:FreeSans Semi-Bold" />
      <path
         d="m -36.345484,-15.310395 0,35.938493 -7.394752,0 0,-35.938493 7.394752,0"
         id="path2994"
         style="font-weight:600;-inkscape-font-specification:FreeSans Semi-Bold" />
      <path
         d="m 0.35944351,10.275445 c -3.273e-5,1.18317 -0.19722591,2.333463 -0.59158012,3.450884 -0.3944185,1.117435 -1.03529629,2.218431 -1.92263539,3.302989 -0.854534,1.084567 -2.1527224,1.955503 -3.8945692,2.612813 -1.7418994,0.657311 -3.8124277,0.985967 -6.2115908,0.985967 l -16.169857,0 0,-35.938493 16.021962,0 c 2.234836,3.6e-5 4.157469,0.328691 5.7679057,0.985967 1.6432508,0.657345 2.8592754,1.511849 3.6480774,2.563514 0.8216089,1.018864 1.4131884,2.0212622 1.7747404,3.0071987 0.36148968,0.9859953 0.5422501,1.9555284 0.5422818,2.9086023 -3.17e-5,1.5447064 -0.3779853,2.8757603 -1.1338619,3.9931658 -0.7559378,1.11745051 -2.0212606,2.25131128 -3.7959725,3.4015857 3.9767023,2.3334717 5.96506688,5.2420711 5.96509961,8.7258065 M -21.036038,-9.148102 l 0,8.1342267 8.03563,0 c 3.4837271,2.16e-5 5.2256002,-1.3474651 5.2256248,-4.0424642 -2.46e-5,-2.7278133 -1.7418977,-4.0917328 -5.2256248,-4.0917625 l -8.03563,0 m 0,14.2965196 0,9.3173874 8.824404,0 c 3.6480535,6e-6 5.4720904,-1.544674 5.472116,-4.6340447 -2.56e-5,-3.1222145 -1.8240625,-4.6833272 -5.472116,-4.6833427 l -8.824404,0"
         id="path2996"
         style="font-weight:600;-inkscape-font-specification:FreeSans Semi-Bold" />
      <path
         d="m 26.592322,14.465805 c -2.4e-5,-0.98596 0.01641,-1.7583 0.0493,-2.317023 0.03284,-0.558705 0.04927,-1.051688 0.0493,-1.47895 C 26.690894,9.1580277 26.329373,8.0734652 25.606355,7.4161414 24.88329,6.7259785 23.716564,6.3808905 22.106173,6.3808762 l -8.479315,0 0,14.2472218 -7.394752,0 0,-35.938493 19.275652,0 c 1.840447,3.6e-5 3.417992,0.312258 4.732641,0.936669 1.347459,0.62448 2.349858,1.446118 3.007199,2.464917 0.690146,1.018864 1.183128,2.0541279 1.478951,3.1057954 0.295757,1.0188608 0.443652,2.0869905 0.443685,3.2043923 -3.3e-5,4.3382761 -2.021263,7.2961738 -6.063697,8.8737019 0.887343,0.3615381 1.544654,0.6573279 1.971934,0.8873702 0.427223,0.1972096 0.854475,0.5422977 1.281757,1.0352652 0.460087,0.4929983 0.755877,0.936683 0.88737,1.3310552 0.164297,0.3944005 0.312192,1.1174422 0.443685,2.1691272 0.164297,1.0517088 0.262893,2.0869726 0.29579,3.1057956 0.03283,1.01884 0.0657,2.530655 0.0986,4.535448 -3.2e-5,1.380356 0.525817,2.366322 1.577547,2.9579 l 0,1.331056 -7.937033,0 C 27.266041,19.773594 26.953818,18.951956 26.789515,18.16318 26.658029,17.37441 26.592298,16.141953 26.592322,14.465805 m 1.18316,-19.0291611 c -2.5e-5,-1.8404444 -0.427277,-3.056469 -1.281757,-3.6480774 -0.854528,-0.6244162 -2.169149,-0.9366388 -3.943867,-0.9366685 l -8.923,0 0,9.36668526 8.923,0 c 1.741853,2.041e-5 3.040041,-0.31220212 3.894569,-0.93666853 0.887345,-0.62442373 1.33103,-1.90617933 1.331055,-3.84527083"
         id="path2998"
         style="font-weight:600;-inkscape-font-specification:FreeSans Semi-Bold" />
      <path
         d="m 49.252621,5.1484176 0,9.3173874 19.472845,0 0,6.162293 -26.867597,0 0,-35.938493 25.980227,0 0,6.162293 -18.585475,0 0,8.1342267 17.205121,0 0,6.1622929 -17.205121,0"
         id="path3000"
         style="font-weight:600;-inkscape-font-specification:FreeSans Semi-Bold" />
    </g>
  </g>
</svg>
