<?xml version="1.0" encoding="UTF-8" standalone="no"?>
<!-- Created with Inkscape (http://www.inkscape.org/) -->

<svg
   xmlns:dc="http://purl.org/dc/elements/1.1/"
   xmlns:cc="http://creativecommons.org/ns#"
   xmlns:rdf="http://www.w3.org/1999/02/22-rdf-syntax-ns#"
   xmlns:svg="http://www.w3.org/2000/svg"
   xmlns="http://www.w3.org/2000/svg"
   version="1.1"
   width="744.09448"
   height="1052.3622"
   id="svg2">
  <defs
     id="defs4" />
  <metadata
     id="metadata7">
    <rdf:RDF>
      <cc:Work
         rdf:about="">
        <dc:format>image/svg+xml</dc:format>
        <dc:type
           rdf:resource="http://purl.org/dc/dcmitype/StillImage" />
        <dc:title></dc:title>
      </cc:Work>
    </rdf:RDF>
  </metadata>
  <g
     id="layer1">
    <g
       id="text2985"
       style="font-size:36px;font-style:normal;font-variant:normal;font-weight:normal;font-stretch:normal;line-height:125%;letter-spacing:0px;word-spacing:0px;fill:#000000;fill-opacity:1;stroke:none;font-family:FreeSans;-inkscape-font-specification:FreeSans">
      <path
         d="m -36.495913,-0.752586 -10.404,0 0,11.916 -5.4,0 0,-26.244 5.4,0 0,9.828 10.368,0 0,-9.828 5.436,0 0,26.244 -5.4,0 0,-11.916"
         id="path2986"
         style="font-weight:600;-inkscape-font-specification:FreeSans Semi-Bold" />
      <path
         d="m -23.354225,8.139414 c -2.304003,-2.5679944 -3.456002,-5.8679911 -3.456,-9.9 -2e-6,-4.031983 1.151997,-7.3319797 3.456,-9.9 2.327993,-2.567975 5.37599,-3.851973 9.144,-3.852 3.791982,2.7e-5 6.851979,1.284025 9.1799999,3.852 2.3279745,2.5440203 3.4919733,5.9040169 3.492,10.08 -2.67e-5,3.8880089 -1.1520255,7.1280056 -3.456,9.72 -2.2800209,2.568 -5.3400179,3.851999 -9.1799999,3.852 -3.81601,-1e-6 -6.876007,-1.284 -9.18,-3.852 m 9.18,-19.044 c -2.184012,2.2e-5 -3.93601,0.840021 -5.256,2.52 -1.320008,1.6560179 -1.980007,3.8640157 -1.98,6.624 -7e-6,2.76001017 0.659992,4.9800079 1.98,6.66 1.31999,1.6560046 3.071988,2.4840038 5.256,2.484 2.159984,3.8e-6 3.899982,-0.8279954 5.2199999,-2.484 1.3439794,-1.6559921 2.0159787,-3.8279899 2.016,-6.516 -2.13e-5,-2.8319844 -0.6600206,-5.0879821 -1.98,-6.768 -1.2960179,-1.679979 -3.0480159,-2.519978 -5.2559999,-2.52"
         id="path2988"
         style="font-weight:600;-inkscape-font-specification:FreeSans Semi-Bold" />
      <path
         d="m 8.1547749,-15.080586 0,21.744 12.5640001,0 0,4.5 -17.9640001,0 0,-26.244 5.4,0"
         id="path2990"
         style="font-weight:600;-inkscape-font-specification:FreeSans Semi-Bold" />
      <path
         d="m 39.623837,5.871414 -9.828,0 -1.764,5.292 -5.508,0 9.324,-26.244 5.976,0 9.072,26.244 -5.544,0 -1.728,-5.292 m -1.476,-4.5 -3.42,-10.26 -3.42,10.26 6.84,0"
         id="path2992"
         style="font-weight:600;-inkscape-font-specification:FreeSans Semi-Bold" />
    </g>
  </g>
</svg>
