<?xml version="1.0" encoding="UTF-8" standalone="no"?>

<svg
	xmlns="http://www.w3.org/2000/svg" version="1.1"
	xmlns:freecad="http://www.freecadweb.org/wiki/index.php?title=Svg_Namespace"
	width="297mm"
	height="210mm"
	viewBox="0 0 297 210">
	<!-- Working space 10 10 287 200 -->
	<!-- Title block 107 162 287 200 -->
	<g>
		<rect
			id="drawing-border"
			style="fill:none;stroke:#000000;stroke-width:0.35;stroke-linecap:miter;stroke-miterlimit:4"
			width="277"
			height="190"
			x="10"
			y="10" />
			<!-- width-20, height-20 -->
		<g
			transform="translate(87,-65)">
			<!-- A4 Portrait based for other formats width-210, height-297 -->
			<!--        page       rect   translation
			               w    h    rw   rh   tx   ty
			        A4-P  210  297  180  277    0    0
			        A3-L  420  297  390  277  210    0
			        A2-L  594  420  564  400  384  123
			        A1-L  841  594  811  574  631  297
			        A0-L 1189  841 1159  821  979  544
			-->
			<g
				id="titleblock-structure"
				style="fill:none;stroke:#000000;stroke-width:0.35;stroke-linecap:miter;stroke-miterlimit:4">
				<rect width="180" height="38" x="20" y="227" />
				<path d="m 20,238 h 180" />
				<path d="m 80,227 v 11" />
				<path d="m 140,227 v 38" />
				<path d="m 160,227 v 11" />
				<path d="m 180,227 v 11" />
				<path d="m 140,254 h 60" />
				<path d="m 180,254 v 11" />
			</g>
			<g
				id="titleblock-text-non-editable"
				style="font-size:3px;text-anchor:start;fill:#000000;font-family:osifont"
				xml:space="preserve">
				<text x="21" y="230.5">Created by:</text>
				<text x="81" y="230.5">Title:</text>
				<text x="21" y="241.5">Supplementary information:</text>
				<text x="141" y="230.5">Size:</text>
				<text x="161" y="230.5">Sheet:</text>
				<text x="181" y="230.5">Scale:</text>
				<text x="141" y="241.5">Part number:</text>
				<text x="141" y="249.5">Drawing no.:</text>
				<text x="141" y="257.5">Date:</text>
				<text x="181" y="257.5">Revision:</text>
			</g>
			<g
				id="titleblock-text-editable"
				style="font-size:5px;text-anchor:middle;fill:#000000;font-family:osifont"
				xml:space="preserve">
				<text freecad:editable="AUTHOR NAME" x="50" y="236"><tspan>gut-mart</tspan></text>
				<text freecad:editable="DRAWING TITLE" x="110" y="236"><tspan>dedo-robot</tspan></text>
				<text freecad:editable="SI-1" x="80" y="247"><tspan></tspan></text>
				<text freecad:editable="FreeCAD DRAWING" x="80" y="254"><tspan>FreeCAD DRAWING</tspan></text>
				<text freecad:editable="SI-3" x="80" y="261"><tspan></tspan></text>
				<text freecad:editable="FC-SI" x="150" y="236"><tspan>A4</tspan></text>
				<text freecad:editable="FC-SH" x="170" y="236"><tspan>X / Y</tspan></text>
				<text freecad:editable="FC-SC" x="190" y="236"><tspan>2,5</tspan></text>
				<text freecad:editable="PN" x="180" y="244"><tspan>PN</tspan></text>
				<text freecad:editable="DN" x="180" y="252"><tspan>DN</tspan></text>
				<text freecad:editable="FC-DATE" x="160" y="263"><tspan>22/07/2015</tspan></text>
				<text freecad:editable="FC-REV" x="190" y="263"><tspan>REV A</tspan></text>
			</g>
			<!-- Set display:none to hide FreeCAD Logo -->
			<g
				style="display:inline"
				id="freecad-logo"
				transform="translate(128.5,254)"
				fill-rule="evenodd"
				stroke="#000"
				stroke-width="0.35"
				fill="none">
					<path d="m0.1524 0.15254v8.8549h1.9744v-3.4652h1.396v-1.3661h-1.396v-1.4745h3.4391v-2.5441l-5.4135-0.005z"/>
					<path d="m7.7927 3.4504-0.50715-0.176-0.48387-1.2366-0.76115 0.04-0.34718 1.2787-0.4859 0.23269-1.2119-0.53015-0.51188 0.56882 0.65892 1.1485-0.18006 0.50567-1.2366 0.48387 0.044064 0.76263 1.2787 0.34718 0.23269 0.4859-0.53421 1.2104 0.56882 0.51188 1.1485-0.65891 0.50973 0.18155 0.4798 1.2351 0.7667-0.04258 0.34311-1.2802 0.4859-0.23269 1.2145 0.5357 0.51188-0.56882-0.65891-1.1485 0.17748-0.51122 1.2351-0.4798-0.03851-0.76521-1.2802-0.34311-0.23269-0.4859 0.53163-1.216-0.56881-0.51184zm-0.5715 1.2244 0.23576 0.13679 0.20426 0.18519 0.16353 0.22101 0.11763 0.24572 0.06916 0.26489 0.01146 0.27146-0.03921 0.27139-0.08948 0.25764-0.14234 0.23834-0.17964 0.20167-0.22101 0.16353-0.24572 0.11763-0.26489 0.06916-0.27295 0.01553-0.2719-0.04-0.2576-0.089-0.2383-0.143-0.2002-0.183-0.165-0.217-0.1177-0.246-0.0676-0.269-0.0156-0.273 0.039206-0.2714 0.089484-0.25764 0.14085-0.23427 0.18113-0.20574 0.22101-0.16352 0.24572-0.11763 0.26895-0.06768 0.27147-0.01146 0.27139 0.03921 0.25764 0.08948z"/>
			</g>
		</g>
	</g>
<g id="alzado"
   transform="rotate(-90,110,135) translate(110,135) scale(2.5,2.5)"
  >
<g   stroke="rgb(0, 0, 0)"
   stroke-width="0.2"
   stroke-linecap="butt"
   stroke-linejoin="miter"
   fill="none"
   transform="scale(1,-1)"
  >
<path d="M7.2955 -16.0901 A3.7 3.7 0 0 0 -2.2384e-06 -15.2169" /><path id= "2" d=" M 7.2955 -16.0901 L 11.517 1.29321 " />
<path id= "3" d=" M -2.2384e-06 -15.2169 L 4.29989e-12 30 " />
<path d="M7.09448 5.77278 A3.7 3.7 0 0 0 11.517 1.29321" /><path id= "5" d=" M 4.29878e-12 30 L 6.82291 31.5646 " />
<path id= "6" d=" M 5.48522 12.7906 L 7.09448 5.77278 " />
<path id= "7" d=" M 6.82291 31.5646 L 10.8461 14.0199 " />
<path id= "8" d=" M 10.8461 14.0199 L 5.48522 12.7906 " />
<circle cx ="7.92147" cy ="2.16638" r ="1.6" /><circle cx ="3.7" cy ="-15.2169" r ="1.6" /><path id= "11" d=" M 7.09448 5.77278 L 6.65809 7.67585 " />
<path d="M-2.2384e-06 -15.2169 A3.7 3.7 0 0 1 7.2955 -16.0901" /><path d="M11.517 1.29321 A3.7 3.7 0 0 1 7.09448 5.77278" /></g>
</g>



<g id="planta001"
   transform="rotate(90,110,50) translate(110,50) scale(2.5,2.5)"
  >
<g   stroke="rgb(0, 0, 0)"
   stroke-width="0.2"
   stroke-linecap="butt"
   stroke-linejoin="miter"
   fill="none"
   transform="scale(1,-1)"
  >
<path id= "1" d=" M 1.47557 18.9169 L 5.77557 18.9169 " />
<path id= "2" d=" M 1.47557 -5.86638 L 5.77557 -5.86638 " />
<path id= "3" d=" M -7.22443 18.9169 L -2.92443 18.9169 " />
<path id= "4" d=" M -7.22443 -5.86638 L -2.92443 -5.86638 " />
</g>
<g   stroke="rgb(0, 0, 0)"
   stroke-width="0.2"
   stroke-linecap="butt"
   stroke-linejoin="miter"
   fill="none"
   transform="scale(1,-1)"
  >
<path d="M5.77557,16.0901 L5.77557,16.4278  L5.77557,16.7546  L5.77557,17.0675  L5.77557,17.3636  L5.77557,17.6403  L5.77557,17.8951  L5.77557,18.1256  L5.77557,18.3298  L5.77557,18.5058  L5.77557,18.652  L5.77557,18.7671  L5.77557,18.8501  L5.77557,18.9002  L5.77557,18.9169 " /><path d="M5.77557,16.0901 L5.77557,16.0288  L5.77557,15.9672  L5.77557,15.9055  L5.77557,15.8435  L5.77557,15.7814  L5.77557,15.7191  L5.77557,15.6566  L5.77557,15.594  L5.77557,15.5314  L5.77557,15.4686  L5.77557,15.4057  L5.77557,15.3428  L5.77557,15.2799  L5.77557,15.2169 " /><path d="M1.47557,15.2169 L1.47557,15.2799  L1.47557,15.3428  L1.47557,15.4057  L1.47557,15.4686  L1.47557,15.5314  L1.47557,15.594  L1.47557,15.6566  L1.47557,15.7191  L1.47557,15.7814  L1.47557,15.8435  L1.47557,15.9055  L1.47557,15.9672  L1.47557,16.0288  L1.47557,16.0901 " /><path d="M1.47557,18.9169 L1.47557,18.9002  L1.47557,18.8501  L1.47557,18.7671  L1.47557,18.652  L1.47557,18.5058  L1.47557,18.3298  L1.47557,18.1256  L1.47557,17.8951  L1.47557,17.6403  L1.47557,17.3636  L1.47557,17.0675  L1.47557,16.7546  L1.47557,16.4278  L1.47557,16.0901 " /><path id= "5" d=" M 5.77557 16.0901 L 5.77557 -1.29321 " />
<path d="M5.77557,-5.86638 L5.77557,-5.83553  L5.77557,-5.74351  L5.77557,-5.59184  L5.77557,-5.38306  L5.77557,-5.12064  L5.77557,-4.80896  L5.77557,-4.45322  L5.77557,-4.05935  L5.77557,-3.63392  L5.77557,-3.18402  L5.77557,-2.71715  L5.77557,-2.2411  L5.77557,-1.7638  L5.77557,-1.29321 " /><path id= "7" d=" M 5.77557 -12.7906 L 5.77557 -5.77278 " />
<path id= "8" d=" M 5.77557 -31.5646 L 5.77557 -14.0199 " />
<path id= "9" d=" M 5.77557 -14.0199 L 5.77557 -12.7906 " />
<path id= "10" d=" M 1.47557 14.7741 L -2.92443 14.7741 " />
<path id= "11" d=" M 1.47557 16.0901 L 1.47557 -1.29321 " />
<path d="M1.47557,-1.29321 L1.47557,-1.7638  L1.47557,-2.2411  L1.47557,-2.71715  L1.47557,-3.18402  L1.47557,-3.63392  L1.47557,-4.05935  L1.47557,-4.45322  L1.47557,-4.80896  L1.47557,-5.12064  L1.47557,-5.38306  L1.47557,-5.59184  L1.47557,-5.74351  L1.47557,-5.83553  L1.47557,-5.86638 " /><path id= "13" d=" M 1.47557 -7.67585 L 1.47557 -5.77278 " />
<path d="M1.47557,-1.29321 L1.47557,-1.20034  L1.47557,-1.11234  L1.47557,-1.02964  L1.47557,-0.952657  L1.47557,-0.881789  L1.47557,-0.817388  L1.47557,-0.759777  L1.47557,-0.709248  L1.47557,-0.666054  L1.47557,-0.630414  L1.47557,-0.602505  L1.47557,-0.58247  L1.47557,-0.570408  L1.47557,-0.566381 " /><path d="M1.47557,14.8593 L1.47557,14.9493  L1.47557,15.0401  L1.47557,15.1315  L1.47557,15.2232  L1.47557,15.3149  L1.47557,15.4062  L1.47557,15.4969  L1.47557,15.5867  L1.47557,15.6753  L1.47557,15.7624  L1.47557,15.8477  L1.47557,15.9309  L1.47557,16.0118  L1.47557,16.0901 " /><path d="M1.47557,13.6169 L1.47557,13.6243  L1.47557,13.6464  L1.47557,13.683  L1.47557,13.7337  L1.47557,13.7981  L1.47557,13.8756  L1.47557,13.9655  L1.47557,14.0669  L1.47557,14.179  L1.47557,14.3006  L1.47557,14.4307  L1.47557,14.568  L1.47557,14.7113  L1.47557,14.8593 " /><path id= "17" d=" M 5.77557 -31.5646 L -7.22443 -31.5646 " />
<path id= "18" d=" M -2.92443 -7.67585 L 1.47557 -7.67585 " />
<path id= "19" d=" M -2.92443 -5.77278 L -2.92443 -7.67585 " />
<path id= "20" d=" M -7.22443 -12.7906 L -7.22443 -5.77278 " />
<path id= "21" d=" M 5.77557 -12.7906 L -7.22443 -12.7906 " />
<path id= "22" d=" M 5.77557 -14.0199 L -7.22443 -14.0199 " />
<path id= "23" d=" M -7.22443 -31.5646 L -7.22443 -14.0199 " />
<path id= "24" d=" M -7.22443 -14.0199 L -7.22443 -12.7906 " />
<path d="M-7.22443,16.0901 L-7.22443,16.4278  L-7.22443,16.7546  L-7.22443,17.0675  L-7.22443,17.3636  L-7.22443,17.6403  L-7.22443,17.8951  L-7.22443,18.1256  L-7.22443,18.3298  L-7.22443,18.5058  L-7.22443,18.652  L-7.22443,18.7671  L-7.22443,18.8501  L-7.22443,18.9002  L-7.22443,18.9169 " /><path id= "26" d=" M -7.22443 16.0901 L -7.22443 -1.29321 " />
<path d="M-7.22443,-5.86638 L-7.22443,-5.83553  L-7.22443,-5.74351  L-7.22443,-5.59184  L-7.22443,-5.38306  L-7.22443,-5.12064  L-7.22443,-4.80896  L-7.22443,-4.45322  L-7.22443,-4.05935  L-7.22443,-3.63392  L-7.22443,-3.18402  L-7.22443,-2.71715  L-7.22443,-2.2411  L-7.22443,-1.7638  L-7.22443,-1.29321 " /><path d="M-7.22443,-1.29321 L-7.22443,-1.20034  L-7.22443,-1.11234  L-7.22443,-1.02964  L-7.22443,-0.952657  L-7.22443,-0.881789  L-7.22443,-0.817388  L-7.22443,-0.759777  L-7.22443,-0.709248  L-7.22443,-0.666054  L-7.22443,-0.630414  L-7.22443,-0.602505  L-7.22443,-0.58247  L-7.22443,-0.570408  L-7.22443,-0.566381 " /><path d="M-7.22443,14.8593 L-7.22443,14.9493  L-7.22443,15.0401  L-7.22443,15.1315  L-7.22443,15.2232  L-7.22443,15.3149  L-7.22443,15.4062  L-7.22443,15.4969  L-7.22443,15.5867  L-7.22443,15.6753  L-7.22443,15.7624  L-7.22443,15.8477  L-7.22443,15.9309  L-7.22443,16.0118  L-7.22443,16.0901 " /><path d="M-7.22443,13.6169 L-7.22443,13.6243  L-7.22443,13.6464  L-7.22443,13.683  L-7.22443,13.7337  L-7.22443,13.7981  L-7.22443,13.8756  L-7.22443,13.9655  L-7.22443,14.0669  L-7.22443,14.179  L-7.22443,14.3006  L-7.22443,14.4307  L-7.22443,14.568  L-7.22443,14.7113  L-7.22443,14.8593 " /><path d="M-2.92443,18.9169 L-2.92443,18.9002  L-2.92443,18.8501  L-2.92443,18.7671  L-2.92443,18.652  L-2.92443,18.5058  L-2.92443,18.3298  L-2.92443,18.1256  L-2.92443,17.8951  L-2.92443,17.6403  L-2.92443,17.3636  L-2.92443,17.0675  L-2.92443,16.7546  L-2.92443,16.4278  L-2.92443,16.0901 " /><path d="M-2.92443,-1.29321 L-2.92443,-1.7638  L-2.92443,-2.2411  L-2.92443,-2.71715  L-2.92443,-3.18402  L-2.92443,-3.63392  L-2.92443,-4.05935  L-2.92443,-4.45322  L-2.92443,-4.80896  L-2.92443,-5.12064  L-2.92443,-5.38306  L-2.92443,-5.59184  L-2.92443,-5.74351  L-2.92443,-5.83553  L-2.92443,-5.86638 " /><path id= "33" d=" M -2.92443 -1.29321 L -2.92443 16.0901 " />
<path id= "34" d=" M -2.92443 -1.29321 L -2.92443 14.7741 " />
</g>
</g>



<g id="3D"
   transform="rotate(120,235,120) translate(235,120) scale(2.5,2.5)"
  >
<g   stroke="rgb(0, 0, 0)"
   stroke-width="0.14"
   stroke-linecap="butt"
   stroke-linejoin="miter"
   fill="none"
   transform="scale(1,-1)"
  >
<path id= "1" d=" M 0.277092 13.5159 L 3.31765 11.7605 " />
<path id= "2" d=" M -6.40794 -8.80946 L -3.36738 -10.5649 " />
<path id= "3" d=" M -5.87474 17.0677 L -2.83418 15.3122 " />
<path id= "4" d=" M -12.5598 -5.2577 L -9.51921 -7.01317 " />
</g>
<g   stroke="rgb(0, 0, 0)"
   stroke-width="0.14"
   stroke-linecap="butt"
   stroke-linejoin="miter"
   fill="none"
   transform="scale(1,-1)"
  >
<path d="M-1.07475 7.80125 A3.7 2.1362 60 0 0 3.31765 11.7605" />
<path d="M3.31765 11.7605 A3.7 2.1362 60 0 0 4.08395 10.0667" />
<path d="M0.277092 13.5159 A3.7 2.1362 -120 0 1 -4.11531 9.55672" />
<path id= "4" d=" M -1.07475 7.80125 L -4.05978 -8.11555 " />
<path id= "5" d=" M 4.08395 10.0667 L 4.08394 -26.8528 " />
<path d="M-0.932612 -9.96763 A3.7 2.1362 60 0 0 -3.36738 -10.5649" />
<path d="M-3.36738 -10.5649 A3.7 2.1362 60 0 0 -4.05978 -8.11555" />
<path id= "8" d=" M 4.08394 -26.8528 L -0.740583 -30.9157 " />
<path id= "9" d=" M 0.205311 -15.0407 L -0.932612 -9.96763 " />
<path id= "10" d=" M -0.740583 -30.9157 L -3.58539 -18.233 " />
<path id= "11" d=" M -3.58539 -18.233 L 0.205311 -15.0407 " />
<path d="M-2.62013 -8.2893 A1.6 0.92376 60 0 0 -0.717378 -5.97499" />
<path d="M-0.717378 -5.97499 A1.6 0.92376 60 0 0 -2.31738 -8.74627" />
<path d="M-2.31738 -8.74627 A1.6 0.92376 60 0 0 -2.62013 -8.2893" />
<path d="M0.364902 7.62752 A1.6 0.92376 60 0 0 2.26765 9.94182" />
<path d="M2.26765 9.94182 A1.6 0.92376 60 0 0 0.667651 7.17054" />
<path d="M0.667651 7.17054 A1.6 0.92376 60 0 0 0.364902 7.62752" />
<path id= "18" d=" M -2.06788 13.2569 L -2.06788 13.6185 " />
<path id= "19" d=" M -1.8692 13.1422 L -2.06788 13.2569 " />
<path id= "20" d=" M -4.11531 9.55672 L -7.10034 -6.36008 " />
<path d="M-7.10034 -6.36008 A3.7 2.1362 -120 0 1 -6.40794 -8.80946" />
<path id= "22" d=" M 0.537422 8.76268 L 0.345686 7.74031 " />
<path id= "23" d=" M -2.44761 -7.15413 L -2.63934 -8.17651 " />
<path id= "24" d=" M -0.740583 -30.9157 L -9.93297 -25.6084 " />
<path id= "25" d=" M -8.98708 -9.73348 L -9.61028 -6.95514 " />
<path id= "26" d=" M 0.205311 -15.0407 L -8.98708 -9.73348 " />
<path id= "27" d=" M -3.58539 -18.233 L -12.7778 -12.9258 " />
<path id= "28" d=" M -9.93297 -25.6084 L -12.7778 -12.9258 " />
<path id= "29" d=" M -12.7778 -12.9258 L -8.98708 -9.73348 " />
<path d="M-10.2671 13.1085 A3.7 2.1362 60 0 0 -5.87474 17.0677" />
<path id= "31" d=" M -10.2671 13.1085 L -13.2522 -2.80832 " />
<path d="M-12.5598 -5.2577 A3.7 2.1362 60 0 0 -13.2522 -2.80832" />
<path d="M-2.06788 13.6185 A3.7 2.1362 -120 0 1 -2.83418 15.3122" />
<path d="M-2.83418 15.3122 A3.7 2.1362 -120 0 1 -7.22658 11.353" />
<path d="M-10.2116 -4.56379 A3.7 2.1362 -120 0 1 -9.51921 -7.01317" />
<path d="M-9.51921 -7.01317 A3.7 2.1362 -120 0 1 -7.11482 -6.44123" />
<path id= "37" d=" M -10.2116 -4.56379 L -7.22658 11.353 " />
<path id= "38" d=" M -2.12643 12.9447 L -2.06788 13.2569 " />
<path d="M-8.77196 -4.73754 A1.6 0.92376 60 0 0 -6.86921 -2.42323" />
<path d="M-6.86921 -2.42323 A1.6 0.92376 60 0 0 -8.46921 -5.19451" />
<path d="M-8.46921 -5.19451 A1.6 0.92376 60 0 0 -8.77196 -4.73754" />
<path d="M-5.78693 11.1793 A1.6 0.92376 60 0 0 -3.88418 13.4936" />
<path d="M-3.88418 13.4936 A1.6 0.92376 60 0 0 -5.48418 10.7223" />
<path d="M-5.48418 10.7223 A1.6 0.92376 60 0 0 -5.78693 11.1793" />
</g>
</g>



<g id="ViewGrupo" transform="rotate(-90.0,110.0,135.0) translate(110.0,135.0) scale(2.5,-2.5)"><path d="M 6.82291285933 31.5645638734 L 10.8721656497 32.4930990549 L 14.8953298957 14.9484659881 L 10.8460771053 14.0199308066" fill="none" stroke="#5400ff" stroke-width="0.14 px" style="stroke-width:0.14;stroke-miterlimit:4;stroke-dasharray:none" freecad:basepoint1="6.82291285933 31.5645638734" freecad:basepoint2="10.8460771053 14.0199308066" freecad:dimpoint="10.8721656497 32.4930990549"/>
<path transform="rotate(-77.0847764419,10.8721656497,32.4930990549) translate(10.8721656497,32.4930990549) scale(0.666666666667,0.666666666667)" freecad:skip="1" fill="#5400ff" stroke="none" style="stroke-miterlimit:4;stroke-dasharray:none" d="M 0 0 L 4 1 L 4 -1 Z"/>
<path transform="rotate(102.915223558,14.8953298957,14.9484659881) translate(14.8953298957,14.9484659881) scale(0.666666666667,0.666666666667)" freecad:skip="1" fill="#5400ff" stroke="none" style="stroke-miterlimit:4;stroke-dasharray:none" d="M 0 0 L 4 1 L 4 -1 Z"/>
<text fill="#5400ff" font-size="2.4" style="text-anchor:middle;text-align:center;font-family:" transform="rotate(-77.0847764419,13.3710986912,23.8325370839) translate(13.3710986912,23.8325370839) scale(1,-1) " freecad:skip="1">
18,0 </text>
<path d="M -4e-12 30.0 L -0.92803253562 34.0470608 L 5.89488032371 35.6116246734 L 6.82291285933 31.5645638734" fill="none" stroke="#5400ff" stroke-width="0.14 px" style="stroke-width:0.14;stroke-miterlimit:4;stroke-dasharray:none" freecad:basepoint1="-4e-12 30.0" freecad:basepoint2="6.82291285933 31.5645638734" freecad:dimpoint="-0.92803253562 34.0470608"/>
<path transform="rotate(12.9152247139,-0.92803253562,34.0470608) translate(-0.92803253562,34.0470608) scale(0.666666666667,0.666666666667)" freecad:skip="1" fill="#5400ff" stroke="none" style="stroke-miterlimit:4;stroke-dasharray:none" d="M 0 0 L 4 1 L 4 -1 Z"/>
<path transform="rotate(192.915224714,5.89488032371,35.6116246734) translate(5.89488032371,35.6116246734) scale(0.666666666667,0.666666666667)" freecad:skip="1" fill="#5400ff" stroke="none" style="stroke-miterlimit:4;stroke-dasharray:none" d="M 0 0 L 4 1 L 4 -1 Z"/>
<text fill="#5400ff" font-size="2.4" style="text-anchor:middle;text-align:center;font-family:" transform="rotate(12.9152247139,2.37166933166,35.3166936553) translate(2.37166933166,35.3166936553) scale(1,-1) " freecad:skip="1">
7,0 </text>
<path id="Dimension007"  d="M -3.49597794943e-07 20.9958793039 A 40.3227458121 40.3227458121 0 0 1 9.0125028047 22.0159706132 " stroke="#5400ff" stroke-width="0.14 px" style="stroke-width:0.14;stroke-miterlimit:4;stroke-dasharray:none;fill:none;fill-rule: evenodd "/>
<path transform="rotate(57.2957768133,-3.49597794943e-07,20.9958793039) translate(-3.49597794943e-07,20.9958793039) scale(0.666666666667,0.666666666667)" freecad:skip="1" fill="#5400ff" stroke="none" style="stroke-miterlimit:4;stroke-dasharray:none" d="M 0 0 L 4 1 L 4 -1 Z"/>
<path transform="rotate(135.619444764,9.0125028047,22.0159706132) translate(9.0125028047,22.0159706132) scale(0.666666666667,0.666666666667)" freecad:skip="1" fill="#5400ff" stroke="none" style="stroke-miterlimit:4;stroke-dasharray:none" d="M 0 0 L 4 1 L 4 -1 Z"/>
<text fill="#5400ff" font-size="2.4" style="text-anchor:middle;text-align:center;font-family:" transform="rotate(-6.45761078843,4.62499893834,22.0466378846) translate(4.62499893834,22.0466378846) scale(1,-1) " freecad:skip="1">
12,9 </text>
<path d="M -2.238402e-06 -15.2169215052 L -2.90649876576e-06 -23.4266789526 L 3.69999699539 -23.4266792537 L 3.69999766349 -15.2169218063" fill="none" stroke="#5400ff" stroke-width="0.14 px" style="stroke-width:0.14;stroke-miterlimit:4;stroke-dasharray:none" freecad:basepoint1="-2.238402e-06 -15.2169215052" freecad:basepoint2="3.69999766349 -15.2169218063" freecad:dimpoint="-2.90649876576e-06 -23.4266789526"/>
<path transform="rotate(-4.67631085055e-06,-2.90649876576e-06,-23.4266789526) translate(-2.90649876576e-06,-23.4266789526) scale(0.266666666667,0.266666666667)" freecad:skip="1" fill="#5400ff" stroke="none" style="stroke-miterlimit:4;stroke-dasharray:none" d="M 0 0 L 4 1 L 4 -1 Z"/>
<path transform="rotate(179.999995324,3.69999699539,-23.4266792537) translate(3.69999699539,-23.4266792537) scale(0.266666666667,0.266666666667)" freecad:skip="1" fill="#5400ff" stroke="none" style="stroke-miterlimit:4;stroke-dasharray:none" d="M 0 0 L 4 1 L 4 -1 Z"/>
<text fill="#5400ff" font-size="2.4" style="text-anchor:middle;text-align:center;font-family:" transform="rotate(-4.67631085055e-06,1.84999708514,-22.9266791031) translate(1.84999708514,-22.9266791031) scale(1,-1) " freecad:skip="1">
3,7 </text>
<path d="M 5.48521700152 12.7906306203 L 15.0082107864 14.9743507337 L 16.6174764848 7.95649750698 L 7.0944826999 5.77277739359" fill="none" stroke="#5400ff" stroke-width="0.14 px" style="stroke-width:0.14;stroke-miterlimit:4;stroke-dasharray:none" freecad:basepoint1="5.48521700152 12.7906306203" freecad:basepoint2="7.0944826999 5.77277739359" freecad:dimpoint="15.0082107864 14.9743507337"/>
<path transform="rotate(-77.0847764419,15.0082107864,14.9743507337) translate(15.0082107864,14.9743507337) scale(0.666666666667,0.666666666667)" freecad:skip="1" fill="#5400ff" stroke="none" style="stroke-miterlimit:4;stroke-dasharray:none" d="M 0 0 L 4 1 L 4 -1 Z"/>
<path transform="rotate(102.915223558,16.6174764848,7.95649750698) translate(16.6174764848,7.95649750698) scale(0.666666666667,0.666666666667)" freecad:skip="1" fill="#5400ff" stroke="none" style="stroke-miterlimit:4;stroke-dasharray:none" d="M 0 0 L 4 1 L 4 -1 Z"/>
<text fill="#5400ff" font-size="2.4" style="text-anchor:middle;text-align:center;font-family:" transform="rotate(-77.0847764419,16.3001945542,11.5771786827) translate(16.3001945542,11.5771786827) scale(1,-1) " freecad:skip="1">
7,2 </text>
<path d="M 5.48521700152 12.7906306203 L 6.42316738292 8.70032243666 L 11.7840273467 9.92962360956 L 10.8460769653 14.0199317932" fill="none" stroke="#5400ff" stroke-width="0.14 px" style="stroke-width:0.14;stroke-miterlimit:4;stroke-dasharray:none" freecad:basepoint1="5.48521700152 12.7906306203" freecad:basepoint2="10.8460769653 14.0199317932" freecad:dimpoint="6.42316738292 8.70032243666"/>
<path transform="rotate(12.9152353983,6.42316738292,8.70032243666) translate(6.42316738292,8.70032243666) scale(0.266666666667,0.266666666667)" freecad:skip="1" fill="#5400ff" stroke="none" style="stroke-miterlimit:4;stroke-dasharray:none" d="M 0 0 L 4 1 L 4 -1 Z"/>
<path transform="rotate(192.915235398,11.7840273467,9.92962360956) translate(11.7840273467,9.92962360956) scale(0.266666666667,0.266666666667)" freecad:skip="1" fill="#5400ff" stroke="none" style="stroke-miterlimit:4;stroke-dasharray:none" d="M 0 0 L 4 1 L 4 -1 Z"/>
<text fill="#5400ff" font-size="2.4" style="text-anchor:middle;text-align:center;font-family:" transform="rotate(12.9152353983,8.99184271444,9.80232392146) translate(8.99184271444,9.80232392146) scale(1,-1) " freecad:skip="1">
5,5 </text>
<path d="M -1.091431e-06 7.95246204856 L -4.75499041287 7.95246228395 L -4.75499052077 5.77277798019 L -1.199334e-06 5.7727777448" fill="none" stroke="#5400ff" stroke-width="0.14 px" style="stroke-width:0.14;stroke-miterlimit:4;stroke-dasharray:none" freecad:basepoint1="-1.091431e-06 7.95246204856" freecad:basepoint2="-1.199334e-06 5.7727777448" freecad:dimpoint="-4.75499041287 7.95246228395"/>
<path transform="rotate(90.0,-4.75499041287,7.95246228395) translate(-4.75499041287,7.95246228395) scale(0.666666666667,0.666666666667)" freecad:skip="1" fill="#5400ff" stroke="none" style="stroke-miterlimit:4;stroke-dasharray:none" d="M 0 0 L 4 1 L 4 -1 Z"/>
<path transform="rotate(270.0,-4.75499052077,5.77277798019) translate(-4.75499052077,5.77277798019) scale(0.666666666667,0.666666666667)" freecad:skip="1" fill="#5400ff" stroke="none" style="stroke-miterlimit:4;stroke-dasharray:none" d="M 0 0 L 4 1 L 4 -1 Z"/>
<text fill="#5400ff" font-size="2.4" style="text-anchor:middle;text-align:center;font-family:" transform="rotate(-90.0,-4.25499046682,6.86262010732) translate(-4.25499046682,6.86262010732) scale(1,-1) " freecad:skip="1">
2,2 </text>
<path d="M 7.38628499227 -15.8657972547 L 11.4870767287 -18.7264802385 L 9.68179259509 -21.3143567348 L 5.58100085862 -18.453673751" fill="none" stroke="#5400ff" stroke-width="0.14 px" style="stroke-width:0.14;stroke-miterlimit:4;stroke-dasharray:none" freecad:basepoint1="7.38628499227 -15.8657972547" freecad:basepoint2="5.58100085862 -18.453673751" freecad:dimpoint="11.4870767287 -18.7264802385"/>
<path transform="rotate(-124.899349453,11.4870767287,-18.7264802385) translate(11.4870767287,-18.7264802385) scale(0.266666666667,0.266666666667)" freecad:skip="1" fill="#5400ff" stroke="none" style="stroke-miterlimit:4;stroke-dasharray:none" d="M 0 0 L 4 1 L 4 -1 Z"/>
<path transform="rotate(55.1006505469,9.68179259509,-21.3143567348) translate(9.68179259509,-21.3143567348) scale(0.266666666667,0.266666666667)" freecad:skip="1" fill="#5400ff" stroke="none" style="stroke-miterlimit:4;stroke-dasharray:none" d="M 0 0 L 4 1 L 4 -1 Z"/>
<text fill="#5400ff" font-size="2.4" style="text-anchor:middle;text-align:center;font-family:" transform="rotate(-124.899349453,10.9945138356,-20.3064867851) translate(10.9945138356,-20.3064867851) scale(1,-1) " freecad:skip="1">
3,2 </text>
<path id="Dimension026"  d="M 7.93186568196 2.20943460918 A 17.9328494758 17.9328494758 0 0 1 3.69975961303 2.71071325287 " stroke="#5400ff" stroke-width="0.14 px" style="stroke-width:0.14;stroke-miterlimit:4;stroke-dasharray:none;fill:none;fill-rule: evenodd "/>
<path transform="rotate(-136.283450735,7.93186568196,2.20943460918) translate(7.93186568196,2.20943460918) scale(0.666666666667,0.666666666667)" freecad:skip="1" fill="#5400ff" stroke="none" style="stroke-miterlimit:4;stroke-dasharray:none" d="M 0 0 L 4 1 L 4 -1 Z"/>
<path transform="rotate(-57.2265861962,3.69975961303,2.71071325287) translate(3.69975961303,2.71071325287) scale(0.666666666667,0.666666666667)" freecad:skip="1" fill="#5400ff" stroke="none" style="stroke-miterlimit:4;stroke-dasharray:none" d="M 0 0 L 4 1 L 4 -1 Z"/>
<text fill="#5400ff" font-size="2.4" style="text-anchor:middle;text-align:center;font-family:" transform="rotate(6.75501846542,5.73665700866,3.38068585203) translate(5.73665700866,3.38068585203) scale(1,-1) " freecad:skip="1">
13,6 </text>
<path d="M 7.92146646157 2.16638059651 L 7.92146504873 -26.3732039847 L -2.79070797301e-06 -26.3732035926 L -1.377864e-06 2.16638098866" fill="none" stroke="#5400ff" stroke-width="0.14 px" style="stroke-width:0.14;stroke-miterlimit:4;stroke-dasharray:none" freecad:basepoint1="7.92146646157 2.16638059651" freecad:basepoint2="-1.377864e-06 2.16638098866" freecad:dimpoint="7.92146504873 -26.3732039847"/>
<path transform="rotate(179.999997168,7.92146504873,-26.3732039847) translate(7.92146504873,-26.3732039847) scale(0.666666666667,0.666666666667)" freecad:skip="1" fill="#5400ff" stroke="none" style="stroke-miterlimit:4;stroke-dasharray:none" d="M 0 0 L 4 1 L 4 -1 Z"/>
<path transform="rotate(359.999997168,-2.79070797301e-06,-26.3732035926) translate(-2.79070797301e-06,-26.3732035926) scale(0.666666666667,0.666666666667)" freecad:skip="1" fill="#5400ff" stroke="none" style="stroke-miterlimit:4;stroke-dasharray:none" d="M 0 0 L 4 1 L 4 -1 Z"/>
<text fill="#5400ff" font-size="2.4" style="text-anchor:middle;text-align:center;font-family:" transform="rotate(-2.83164684057e-06,3.96073110426,-26.8732037886) translate(3.96073110426,-26.8732037886) scale(1,-1) " freecad:skip="1">
7,9 </text>
<path id="Dimension030"  d="M -1.25693587024e-07 27.4565231391 A 2.54347686086 2.54347686086 0 0 1 2.47913156877 30.5684902871 " stroke="#5400ff" stroke-width="0.14 px" style="stroke-width:0.14;stroke-miterlimit:4;stroke-dasharray:none;fill:none;fill-rule: evenodd "/>
<path transform="rotate(22.9183089737,-1.25693587024e-07,27.4565231391) translate(-1.25693587024e-07,27.4565231391) scale(0.266666666667,0.266666666667)" freecad:skip="1" fill="#5400ff" stroke="none" style="stroke-miterlimit:4;stroke-dasharray:none" d="M 0 0 L 4 1 L 4 -1 Z"/>
<path transform="rotate(-100.003086988,2.47913156877,30.5684902871) translate(2.47913156877,30.5684902871) scale(0.266666666667,0.266666666667)" freecad:skip="1" fill="#5400ff" stroke="none" style="stroke-miterlimit:4;stroke-dasharray:none" d="M 0 0 L 4 1 L 4 -1 Z"/>
<text fill="#5400ff" font-size="2.4" style="text-anchor:middle;text-align:center;font-family:" transform="rotate(-51.4576109928,2.6150916973,28.9136509678) translate(2.6150916973,28.9136509678) scale(1,-1) " freecad:skip="1">
102,9 </text>
<path d="M -4e-12 30.0 L -7.21837474098 30.0000003573 L -7.21837697938 -15.2169211479 L -2.238402e-06 -15.2169215052" fill="none" stroke="#5400ff" stroke-width="0.14 px" style="stroke-width:0.14;stroke-miterlimit:4;stroke-dasharray:none" freecad:basepoint1="-4e-12 30.0" freecad:basepoint2="-2.238402e-06 -15.2169215052" freecad:dimpoint="-7.21837474098 30.0000003573"/>
<path transform="rotate(-90.0,-7.21837474098,30.0000003573) translate(-7.21837474098,30.0000003573) scale(0.666666666667,0.666666666667)" freecad:skip="1" fill="#5400ff" stroke="none" style="stroke-miterlimit:4;stroke-dasharray:none" d="M 0 0 L 4 1 L 4 -1 Z"/>
<path transform="rotate(90.0,-7.21837697938,-15.2169211479) translate(-7.21837697938,-15.2169211479) scale(0.666666666667,0.666666666667)" freecad:skip="1" fill="#5400ff" stroke="none" style="stroke-miterlimit:4;stroke-dasharray:none" d="M 0 0 L 4 1 L 4 -1 Z"/>
<text fill="#5400ff" font-size="2.4" style="text-anchor:middle;text-align:center;font-family:" transform="rotate(-90.0,-6.71837586018,7.39153957998) translate(-6.71837586018,7.39153957998) scale(1,-1) " freecad:skip="1">
45,2 </text>
<path d="M 11.5169609423 1.29321426692 L 11.5169233129 -29.8612088412 L -3.90504899962e-05 -29.8611949306 L -1.421088e-06 1.29322817751" fill="none" stroke="#5400ff" stroke-width="0.14 px" style="stroke-width:0.14;stroke-miterlimit:4;stroke-dasharray:none" freecad:basepoint1="11.5169609423 1.29321426692" freecad:basepoint2="-1.421088e-06 1.29322817751" freecad:dimpoint="11.5169233129 -29.8612088412"/>
<path transform="rotate(179.999930797,11.5169233129,-29.8612088412) translate(11.5169233129,-29.8612088412) scale(0.666666666667,0.666666666667)" freecad:skip="1" fill="#5400ff" stroke="none" style="stroke-miterlimit:4;stroke-dasharray:none" d="M 0 0 L 4 1 L 4 -1 Z"/>
<path transform="rotate(359.999930797,-3.90504899962e-05,-29.8611949306) translate(-3.90504899962e-05,-29.8611949306) scale(0.666666666667,0.666666666667)" freecad:skip="1" fill="#5400ff" stroke="none" style="stroke-miterlimit:4;stroke-dasharray:none" d="M 0 0 L 4 1 L 4 -1 Z"/>
<text fill="#5400ff" font-size="2.4" style="text-anchor:middle;text-align:center;font-family:" transform="rotate(-6.92030809538e-05,5.75844152729,-30.3612018859) translate(5.75844152729,-30.3612018859) scale(1,-1) " freecad:skip="1">
11,5 </text>
<path d="M 5.51905441284 7.67585180732 L 5.51905441284 14.4890613556 L 6.65808822477 14.4890613556 L 6.65808822477 7.67585180732" fill="none" stroke="#5400ff" stroke-width="0.14 px" style="stroke-width:0.14;stroke-miterlimit:4;stroke-dasharray:none" freecad:basepoint1="5.51905441284 7.67585180732" freecad:basepoint2="6.65808822477 7.67585180732" freecad:dimpoint="5.51905441284 14.4890613556"/>
<path transform="rotate(180.0,5.51905441284,14.4890613556) translate(5.51905441284,14.4890613556) scale(0.4,0.4)" freecad:skip="1" fill="#5400ff" stroke="none" style="stroke-miterlimit:4;stroke-dasharray:none" d="M 0 0 L 4 1 L 4 -1 Z"/>
<path transform="rotate(360.0,6.65808822477,14.4890613556) translate(6.65808822477,14.4890613556) scale(0.4,0.4)" freecad:skip="1" fill="#5400ff" stroke="none" style="stroke-miterlimit:4;stroke-dasharray:none" d="M 0 0 L 4 1 L 4 -1 Z"/>
<text fill="#5400ff" font-size="2.4" style="text-anchor:middle;text-align:center;font-family:" transform="rotate(-0.0,6.08857131881,14.6890613556) translate(6.08857131881,14.6890613556) scale(1,-1) " freecad:skip="1">
1,1 </text>
<path d="M 5.5190546181 7.95246177535 L 5.5190546181 7.95246177535 L -0.0 7.95246177535 L -0.0 7.95246177535" fill="none" stroke="#5400ff" stroke-width="0.14 px" style="stroke-width:0.14;stroke-miterlimit:4;stroke-dasharray:none" freecad:basepoint1="5.5190546181 7.95246177535" freecad:basepoint2="-0.0 7.95246177535" freecad:dimpoint="5.5190546181 7.95246177535"/>
<path transform="rotate(-180.0,5.5190546181,7.95246177535) translate(5.5190546181,7.95246177535) scale(0.4,0.4)" freecad:skip="1" fill="#5400ff" stroke="none" style="stroke-miterlimit:4;stroke-dasharray:none" d="M 0 0 L 4 1 L 4 -1 Z"/>
<path transform="rotate(0.0,-0.0,7.95246177535) translate(-0.0,7.95246177535) scale(0.4,0.4)" freecad:skip="1" fill="#5400ff" stroke="none" style="stroke-miterlimit:4;stroke-dasharray:none" d="M 0 0 L 4 1 L 4 -1 Z"/>
<text fill="#5400ff" font-size="2.4" style="text-anchor:middle;text-align:center;font-family:" transform="rotate(-180.0,2.75952730905,7.45246177535) translate(2.75952730905,7.45246177535) scale(1,-1) " freecad:skip="1">
5,5 </text>
</g>


<g id="ViewGrupo001" transform="rotate(90.0,110.0,50.0) translate(110.0,50.0) scale(2.5,-2.5)"><path d="M -7.22443008423 17.9286065145 L -7.22443008423 22.787387242 L -2.92443008423 22.787387242 L -2.92443008423 17.9286065145" fill="none" stroke="#5400ff" stroke-width="0.14 px" style="stroke-width:0.14;stroke-miterlimit:4;stroke-dasharray:none" freecad:basepoint1="-7.22443008423 17.9286065145" freecad:basepoint2="-2.92443008423 17.9286065145" freecad:dimpoint="-7.22443008423 22.787387242"/>
<path transform="rotate(-0.0,-7.22443008423,22.787387242) translate(-7.22443008423,22.787387242) scale(0.4,0.4)" freecad:skip="1" fill="#5400ff" stroke="none" style="stroke-miterlimit:4;stroke-dasharray:none" d="M 0 0 L 4 1 L 4 -1 Z"/>
<path transform="rotate(180.0,-2.92443008423,22.787387242) translate(-2.92443008423,22.787387242) scale(0.4,0.4)" freecad:skip="1" fill="#5400ff" stroke="none" style="stroke-miterlimit:4;stroke-dasharray:none" d="M 0 0 L 4 1 L 4 -1 Z"/>
<text fill="#5400ff" font-size="2.4" style="text-anchor:middle;text-align:center;font-family:" transform="rotate(-0.0,-5.07443008423,23.0789140856) translate(-5.07443008423,23.0789140856) scale(1,-1) " freecad:skip="1">
4,3 </text>
<path d="M 5.77556991577 -30.0 L 5.77556991577 -34.4659925525 L -7.22443008423 -34.4659925525 L -7.22443008423 -30.0" fill="none" stroke="#5400ff" stroke-width="0.14 px" style="stroke-width:0.14;stroke-miterlimit:4;stroke-dasharray:none" freecad:basepoint1="5.77556991577 -30.0" freecad:basepoint2="-7.22443008423 -30.0" freecad:dimpoint="5.77556991577 -34.4659925525"/>
<path transform="rotate(-180.0,5.77556991577,-34.4659925525) translate(5.77556991577,-34.4659925525) scale(0.666666666667,0.666666666667)" freecad:skip="1" fill="#5400ff" stroke="none" style="stroke-miterlimit:4;stroke-dasharray:none" d="M 0 0 L 4 1 L 4 -1 Z"/>
<path transform="rotate(0.0,-7.22443008423,-34.4659925525) translate(-7.22443008423,-34.4659925525) scale(0.666666666667,0.666666666667)" freecad:skip="1" fill="#5400ff" stroke="none" style="stroke-miterlimit:4;stroke-dasharray:none" d="M 0 0 L 4 1 L 4 -1 Z"/>
<text fill="#5400ff" font-size="2.4" style="text-anchor:middle;text-align:center;font-family:" transform="rotate(-180.0,-0.72443008423,-34.9659925525) translate(-0.72443008423,-34.9659925525) scale(1,-1) " freecad:skip="1">
13,0 </text>
<path d="M 5.77556991577 13.6621119393 L 10.6221088146 13.6621119393 L 10.6221088146 16.7278177838 L 5.77556991577 16.7278177838" fill="none" stroke="#5400ff" stroke-width="0.14 px" style="stroke-width:0.14;stroke-miterlimit:4;stroke-dasharray:none" freecad:basepoint1="5.77556991577 13.6621119393" freecad:basepoint2="5.77556991577 16.7278177838" freecad:dimpoint="10.6221088146 13.6621119393"/>
<path transform="rotate(90.0,10.6221088146,13.6621119393) translate(10.6221088146,13.6621119393) scale(0.4,0.4)" freecad:skip="1" fill="#5400ff" stroke="none" style="stroke-miterlimit:4;stroke-dasharray:none" d="M 0 0 L 4 1 L 4 -1 Z"/>
<path transform="rotate(270.0,10.6221088146,16.7278177838) translate(10.6221088146,16.7278177838) scale(0.4,0.4)" freecad:skip="1" fill="#5400ff" stroke="none" style="stroke-miterlimit:4;stroke-dasharray:none" d="M 0 0 L 4 1 L 4 -1 Z"/>
<text fill="#5400ff" font-size="2.4" style="text-anchor:middle;text-align:center;font-family:" transform="rotate(90.0,10.1221088146,15.1949648615) translate(10.1221088146,15.1949648615) scale(1,-1) " freecad:skip="1">
3,2 </text>
<path d="M 5.77556991577 -2.16638064384 L 15.0592429586 -2.16638064384 L 15.0592429586 15.2169218063 L 5.77556991577 15.2169218063" fill="none" stroke="#5400ff" stroke-width="0.14 px" style="stroke-width:0.14;stroke-miterlimit:4;stroke-dasharray:none" freecad:basepoint1="5.77556991577 -2.16638064384" freecad:basepoint2="5.77556991577 15.2169218063" freecad:dimpoint="15.0592429586 -2.16638064384"/>
<path transform="rotate(90.0,15.0592429586,-2.16638064384) translate(15.0592429586,-2.16638064384) scale(0.666666666667,0.666666666667)" freecad:skip="1" fill="#5400ff" stroke="none" style="stroke-miterlimit:4;stroke-dasharray:none" d="M 0 0 L 4 1 L 4 -1 Z"/>
<path transform="rotate(270.0,15.0592429586,15.2169218063) translate(15.0592429586,15.2169218063) scale(0.666666666667,0.666666666667)" freecad:skip="1" fill="#5400ff" stroke="none" style="stroke-miterlimit:4;stroke-dasharray:none" d="M 0 0 L 4 1 L 4 -1 Z"/>
<text fill="#5400ff" font-size="2.4" style="text-anchor:middle;text-align:center;font-family:" transform="rotate(90.0,14.5592429586,6.52527058123) translate(14.5592429586,6.52527058123) scale(1,-1) " freecad:skip="1">
17,9 </text>
<path d="M 1.47556991577 -7.67585180732 L 15.3904517505 -7.67585180732 L 15.3904517505 -5.77277739359 L 1.47556991577 -5.77277739359" fill="none" stroke="#5400ff" stroke-width="0.14 px" style="stroke-width:0.14;stroke-miterlimit:4;stroke-dasharray:none" freecad:basepoint1="1.47556991577 -7.67585180732" freecad:basepoint2="1.47556991577 -5.77277739359" freecad:dimpoint="15.3904517505 -7.67585180732"/>
<path transform="rotate(270.0,15.3904517505,-7.67585180732) translate(15.3904517505,-7.67585180732) scale(0.666666666667,0.666666666667)" freecad:skip="1" fill="#5400ff" stroke="none" style="stroke-miterlimit:4;stroke-dasharray:none" d="M 0 0 L 4 1 L 4 -1 Z"/>
<path transform="rotate(450.0,15.3904517505,-5.77277739359) translate(15.3904517505,-5.77277739359) scale(0.666666666667,0.666666666667)" freecad:skip="1" fill="#5400ff" stroke="none" style="stroke-miterlimit:4;stroke-dasharray:none" d="M 0 0 L 4 1 L 4 -1 Z"/>
<text fill="#5400ff" font-size="2.4" style="text-anchor:middle;text-align:center;font-family:" transform="rotate(90.0,14.8904517505,-6.72431460046) translate(14.8904517505,-6.72431460046) scale(1,-1) " freecad:skip="1">
2 </text>
<path d="M 5.77556991577 -30.0 L 8.06316367574 -30.0 L 8.06316367574 -14.0199313435 L 5.77556991577 -14.0199313435" fill="none" stroke="#5400ff" stroke-width="0.14 px" style="stroke-width:0.14;stroke-miterlimit:4;stroke-dasharray:none" freecad:basepoint1="5.77556991577 -30.0" freecad:basepoint2="5.77556991577 -14.0199313435" freecad:dimpoint="8.06316367574 -30.0"/>
<path transform="rotate(90.0,8.06316367574,-30.0) translate(8.06316367574,-30.0) scale(0.666666666667,0.666666666667)" freecad:skip="1" fill="#5400ff" stroke="none" style="stroke-miterlimit:4;stroke-dasharray:none" d="M 0 0 L 4 1 L 4 -1 Z"/>
<path transform="rotate(270.0,8.06316367574,-14.0199313435) translate(8.06316367574,-14.0199313435) scale(0.666666666667,0.666666666667)" freecad:skip="1" fill="#5400ff" stroke="none" style="stroke-miterlimit:4;stroke-dasharray:none" d="M 0 0 L 4 1 L 4 -1 Z"/>
<text fill="#5400ff" font-size="2.4" style="text-anchor:middle;text-align:center;font-family:" transform="rotate(90.0,7.56316367574,-22.0099656717) translate(7.56316367574,-22.0099656717) scale(1,-1) " freecad:skip="1">
16,0 </text>
<path d="M 5.77556991577 -31.5645642112 L 8.0673992744 -31.5645642112 L 8.0673992744 -30.0 L 5.77556991577 -30.0" fill="none" stroke="#5400ff" stroke-width="0.14 px" style="stroke-width:0.14;stroke-miterlimit:4;stroke-dasharray:none" freecad:basepoint1="5.77556991577 -31.5645642112" freecad:basepoint2="5.77556991577 -30.0" freecad:dimpoint="8.0673992744 -31.5645642112"/>
<path transform="rotate(270.0,8.0673992744,-31.5645642112) translate(8.0673992744,-31.5645642112) scale(0.666666666667,0.666666666667)" freecad:skip="1" fill="#5400ff" stroke="none" style="stroke-miterlimit:4;stroke-dasharray:none" d="M 0 0 L 4 1 L 4 -1 Z"/>
<path transform="rotate(450.0,8.0673992744,-30.0) translate(8.0673992744,-30.0) scale(0.666666666667,0.666666666667)" freecad:skip="1" fill="#5400ff" stroke="none" style="stroke-miterlimit:4;stroke-dasharray:none" d="M 0 0 L 4 1 L 4 -1 Z"/>
<text fill="#5400ff" font-size="2.4" style="text-anchor:middle;text-align:center;font-family:" transform="rotate(90.0,7.5673992744,-30.7822821056) translate(7.5673992744,-30.7822821056) scale(1,-1) " freecad:skip="1">
1,6 </text>
<path d="M 5.77556991577 -12.7906308919 L 8.20759375961 -12.7906308919 L 8.20759375961 -5.77277798019 L 5.77556991577 -5.77277798019" fill="none" stroke="#5400ff" stroke-width="0.14 px" style="stroke-width:0.14;stroke-miterlimit:4;stroke-dasharray:none" freecad:basepoint1="5.77556991577 -12.7906308919" freecad:basepoint2="5.77556991577 -5.77277798019" freecad:dimpoint="8.20759375961 -12.7906308919"/>
<path transform="rotate(90.0,8.20759375961,-12.7906308919) translate(8.20759375961,-12.7906308919) scale(0.666666666667,0.666666666667)" freecad:skip="1" fill="#5400ff" stroke="none" style="stroke-miterlimit:4;stroke-dasharray:none" d="M 0 0 L 4 1 L 4 -1 Z"/>
<path transform="rotate(270.0,8.20759375961,-5.77277798019) translate(8.20759375961,-5.77277798019) scale(0.666666666667,0.666666666667)" freecad:skip="1" fill="#5400ff" stroke="none" style="stroke-miterlimit:4;stroke-dasharray:none" d="M 0 0 L 4 1 L 4 -1 Z"/>
<text fill="#5400ff" font-size="2.4" style="text-anchor:middle;text-align:center;font-family:" transform="rotate(90.0,7.70759375961,-9.28170443605) translate(7.70759375961,-9.28170443605) scale(1,-1) " freecad:skip="1">
7,0 </text>
<path d="M 6.0078621309 -31.5645642112 L 11.0078621309 -31.5645642112 L 11.0078621309 -5.77277774479 L 6.0078621309 -5.77277774479" fill="none" stroke="#5400ff" stroke-width="0.14 px" style="stroke-width:0.14;stroke-miterlimit:4;stroke-dasharray:none" freecad:basepoint1="6.0078621309 -31.5645642112" freecad:basepoint2="6.0078621309 -5.77277774479" freecad:dimpoint="11.0078621309 -31.5645642112"/>
<path transform="rotate(90.0,11.0078621309,-31.5645642112) translate(11.0078621309,-31.5645642112) scale(0.666666666667,0.666666666667)" freecad:skip="1" fill="#5400ff" stroke="none" style="stroke-miterlimit:4;stroke-dasharray:none" d="M 0 0 L 4 1 L 4 -1 Z"/>
<path transform="rotate(270.0,11.0078621309,-5.77277774479) translate(11.0078621309,-5.77277774479) scale(0.666666666667,0.666666666667)" freecad:skip="1" fill="#5400ff" stroke="none" style="stroke-miterlimit:4;stroke-dasharray:none" d="M 0 0 L 4 1 L 4 -1 Z"/>
<text fill="#5400ff" font-size="2.4" style="text-anchor:middle;text-align:center;font-family:" transform="rotate(90.0,10.5078621309,-18.668670978) translate(10.5078621309,-18.668670978) scale(1,-1) " freecad:skip="1">
25,8 </text>
<path d="M -2.92443008423 17.9286065145 L -2.92443008423 22.787387242 L 1.47556991577 22.787387242 L 1.47556991577 17.9286065145" fill="none" stroke="#5400ff" stroke-width="0.14 px" style="stroke-width:0.14;stroke-miterlimit:4;stroke-dasharray:none" freecad:basepoint1="-2.92443008423 17.9286065145" freecad:basepoint2="1.47556991577 17.9286065145" freecad:dimpoint="-2.92443008423 22.787387242"/>
<path transform="rotate(-0.0,-2.92443008423,22.787387242) translate(-2.92443008423,22.787387242) scale(0.4,0.4)" freecad:skip="1" fill="#5400ff" stroke="none" style="stroke-miterlimit:4;stroke-dasharray:none" d="M 0 0 L 4 1 L 4 -1 Z"/>
<path transform="rotate(180.0,1.47556991577,22.787387242) translate(1.47556991577,22.787387242) scale(0.4,0.4)" freecad:skip="1" fill="#5400ff" stroke="none" style="stroke-miterlimit:4;stroke-dasharray:none" d="M 0 0 L 4 1 L 4 -1 Z"/>
<text fill="#5400ff" font-size="2.4" style="text-anchor:middle;text-align:center;font-family:" transform="rotate(-0.0,-0.72443008423,23.287387242) translate(-0.72443008423,23.287387242) scale(1,-1) " freecad:skip="1">
4,4 </text>
<path d="M -2.92443008423 14.7740916324 L -10.7700531752 14.7740916324 L -10.7700531752 18.9169216113 L -2.92443008423 18.9169216113" fill="none" stroke="#5400ff" stroke-width="0.14 px" style="stroke-width:0.14;stroke-miterlimit:4;stroke-dasharray:none" freecad:basepoint1="-2.92443008423 14.7740916324" freecad:basepoint2="-2.92443008423 18.9169216113" freecad:dimpoint="-10.7700531752 14.7740916324"/>
<path transform="rotate(90.0,-10.7700531752,14.7740916324) translate(-10.7700531752,14.7740916324) scale(0.4,0.4)" freecad:skip="1" fill="#5400ff" stroke="none" style="stroke-miterlimit:4;stroke-dasharray:none" d="M 0 0 L 4 1 L 4 -1 Z"/>
<path transform="rotate(270.0,-10.7700531752,18.9169216113) translate(-10.7700531752,18.9169216113) scale(0.4,0.4)" freecad:skip="1" fill="#5400ff" stroke="none" style="stroke-miterlimit:4;stroke-dasharray:none" d="M 0 0 L 4 1 L 4 -1 Z"/>
<text fill="#5400ff" font-size="2.4" style="text-anchor:middle;text-align:center;font-family:" transform="rotate(90.0,-11.2700531752,16.8455066218) translate(-11.2700531752,16.8455066218) scale(1,-1) " freecad:skip="1">
4,1 </text>
</g>


</svg>

