<?xml version="1.0" encoding="UTF-8" standalone="no"?>
<!-- Created with Inkscape (http://www.inkscape.org/) -->

<svg
   xmlns:dc="http://purl.org/dc/elements/1.1/"
   xmlns:cc="http://creativecommons.org/ns#"
   xmlns:rdf="http://www.w3.org/1999/02/22-rdf-syntax-ns#"
   xmlns:svg="http://www.w3.org/2000/svg"
   xmlns="http://www.w3.org/2000/svg"
   version="1.1"
   width="744.09448"
   height="1052.3622"
   id="svg2">
  <defs
     id="defs4" />
  <metadata
     id="metadata7">
    <rdf:RDF>
      <cc:Work
         rdf:about="">
        <dc:format>image/svg+xml</dc:format>
        <dc:type
           rdf:resource="http://purl.org/dc/dcmitype/StillImage" />
        <dc:title></dc:title>
      </cc:Work>
    </rdf:RDF>
  </metadata>
  <g
     id="layer1">
    <path
       d="m 271.00022,38.471192 c 0,0 -15.93561,-56.5177 -57.34565,-56.5177 -41.41005,0 -64.30424,60.42444 -104.37798,60.42444 -40.073741,0 -25.637371,-66.75361 -69.509621,-68.08104 -39.55632981,-1.19685 -26.13093,113.41389 -83.12362,113.41389 -56.992689,0 -40.70348,-112.32812 -79.274909,-112.32812 -38.57143,0 -68.56137,71.10664 -68.56137,71.10664 l -13.74246,-22.75654 c 0,0 51.42857,-90 90,-90 38.571429,0 14.58605,123.97802 71.578739,123.97802 56.99269,0 23.54026,-129.12818 74.55219,-129.12818 51.01193,0 39.43588,79.50961 79.509621,79.50961 40.07374,0 55.82507,-56.13872 97.23512,-56.13872 41.41004,0 81.41004,61.77927 81.41004,61.77927 z"
       id="path2985-3"
       style="fill:none;stroke:#000000;stroke-width:1px;stroke-linecap:butt;stroke-linejoin:miter;stroke-opacity:1" />
  </g>
</svg>
