<?xml version="1.0" encoding="UTF-8" standalone="no"?>
<!-- Created with Inkscape (http://www.inkscape.org/) -->

<svg
   xmlns:dc="http://purl.org/dc/elements/1.1/"
   xmlns:cc="http://creativecommons.org/ns#"
   xmlns:rdf="http://www.w3.org/1999/02/22-rdf-syntax-ns#"
   xmlns:svg="http://www.w3.org/2000/svg"
   xmlns="http://www.w3.org/2000/svg"
   version="1.1"
   width="744.09448"
   height="1052.3622"
   id="svg2">
  <defs
     id="defs4" />
  <metadata
     id="metadata7">
    <rdf:RDF>
      <cc:Work
         rdf:about="">
        <dc:format>image/svg+xml</dc:format>
        <dc:type
           rdf:resource="http://purl.org/dc/dcmitype/StillImage" />
        <dc:title></dc:title>
      </cc:Work>
    </rdf:RDF>
  </metadata>
  <path
     d="m -96.191215,-2.2558074 36.23069,-86.3962596 22.29581,68.55961 35.6732933,-66.88742 7.80354,74.13356 35.6732897,-57.4117 15.60707,62.9856596 27.86976,-69.6744096 12.26269,86.3962596 c 0,0 24.525392,114.2660174 -5.01655,115.3808074 -29.54195,1.1148 -28.42716,-36.230677 -28.42716,-36.230677 0,0 8.91832,-47.93599 -6.13135,-54.06734 -15.04967,-6.13135 -5.01655,59.64129 -26.75497,77.477927 C 9.1564883,129.84686 16.402628,20.040003 -0.31923173,19.482613 -17.041092,18.925213 -19.808272,99.151493 -42.681275,108.66584 c -28.15546,11.71167 9.41929,-86.629357 -11.7053,-84.724067 -21.8689,1.97242 -21.18102,79.150117 -41.24724,73.57617 -20.066225,-5.57395 -0.5574,-99.7737504 -0.5574,-99.7737504 z"
     id="path2984"
     style="fill:none;stroke:#000000;stroke-width:1px;stroke-linecap:butt;stroke-linejoin:miter;stroke-opacity:1" />
</svg>
