<?xml version="1.0" encoding="UTF-8" standalone="no"?>
<!-- Created with Inkscape (http://www.inkscape.org/) -->

<svg
   xmlns:dc="http://purl.org/dc/elements/1.1/"
   xmlns:cc="http://creativecommons.org/ns#"
   xmlns:rdf="http://www.w3.org/1999/02/22-rdf-syntax-ns#"
   xmlns:svg="http://www.w3.org/2000/svg"
   xmlns="http://www.w3.org/2000/svg"
   version="1.1"
   width="744.09448"
   height="1052.3622"
   id="svg2">
  <defs
     id="defs4" />
  <metadata
     id="metadata7">
    <rdf:RDF>
      <cc:Work
         rdf:about="">
        <dc:format>image/svg+xml</dc:format>
        <dc:type
           rdf:resource="http://purl.org/dc/dcmitype/StillImage" />
        <dc:title></dc:title>
      </cc:Work>
    </rdf:RDF>
  </metadata>
  <g
     id="layer1">
    <path
       d="m 119.81077,-18.103656 63.02684,0.71429 c 0,0 12.3922,-1.91392 12.47897,11.0503999 0.0772,11.53057 -12.47897,9.15265 -12.47897,9.15265 l -86.80132,1.42857 0.71428,-58.6606399 -79.57798,116.83108 77.78175,41.416246 0,103.03556 c 0,0 0.73284,12.37033 -12.42296,12.65229 -14.20864,0.30453 -17.88161,-18.71321 -17.88161,-18.71321 l 0,-66.67006 -96.97465,-52.527926 -1.01015,105.055856 -161.62441,-1.01015 c 0,0 -16.16244,-3.03046 -15.15229,-14.14214 1.01015,-11.11168 15.33282,-11.37333 15.33282,-11.37333 l 111.42857,0 0,-102.857136 90.0000002,-122.85714 -65.7142902,0 -51.42857,74.2857099 c 0,0 -10.72511,4.7130301 -18.80633,0.67242 -8.08122,-4.04061 -3.53553,-17.1726 -3.53553,-17.1726 l 61.11423,-81.3172799 106.06602,-3.03046 c 0,0 -41.6168198,-34.188574 -15.15229,-65.659914 37.37564,-44.44671 111.11678,-22.22336 116.16754,21.21321 3.74992,32.24933 -32.33539,44.905374 -32.33539,44.905374 l 15.38373,-0.35714 z"
       id="path2985"
       style="fill:none;stroke:#000000;stroke-width:1px;stroke-linecap:butt;stroke-linejoin:miter;stroke-opacity:1" />
  </g>
</svg>
