<?xml version="1.0" encoding="UTF-8" standalone="no"?>
<!-- Created with Inkscape (http://www.inkscape.org/) -->

<svg
   xmlns:dc="http://purl.org/dc/elements/1.1/"
   xmlns:cc="http://creativecommons.org/ns#"
   xmlns:rdf="http://www.w3.org/1999/02/22-rdf-syntax-ns#"
   xmlns:svg="http://www.w3.org/2000/svg"
   xmlns="http://www.w3.org/2000/svg"
   xmlns:sodipodi="http://sodipodi.sourceforge.net/DTD/sodipodi-0.dtd"
   xmlns:inkscape="http://www.inkscape.org/namespaces/inkscape"
   xmlns:freecad="http://www.freecadweb.org/wiki/index.php?title=Svg_Namespace"
   width="297mm"
   height="210mm"
   viewBox="0 0 297 210"
   id="svg5211"
   version="1.1"
   inkscape:version="0.48.1 "
   sodipodi:docname="iso7200-a4-landscape">
  <defs
     id="defs5213" />
  <sodipodi:namedview
     id="base"
     pagecolor="#ffffff"
     bordercolor="#666666"
     borderopacity="1.0"
     inkscape:pageopacity="0.0"
     inkscape:pageshadow="2"
     inkscape:document-units="mm"
     inkscape:current-layer="layer1"
     showgrid="false"
     fit-margin-top="10"
     fit-margin-left="0"
     fit-margin-right="0"
     fit-margin-bottom="0"
     inkscape:window-width="1280"
     inkscape:window-height="962"
     inkscape:window-x="-8"
     inkscape:window-y="-8"
     inkscape:window-maximized="1" />
<!-- Working space 20 10 287 200 -->
<!-- Title block 107 164 287 200 -->
  <metadata
     id="metadata5216">
    <rdf:RDF>
      <cc:Work
         rdf:about="">
        <dc:format>image/svg+xml</dc:format>
        <dc:type
           rdf:resource="http://purl.org/dc/dcmitype/StillImage" />
        <dc:title></dc:title>
      </cc:Work>
    </rdf:RDF>
  </metadata>
  <g
     inkscape:label="Ebene 1"
     inkscape:groupmode="layer"
     id="layer1">
      <rect id="zeichenrahmen" y="10" x="20"
         height="190"
         width="267"
         style="fill:none;stroke:#000000;stroke-width:0.35;stroke-linecap:miter;stroke-miterlimit:4" />
       <!-- width-30, height-20 -->
    <g id="schriftfeld"
       transform="translate(87,-87)">
       <!-- A4 Portrait based for other formats width-210, height-297 -->
       <!--        page       rect   translation
                   w    h    rw   rh   tx   ty
            A4-P  210  297  180  277    0    0
            A4-L  297  210  267  190   87  -87
            A3-L  420  297  390  277  210    0
            A2-L  594  420  564  400  384  123
            A1-L  841  594  811  574  631  297
            A0-L 1189  841 1159  821  979  544

 -->
    <g id="schriftfeldrahmen"
       style="fill:none;stroke:#000000;stroke-width:0.35;stroke-linecap:miter;stroke-miterlimit:4">
      <rect id="schriftfeld-aussen"
         width="180" height="36" x="20" y="251" />
      <path id="schriftfeld-h1" d="M 20,260 H 200" />
      <path d="M 89,269 H 200" id="schriftfeld-h2" />
      <path id="schriftfeld-h3" d="m 149,278 h 51" />
      <path id="schriftfeld-v1" d="m 89,251 v 36" />
      <path d="m 45,251 v 9" id="schriftfeld-v2" />
      <path id="schriftfeld-v3" d="m 132,251 v 9" />
      <path d="m 175,251 v 9" id="schriftfeld-v4" />
      <path id="schriftfeld-v5" d="m 89,251 v 36" />
      <path d="m 149,260 v 27" id="schriftfeld-v6" />
      <path id="schriftfeld-v7" d="m 156,278 v 9" />
      <path d="m 181,278 v 9" id="schriftfeld-v8" />
      <path id="schriftfeld-v9" d="m 191,278 v 9" />
    </g>
    <g id="schriftfeldtext2"
        style="font-size:2px;font-style:normal;font-weight:normal;text-align:start;line-height:125%;letter-spacing:0px;word-spacing:0px;writing-mode:lr-tb;text-anchor:start;fill:#000000;fill-opacity:1;stroke:none;font-family:osifont"
       xml:space="preserve">
    <text y="253" x="21"><tspan id="tspan5781" y="253" x="21">Responsible department</tspan></text>
    <text x="46" y="253"><tspan id="tspan5783" x="46" y="253">Technical reference</tspan></text>
    <text y="253" x="90"><tspan y="253" x="90" id="tspan5785">Created by</tspan></text>
    <text x="133" y="253"><tspan id="tspan5787" x="133" y="253">Approved by</tspan></text>
    <text y="253" x="176"><tspan y="253" x="176" id="tspan5789">Classification/key words</tspan></text>
    <text x="21" y="262"><tspan x="21" y="262" id="tspan5791">Legal owner</tspan></text>
    <text y="262" x="90"><tspan id="tspan5793" y="262" x="90">Document type</tspan></text>
    <text x="150" y="262"><tspan x="150" y="262" id="tspan5795">Document status</tspan></text>
    <text x="90" y="271"><tspan x="90" y="271" id="tspan5797">Title, Supplementary title</tspan></text>
    <text y="271" x="150"><tspan id="tspan5799" y="271" x="150">Identification number</tspan></text>
    <text x="150" y="280"><tspan x="150" y="280" id="tspan5801">Rev.</tspan></text>
    <text y="280" x="157"><tspan id="tspan5803" y="280" x="157">Date of issue</tspan></text>
    <text x="182" y="280"><tspan x="182" y="280" id="tspan5805">Language</tspan></text>
    <text y="280" x="192"><tspan id="tspan5807" y="280" x="192">Seg./Sh.</tspan></text>
    </g>
    <g id="schriftfeldtext4"
       style="font-size:4px;font-style:normal;font-weight:normal;text-align:start;line-height:125%;letter-spacing:0px;word-spacing:0px;writing-mode:lr-tb;text-anchor:start;fill:#000000;fill-opacity:1;stroke:none;font-family:osifont"
       xml:space="preserve">
    <text freecad:editable="Creator" x="90" y="258"><tspan id="tspan5815" x="90" y="258">DFDMaker</tspan> </text>
    <text freecad:editable="ApprovalPerson" y="258" x="133"><tspan y="258" x="133" id="tspan5817">DFDMaker</tspan> </text>
    <text freecad:editable="LegalOwner" y="267" x="21"><tspan id="tspan5821" y="267" x="21">DFDMaker</tspan> </text>
    <text freecad:editable="DocumentType" x="90" y="267"><tspan x="90" y="267" id="tspan5823">Plano</tspan></text>
    <text freecad:editable="Title" y="276" x="90"><tspan id="tspan5827" y="276" x="90">T30-ej2</tspan></text>
    <text freecad:editable="IdNumber" x="150" y="276"><tspan x="150" y="276" id="tspan5829">0001</tspan></text>
    <text freecad:editable="Date" x="157" y="285"><tspan x="157" y="285" id="tspan5833">2016-04-21</tspan></text>
    <text freecad:editable="OptResponsibleDept" y="258" x="21"><tspan y="258" x="21">aa</tspan></text>
    <text freecad:editable="OptTechnicalRef" x="46" y="258"><tspan x="46" y="258">bb</tspan></text>
    <text freecad:editable="Classification" y="258" x="176"><tspan y="258" x="176">cc</tspan></text>
    <text freecad:editable="OptDocumentStatus" x="150" y="267"><tspan x="150" y="267">dd</tspan></text>
    <text freecad:editable="OptRevison" x="150" y="285"><tspan x="150" y="285">ee</tspan></text>
    <text freecad:editable="OptLanguage" x="182" y="285"><tspan x="182" y="285">ff</tspan></text>
    <text freecad:editable="SegmentsOrSheets" y="285" x="192"><tspan y="285" x="192">gg</tspan></text>
    <text freecad:editable="OptSupTitle" y="281" x="90"><tspan id="tspan5827" y="281" x="90"></tspan></text>
    <text freecad:editable="OptSupTitle2" y="285" x="90"><tspan id="tspan5827" y="285" x="90"></tspan></text>
    </g>
      </g>
<g id="Ortho_0_0"
   transform="rotate(-90,125,130) translate(125,130) scale(2,2)"
  >
<g   stroke="rgb(0, 0, 0)"
   stroke-width="0.175"
   stroke-linecap="butt"
   stroke-linejoin="miter"
   fill="none"
   transform="scale(1,-1)"
  >
<path d="M7.2955 -16.0901 A3.7 3.7 0 0 0 -2.2384e-06 -15.2169" /><path id= "2" d=" M 7.2955 -16.0901 L 11.517 1.29321 " />
<path id= "3" d=" M -2.2384e-06 -15.2169 L 4.29989e-12 30 " />
<path d="M7.09448 5.77278 A3.7 3.7 0 0 0 11.517 1.29321" /><path id= "5" d=" M 4.29878e-12 30 L 6.82291 31.5646 " />
<path id= "6" d=" M 5.48522 12.7906 L 7.09448 5.77278 " />
<path id= "7" d=" M 6.82291 31.5646 L 10.8461 14.0199 " />
<path id= "8" d=" M 10.8461 14.0199 L 5.48522 12.7906 " />
<circle cx ="7.92147" cy ="2.16638" r ="1.6" /><circle cx ="3.7" cy ="-15.2169" r ="1.6" /><path id= "11" d=" M 7.09448 5.77278 L 6.65809 7.67585 " />
<path d="M-2.2384e-06 -15.2169 A3.7 3.7 0 0 1 7.2955 -16.0901" /><path d="M11.517 1.29321 A3.7 3.7 0 0 1 7.09448 5.77278" /></g>
</g>



<g id="Ortho_0_1"
   transform="rotate(90,110,50) translate(110,50) scale(2,2)"
  >
<g   stroke="rgb(0, 0, 0)"
   stroke-width="0.175"
   stroke-linecap="butt"
   stroke-linejoin="miter"
   fill="none"
   transform="scale(1,-1)"
  >
<path id= "1" d=" M 1.47557 18.9169 L 5.77557 18.9169 " />
<path id= "2" d=" M 1.47557 -5.86638 L 5.77557 -5.86638 " />
<path id= "3" d=" M -7.22443 18.9169 L -2.92443 18.9169 " />
<path id= "4" d=" M -7.22443 -5.86638 L -2.92443 -5.86638 " />
</g>
<g   stroke="rgb(0, 0, 0)"
   stroke-width="0.175"
   stroke-linecap="butt"
   stroke-linejoin="miter"
   fill="none"
   transform="scale(1,-1)"
  >
<path d="M5.77557,16.0901 L5.77557,16.4278  L5.77557,16.7546  L5.77557,17.0675  L5.77557,17.3636  L5.77557,17.6403  L5.77557,17.8951  L5.77557,18.1256  L5.77557,18.3298  L5.77557,18.5058  L5.77557,18.652  L5.77557,18.7671  L5.77557,18.8501  L5.77557,18.9002  L5.77557,18.9169 " /><path d="M5.77557,16.0901 L5.77557,16.0288  L5.77557,15.9672  L5.77557,15.9055  L5.77557,15.8435  L5.77557,15.7814  L5.77557,15.7191  L5.77557,15.6566  L5.77557,15.594  L5.77557,15.5314  L5.77557,15.4686  L5.77557,15.4057  L5.77557,15.3428  L5.77557,15.2799  L5.77557,15.2169 " /><path d="M1.47557,15.2169 L1.47557,15.2799  L1.47557,15.3428  L1.47557,15.4057  L1.47557,15.4686  L1.47557,15.5314  L1.47557,15.594  L1.47557,15.6566  L1.47557,15.7191  L1.47557,15.7814  L1.47557,15.8435  L1.47557,15.9055  L1.47557,15.9672  L1.47557,16.0288  L1.47557,16.0901 " /><path d="M1.47557,18.9169 L1.47557,18.9002  L1.47557,18.8501  L1.47557,18.7671  L1.47557,18.652  L1.47557,18.5058  L1.47557,18.3298  L1.47557,18.1256  L1.47557,17.8951  L1.47557,17.6403  L1.47557,17.3636  L1.47557,17.0675  L1.47557,16.7546  L1.47557,16.4278  L1.47557,16.0901 " /><path id= "5" d=" M 5.77557 16.0901 L 5.77557 -1.29321 " />
<path d="M5.77557,-5.86638 L5.77557,-5.83553  L5.77557,-5.74351  L5.77557,-5.59184  L5.77557,-5.38306  L5.77557,-5.12064  L5.77557,-4.80896  L5.77557,-4.45322  L5.77557,-4.05935  L5.77557,-3.63392  L5.77557,-3.18402  L5.77557,-2.71715  L5.77557,-2.2411  L5.77557,-1.7638  L5.77557,-1.29321 " /><path id= "7" d=" M 5.77557 -12.7906 L 5.77557 -5.77278 " />
<path id= "8" d=" M 5.77557 -31.5646 L 5.77557 -14.0199 " />
<path id= "9" d=" M 5.77557 -14.0199 L 5.77557 -12.7906 " />
<path id= "10" d=" M 1.47557 14.7741 L -2.92443 14.7741 " />
<path id= "11" d=" M 1.47557 16.0901 L 1.47557 -1.29321 " />
<path d="M1.47557,-1.29321 L1.47557,-1.7638  L1.47557,-2.2411  L1.47557,-2.71715  L1.47557,-3.18402  L1.47557,-3.63392  L1.47557,-4.05935  L1.47557,-4.45322  L1.47557,-4.80896  L1.47557,-5.12064  L1.47557,-5.38306  L1.47557,-5.59184  L1.47557,-5.74351  L1.47557,-5.83553  L1.47557,-5.86638 " /><path id= "13" d=" M 1.47557 -7.67585 L 1.47557 -5.77278 " />
<path d="M1.47557,-1.29321 L1.47557,-1.20034  L1.47557,-1.11234  L1.47557,-1.02964  L1.47557,-0.952657  L1.47557,-0.881789  L1.47557,-0.817388  L1.47557,-0.759777  L1.47557,-0.709248  L1.47557,-0.666054  L1.47557,-0.630414  L1.47557,-0.602505  L1.47557,-0.58247  L1.47557,-0.570408  L1.47557,-0.566381 " /><path d="M1.47557,14.8593 L1.47557,14.9493  L1.47557,15.0401  L1.47557,15.1315  L1.47557,15.2232  L1.47557,15.3149  L1.47557,15.4062  L1.47557,15.4969  L1.47557,15.5867  L1.47557,15.6753  L1.47557,15.7624  L1.47557,15.8477  L1.47557,15.9309  L1.47557,16.0118  L1.47557,16.0901 " /><path d="M1.47557,13.6169 L1.47557,13.6243  L1.47557,13.6464  L1.47557,13.683  L1.47557,13.7337  L1.47557,13.7981  L1.47557,13.8756  L1.47557,13.9655  L1.47557,14.0669  L1.47557,14.179  L1.47557,14.3006  L1.47557,14.4307  L1.47557,14.568  L1.47557,14.7113  L1.47557,14.8593 " /><path id= "17" d=" M 5.77557 -31.5646 L -7.22443 -31.5646 " />
<path id= "18" d=" M -2.92443 -7.67585 L 1.47557 -7.67585 " />
<path id= "19" d=" M -2.92443 -5.77278 L -2.92443 -7.67585 " />
<path id= "20" d=" M -7.22443 -12.7906 L -7.22443 -5.77278 " />
<path id= "21" d=" M 5.77557 -12.7906 L -7.22443 -12.7906 " />
<path id= "22" d=" M 5.77557 -14.0199 L -7.22443 -14.0199 " />
<path id= "23" d=" M -7.22443 -31.5646 L -7.22443 -14.0199 " />
<path id= "24" d=" M -7.22443 -14.0199 L -7.22443 -12.7906 " />
<path d="M-7.22443,16.0901 L-7.22443,16.4278  L-7.22443,16.7546  L-7.22443,17.0675  L-7.22443,17.3636  L-7.22443,17.6403  L-7.22443,17.8951  L-7.22443,18.1256  L-7.22443,18.3298  L-7.22443,18.5058  L-7.22443,18.652  L-7.22443,18.7671  L-7.22443,18.8501  L-7.22443,18.9002  L-7.22443,18.9169 " /><path id= "26" d=" M -7.22443 16.0901 L -7.22443 -1.29321 " />
<path d="M-7.22443,-5.86638 L-7.22443,-5.83553  L-7.22443,-5.74351  L-7.22443,-5.59184  L-7.22443,-5.38306  L-7.22443,-5.12064  L-7.22443,-4.80896  L-7.22443,-4.45322  L-7.22443,-4.05935  L-7.22443,-3.63392  L-7.22443,-3.18402  L-7.22443,-2.71715  L-7.22443,-2.2411  L-7.22443,-1.7638  L-7.22443,-1.29321 " /><path d="M-7.22443,-1.29321 L-7.22443,-1.20034  L-7.22443,-1.11234  L-7.22443,-1.02964  L-7.22443,-0.952657  L-7.22443,-0.881789  L-7.22443,-0.817388  L-7.22443,-0.759777  L-7.22443,-0.709248  L-7.22443,-0.666054  L-7.22443,-0.630414  L-7.22443,-0.602505  L-7.22443,-0.58247  L-7.22443,-0.570408  L-7.22443,-0.566381 " /><path d="M-7.22443,14.8593 L-7.22443,14.9493  L-7.22443,15.0401  L-7.22443,15.1315  L-7.22443,15.2232  L-7.22443,15.3149  L-7.22443,15.4062  L-7.22443,15.4969  L-7.22443,15.5867  L-7.22443,15.6753  L-7.22443,15.7624  L-7.22443,15.8477  L-7.22443,15.9309  L-7.22443,16.0118  L-7.22443,16.0901 " /><path d="M-7.22443,13.6169 L-7.22443,13.6243  L-7.22443,13.6464  L-7.22443,13.683  L-7.22443,13.7337  L-7.22443,13.7981  L-7.22443,13.8756  L-7.22443,13.9655  L-7.22443,14.0669  L-7.22443,14.179  L-7.22443,14.3006  L-7.22443,14.4307  L-7.22443,14.568  L-7.22443,14.7113  L-7.22443,14.8593 " /><path d="M-2.92443,18.9169 L-2.92443,18.9002  L-2.92443,18.8501  L-2.92443,18.7671  L-2.92443,18.652  L-2.92443,18.5058  L-2.92443,18.3298  L-2.92443,18.1256  L-2.92443,17.8951  L-2.92443,17.6403  L-2.92443,17.3636  L-2.92443,17.0675  L-2.92443,16.7546  L-2.92443,16.4278  L-2.92443,16.0901 " /><path d="M-2.92443,-1.29321 L-2.92443,-1.7638  L-2.92443,-2.2411  L-2.92443,-2.71715  L-2.92443,-3.18402  L-2.92443,-3.63392  L-2.92443,-4.05935  L-2.92443,-4.45322  L-2.92443,-4.80896  L-2.92443,-5.12064  L-2.92443,-5.38306  L-2.92443,-5.59184  L-2.92443,-5.74351  L-2.92443,-5.83553  L-2.92443,-5.86638 " /><path id= "33" d=" M -2.92443 -1.29321 L -2.92443 16.0901 " />
<path id= "34" d=" M -2.92443 -1.29321 L -2.92443 14.7741 " />
</g>
</g>



<g id="Ortho_1_1"
   transform="rotate(120,240,100) translate(240,100) scale(2,2)"
  >
<g   stroke="rgb(0, 0, 0)"
   stroke-width="0.175"
   stroke-linecap="butt"
   stroke-linejoin="miter"
   fill="none"
   transform="scale(1,-1)"
  >
<path id= "1" d=" M 0.277092 13.5159 L 3.31765 11.7605 " />
<path id= "2" d=" M -6.40794 -8.80946 L -3.36738 -10.5649 " />
<path id= "3" d=" M -5.87474 17.0677 L -2.83418 15.3122 " />
<path id= "4" d=" M -12.5598 -5.2577 L -9.51921 -7.01317 " />
</g>
<g   stroke="rgb(0, 0, 0)"
   stroke-width="0.175"
   stroke-linecap="butt"
   stroke-linejoin="miter"
   fill="none"
   transform="scale(1,-1)"
  >
<path d="M-1.07475 7.80125 A3.7 2.1362 60 0 0 3.31765 11.7605" />
<path d="M3.31765 11.7605 A3.7 2.1362 60 0 0 4.08395 10.0667" />
<path d="M0.277092 13.5159 A3.7 2.1362 -120 0 1 -4.11531 9.55672" />
<path id= "4" d=" M -1.07475 7.80125 L -4.05978 -8.11555 " />
<path id= "5" d=" M 4.08395 10.0667 L 4.08394 -26.8528 " />
<path d="M-0.932612 -9.96763 A3.7 2.1362 60 0 0 -3.36738 -10.5649" />
<path d="M-3.36738 -10.5649 A3.7 2.1362 60 0 0 -4.05978 -8.11555" />
<path id= "8" d=" M 4.08394 -26.8528 L -0.740583 -30.9157 " />
<path id= "9" d=" M 0.205311 -15.0407 L -0.932612 -9.96763 " />
<path id= "10" d=" M -0.740583 -30.9157 L -3.58539 -18.233 " />
<path id= "11" d=" M -3.58539 -18.233 L 0.205311 -15.0407 " />
<path d="M-2.62013 -8.2893 A1.6 0.92376 60 0 0 -0.717378 -5.97499" />
<path d="M-0.717378 -5.97499 A1.6 0.92376 60 0 0 -2.31738 -8.74627" />
<path d="M-2.31738 -8.74627 A1.6 0.92376 60 0 0 -2.62013 -8.2893" />
<path d="M0.364902 7.62752 A1.6 0.92376 60 0 0 2.26765 9.94182" />
<path d="M2.26765 9.94182 A1.6 0.92376 60 0 0 0.667651 7.17054" />
<path d="M0.667651 7.17054 A1.6 0.92376 60 0 0 0.364902 7.62752" />
<path id= "18" d=" M -2.06788 13.2569 L -2.06788 13.6185 " />
<path id= "19" d=" M -1.8692 13.1422 L -2.06788 13.2569 " />
<path id= "20" d=" M -4.11531 9.55672 L -7.10034 -6.36008 " />
<path d="M-7.10034 -6.36008 A3.7 2.1362 -120 0 1 -6.40794 -8.80946" />
<path id= "22" d=" M 0.537422 8.76268 L 0.345686 7.74031 " />
<path id= "23" d=" M -2.44761 -7.15413 L -2.63934 -8.17651 " />
<path id= "24" d=" M -0.740583 -30.9157 L -9.93297 -25.6084 " />
<path id= "25" d=" M -8.98708 -9.73348 L -9.61028 -6.95514 " />
<path id= "26" d=" M 0.205311 -15.0407 L -8.98708 -9.73348 " />
<path id= "27" d=" M -3.58539 -18.233 L -12.7778 -12.9258 " />
<path id= "28" d=" M -9.93297 -25.6084 L -12.7778 -12.9258 " />
<path id= "29" d=" M -12.7778 -12.9258 L -8.98708 -9.73348 " />
<path d="M-10.2671 13.1085 A3.7 2.1362 60 0 0 -5.87474 17.0677" />
<path id= "31" d=" M -10.2671 13.1085 L -13.2522 -2.80832 " />
<path d="M-12.5598 -5.2577 A3.7 2.1362 60 0 0 -13.2522 -2.80832" />
<path d="M-2.06788 13.6185 A3.7 2.1362 -120 0 1 -2.83418 15.3122" />
<path d="M-2.83418 15.3122 A3.7 2.1362 -120 0 1 -7.22658 11.353" />
<path d="M-10.2116 -4.56379 A3.7 2.1362 -120 0 1 -9.51921 -7.01317" />
<path d="M-9.51921 -7.01317 A3.7 2.1362 -120 0 1 -7.11482 -6.44123" />
<path id= "37" d=" M -10.2116 -4.56379 L -7.22658 11.353 " />
<path id= "38" d=" M -2.12643 12.9447 L -2.06788 13.2569 " />
<path d="M-8.77196 -4.73754 A1.6 0.92376 60 0 0 -6.86921 -2.42323" />
<path d="M-6.86921 -2.42323 A1.6 0.92376 60 0 0 -8.46921 -5.19451" />
<path d="M-8.46921 -5.19451 A1.6 0.92376 60 0 0 -8.77196 -4.73754" />
<path d="M-5.78693 11.1793 A1.6 0.92376 60 0 0 -3.88418 13.4936" />
<path d="M-3.88418 13.4936 A1.6 0.92376 60 0 0 -5.48418 10.7223" />
<path d="M-5.48418 10.7223 A1.6 0.92376 60 0 0 -5.78693 11.1793" />
</g>
</g>



<g id="ViewGroup" transform="rotate(90.0,110.0,50.0) translate(110.0,50.0) scale(2.0,-2.0)"><path d="M -7.22443008423 -30.0 L -7.22443008423 -36.969881148 L 5.77556991577 -36.969881148 L 5.77556991577 -30.0" fill="none" stroke="#0000ff" stroke-width="0.175 px" style="stroke-width:0.175;stroke-miterlimit:4;stroke-dasharray:none" freecad:basepoint1="-7.22443008423 -30.0" freecad:basepoint2="5.77556991577 -30.0" freecad:dimpoint="-7.22443008423 -36.969881148"/>
<path transform="rotate(-0.0,-7.22443008423,-36.969881148) translate(-7.22443008423,-36.969881148) scale(0.4,0.4)" freecad:skip="1" fill="#0000ff" stroke="none" style="stroke-miterlimit:4;stroke-dasharray:none" d="M 0 0 L 4 1 L 4 -1 Z"/>
<path transform="rotate(180.0,5.77556991577,-36.969881148) translate(5.77556991577,-36.969881148) scale(0.4,0.4)" freecad:skip="1" fill="#0000ff" stroke="none" style="stroke-miterlimit:4;stroke-dasharray:none" d="M 0 0 L 4 1 L 4 -1 Z"/>
<text fill="#0000ff" font-size="3.0" style="text-anchor:middle;text-align:center;font-family:Courier" transform="rotate(-0.0,-0.72443008423,-36.469881148) translate(-0.72443008423,-36.469881148) scale(1,-1) " freecad:skip="1">
13 </text>
<path d="M 5.77556991577 15.2169217944 L 5.77556991577 33.7400472268 L 1.47556991577 33.7400472268 L 1.47556991577 15.2169217944" fill="none" stroke="#0000ff" stroke-width="0.175 px" style="stroke-width:0.175;stroke-miterlimit:4;stroke-dasharray:none" freecad:basepoint1="5.77556991577 15.2169217944" freecad:basepoint2="1.47556991577 15.2169217944" freecad:dimpoint="5.77556991577 33.7400472268"/>
<path transform="rotate(-180.0,5.77556991577,33.7400472268) translate(5.77556991577,33.7400472268) scale(0.4,0.4)" freecad:skip="1" fill="#0000ff" stroke="none" style="stroke-miterlimit:4;stroke-dasharray:none" d="M 0 0 L 4 1 L 4 -1 Z"/>
<path transform="rotate(0.0,1.47556991577,33.7400472268) translate(1.47556991577,33.7400472268) scale(0.4,0.4)" freecad:skip="1" fill="#0000ff" stroke="none" style="stroke-miterlimit:4;stroke-dasharray:none" d="M 0 0 L 4 1 L 4 -1 Z"/>
<text fill="#0000ff" font-size="3.0" style="text-anchor:middle;text-align:center;font-family:Courier" transform="rotate(-180.0,3.62556991577,33.2400472268) translate(3.62556991577,33.2400472268) scale(1,-1) " freecad:skip="1">
4 </text>
<path d="M 1.47556991577 15.2169217944 L 1.47556991577 29.4587346843 L -2.92443008423 29.4587346843 L -2.92443008423 15.2169217944" fill="none" stroke="#0000ff" stroke-width="0.175 px" style="stroke-width:0.175;stroke-miterlimit:4;stroke-dasharray:none" freecad:basepoint1="1.47556991577 15.2169217944" freecad:basepoint2="-2.92443008423 15.2169217944" freecad:dimpoint="1.47556991577 29.4587346843"/>
<path transform="rotate(-180.0,1.47556991577,29.4587346843) translate(1.47556991577,29.4587346843) scale(0.4,0.4)" freecad:skip="1" fill="#0000ff" stroke="none" style="stroke-miterlimit:4;stroke-dasharray:none" d="M 0 0 L 4 1 L 4 -1 Z"/>
<path transform="rotate(0.0,-2.92443008423,29.4587346843) translate(-2.92443008423,29.4587346843) scale(0.4,0.4)" freecad:skip="1" fill="#0000ff" stroke="none" style="stroke-miterlimit:4;stroke-dasharray:none" d="M 0 0 L 4 1 L 4 -1 Z"/>
<text fill="#0000ff" font-size="3.0" style="text-anchor:middle;text-align:center;font-family:Courier" transform="rotate(-180.0,-0.72443008423,28.9587346843) translate(-0.72443008423,28.9587346843) scale(1,-1) " freecad:skip="1">
4,4 </text>
</g>


<g id="ViewGroup001" transform="rotate(-90.0,125.0,130.0) translate(125.0,130.0) scale(2.0,-2.0)"><path d="M -4.30173668628e-12 30.0 L -4.19884890887 30.0000002079 L -4.19885114728 -15.2169212973 L -2.23840217851e-06 -15.2169215052" fill="none" stroke="#0000ff" stroke-width="0.175 px" style="stroke-width:0.175;stroke-miterlimit:4;stroke-dasharray:none" freecad:basepoint1="-4.30173668628e-12 30.0" freecad:basepoint2="-2.23840217851e-06 -15.2169215052" freecad:dimpoint="-4.19884890887 30.0000002079"/>
<path transform="rotate(-90.0,-4.19884890887,30.0000002079) translate(-4.19884890887,30.0000002079) scale(0.4,0.4)" freecad:skip="1" fill="#0000ff" stroke="none" style="stroke-miterlimit:4;stroke-dasharray:none" d="M 0 0 L 4 1 L 4 -1 Z"/>
<path transform="rotate(90.0,-4.19885114728,-15.2169212973) translate(-4.19885114728,-15.2169212973) scale(0.4,0.4)" freecad:skip="1" fill="#0000ff" stroke="none" style="stroke-miterlimit:4;stroke-dasharray:none" d="M 0 0 L 4 1 L 4 -1 Z"/>
<text fill="#0000ff" font-size="3.0" style="text-anchor:middle;text-align:center;font-family:Courier" transform="rotate(-90.0,-3.69885002807,7.39153943051) translate(-3.69885002807,7.39153943051) scale(1,-1) " freecad:skip="1">
45,22 </text>
<path d="M 6.82291285933 31.5645638734 L 10.0496654311 32.3044913218 L 14.0728296771 14.759858255 L 10.8460771053 14.0199308066" fill="none" stroke="#0000ff" stroke-width="0.175 px" style="stroke-width:0.175;stroke-miterlimit:4;stroke-dasharray:none" freecad:basepoint1="6.82291285933 31.5645638734" freecad:basepoint2="10.8460771053 14.0199308066" freecad:dimpoint="10.0496654311 32.3044913218"/>
<path transform="rotate(-77.0847764419,10.0496654311,32.3044913218) translate(10.0496654311,32.3044913218) scale(0.4,0.4)" freecad:skip="1" fill="#0000ff" stroke="none" style="stroke-miterlimit:4;stroke-dasharray:none" d="M 0 0 L 4 1 L 4 -1 Z"/>
<path transform="rotate(102.915223558,14.0728296771,14.759858255) translate(14.0728296771,14.759858255) scale(0.4,0.4)" freecad:skip="1" fill="#0000ff" stroke="none" style="stroke-miterlimit:4;stroke-dasharray:none" d="M 0 0 L 4 1 L 4 -1 Z"/>
<text fill="#0000ff" font-size="3.0" style="text-anchor:middle;text-align:center;font-family:Courier" transform="rotate(-77.0847764419,12.5485984726,23.6439293507) translate(12.5485984726,23.6439293507) scale(1,-1) " freecad:skip="1">
18 </text>
<path d="M 10.8460771053 14.0199308066 L 10.1642825767 16.993171296 L 4.80342247288 15.7638711097 L 5.48521700152 12.7906306203" fill="none" stroke="#0000ff" stroke-width="0.175 px" style="stroke-width:0.175;stroke-miterlimit:4;stroke-dasharray:none" freecad:basepoint1="10.8460771053 14.0199308066" freecad:basepoint2="5.48521700152 12.7906306203" freecad:dimpoint="10.1642825767 16.993171296"/>
<path transform="rotate(-167.084775286,10.1642825767,16.993171296) translate(10.1642825767,16.993171296) scale(0.4,0.4)" freecad:skip="1" fill="#0000ff" stroke="none" style="stroke-miterlimit:4;stroke-dasharray:none" d="M 0 0 L 4 1 L 4 -1 Z"/>
<path transform="rotate(12.9152247139,4.80342247288,15.7638711097) translate(4.80342247288,15.7638711097) scale(0.4,0.4)" freecad:skip="1" fill="#0000ff" stroke="none" style="stroke-miterlimit:4;stroke-dasharray:none" d="M 0 0 L 4 1 L 4 -1 Z"/>
<text fill="#0000ff" font-size="3.0" style="text-anchor:middle;text-align:center;font-family:Courier" transform="rotate(-167.084775286,7.59560708716,15.8911702843) translate(7.59560708716,15.8911702843) scale(1,-1) " freecad:skip="1">
6 </text>
<path d="M 5.48521700152 12.7906306203 L 2.73651699943 12.1603255276 L 4.34578269781 5.14247230091 L 7.0944826999 5.77277739359" fill="none" stroke="#0000ff" stroke-width="0.175 px" style="stroke-width:0.175;stroke-miterlimit:4;stroke-dasharray:none" freecad:basepoint1="5.48521700152 12.7906306203" freecad:basepoint2="7.0944826999 5.77277739359" freecad:dimpoint="2.73651699943 12.1603255276"/>
<path transform="rotate(-77.0847764419,2.73651699943,12.1603255276) translate(2.73651699943,12.1603255276) scale(0.4,0.4)" freecad:skip="1" fill="#0000ff" stroke="none" style="stroke-miterlimit:4;stroke-dasharray:none" d="M 0 0 L 4 1 L 4 -1 Z"/>
<path transform="rotate(102.915223558,4.34578269781,5.14247230091) translate(4.34578269781,5.14247230091) scale(0.4,0.4)" freecad:skip="1" fill="#0000ff" stroke="none" style="stroke-miterlimit:4;stroke-dasharray:none" d="M 0 0 L 4 1 L 4 -1 Z"/>
<text fill="#0000ff" font-size="3.0" style="text-anchor:middle;text-align:center;font-family:Courier" transform="rotate(-77.0847764419,4.02850076714,8.76315347665) translate(4.02850076714,8.76315347665) scale(1,-1) " freecad:skip="1">
7,2 </text>
<path d="M 7.92146646157 3.76638059651 L 4.2548794103 3.76638059651 L 4.2548794103 0.566380596514 L 7.92146646157 0.566380596514" fill="none" stroke="#0000ff" stroke-width="0.175 px" style="stroke-width:0.175;stroke-miterlimit:4;stroke-dasharray:none" freecad:basepoint1="7.92146646157 3.76638059651" freecad:basepoint2="7.92146646157 0.566380596514" freecad:dimpoint="4.2548794103 3.76638059651"/>
<path transform="rotate(-90.0,4.2548794103,3.76638059651) translate(4.2548794103,3.76638059651) scale(0.4,0.4)" freecad:skip="1" fill="#0000ff" stroke="none" style="stroke-miterlimit:4;stroke-dasharray:none" d="M 0 0 L 4 1 L 4 -1 Z"/>
<path transform="rotate(90.0,4.2548794103,0.566380596514) translate(4.2548794103,0.566380596514) scale(0.4,0.4)" freecad:skip="1" fill="#0000ff" stroke="none" style="stroke-miterlimit:4;stroke-dasharray:none" d="M 0 0 L 4 1 L 4 -1 Z"/>
<text fill="#0000ff" font-size="3.0" style="text-anchor:middle;text-align:center;font-family:Courier" transform="rotate(-90.0,4.7548794103,2.16638059651) translate(4.7548794103,2.16638059651) scale(1,-1) " freecad:skip="1">
3,2 </text>
<path d="M 7.92146646157 2.16638059651 L 13.9725221984 0.696904784598 L 9.75105349838 -16.6863976063 L 3.6999977616 -15.2169217944" fill="none" stroke="#0000ff" stroke-width="0.175 px" style="stroke-width:0.175;stroke-miterlimit:4;stroke-dasharray:none" freecad:basepoint1="7.92146646157 2.16638059651" freecad:basepoint2="3.6999977616 -15.2169217944" freecad:dimpoint="13.9725221984 0.696904784598"/>
<path transform="rotate(-103.649826572,13.9725221984,0.696904784598) translate(13.9725221984,0.696904784598) scale(0.4,0.4)" freecad:skip="1" fill="#0000ff" stroke="none" style="stroke-miterlimit:4;stroke-dasharray:none" d="M 0 0 L 4 1 L 4 -1 Z"/>
<path transform="rotate(76.3501734275,9.75105349838,-16.6863976063) translate(9.75105349838,-16.6863976063) scale(0.4,0.4)" freecad:skip="1" fill="#0000ff" stroke="none" style="stroke-miterlimit:4;stroke-dasharray:none" d="M 0 0 L 4 1 L 4 -1 Z"/>
<text fill="#0000ff" font-size="3.0" style="text-anchor:middle;text-align:center;font-family:Courier" transform="rotate(-103.649826572,12.3476659211,-8.11274004808) translate(12.3476659211,-8.11274004808) scale(1,-1) " freecad:skip="1">
17,89 </text>
<path d="M 3.6999977616 -15.2169217944 L 3.69999709444 -23.7525416487 L -2.90556467955e-06 -23.7525413595 L -2.23840217851e-06 -15.2169215052" fill="none" stroke="#0000ff" stroke-width="0.175 px" style="stroke-width:0.175;stroke-miterlimit:4;stroke-dasharray:none" freecad:basepoint1="3.6999977616 -15.2169217944" freecad:basepoint2="-2.23840217851e-06 -15.2169215052" freecad:dimpoint="3.69999709444 -23.7525416487"/>
<path transform="rotate(179.999995564,3.69999709444,-23.7525416487) translate(3.69999709444,-23.7525416487) scale(0.4,0.4)" freecad:skip="1" fill="#0000ff" stroke="none" style="stroke-miterlimit:4;stroke-dasharray:none" d="M 0 0 L 4 1 L 4 -1 Z"/>
<path transform="rotate(359.999995564,-2.90556467955e-06,-23.7525413595) translate(-2.90556467955e-06,-23.7525413595) scale(0.4,0.4)" freecad:skip="1" fill="#0000ff" stroke="none" style="stroke-miterlimit:4;stroke-dasharray:none" d="M 0 0 L 4 1 L 4 -1 Z"/>
<text fill="#0000ff" font-size="3.0" style="text-anchor:middle;text-align:center;font-family:Courier" transform="rotate(-4.43633799712e-06,1.84999705536,-24.2525415041) translate(1.84999705536,-24.2525415041) scale(1,-1) " freecad:skip="1">
3,7 </text>
<path d="M 6.82291285933 31.5645638734 L 5.74044405491 36.2851064163 L -1.08246880441 34.7205425429 L -4.30173668628e-12 30.0" fill="none" stroke="#0000ff" stroke-width="0.175 px" style="stroke-width:0.175;stroke-miterlimit:4;stroke-dasharray:none" freecad:basepoint1="6.82291285933 31.5645638734" freecad:basepoint2="-4.30173668628e-12 30.0" freecad:dimpoint="5.74044405491 36.2851064163"/>
<path transform="rotate(-167.084775286,5.74044405491,36.2851064163) translate(5.74044405491,36.2851064163) scale(0.4,0.4)" freecad:skip="1" fill="#0000ff" stroke="none" style="stroke-miterlimit:4;stroke-dasharray:none" d="M 0 0 L 4 1 L 4 -1 Z"/>
<path transform="rotate(12.9152247139,-1.08246880441,34.7205425429) translate(-1.08246880441,34.7205425429) scale(0.4,0.4)" freecad:skip="1" fill="#0000ff" stroke="none" style="stroke-miterlimit:4;stroke-dasharray:none" d="M 0 0 L 4 1 L 4 -1 Z"/>
<text fill="#0000ff" font-size="3.0" style="text-anchor:middle;text-align:center;font-family:Courier" transform="rotate(-167.084775286,2.44074218763,35.0154735611) translate(2.44074218763,35.0154735611) scale(1,-1) " freecad:skip="1">
7 </text>
<path id="Dimension010" d="M -2.73077489408e-06 -29.5388802334 A 90.8575053494 90.8575053494 0 0 1 20.307482215 -27.2403524491 " stroke="#0000ff" stroke-width="0.175 px" style="stroke-width:0.175;stroke-miterlimit:4;stroke-dasharray:none;fill:none;fill-rule: evenodd "/>
<path transform="rotate(34.3774650081,-2.73077489408e-06,-29.5388802334) translate(-2.73077489408e-06,-29.5388802334) scale(0.4,0.4)" freecad:skip="1" fill="#0000ff" stroke="none" style="stroke-miterlimit:4;stroke-dasharray:none" d="M 0 0 L 4 1 L 4 -1 Z"/>
<path transform="rotate(158.537756569,20.307482215,-27.2403524491) translate(20.307482215,-27.2403524491) scale(0.4,0.4)" freecad:skip="1" fill="#0000ff" stroke="none" style="stroke-miterlimit:4;stroke-dasharray:none" d="M 0 0 L 4 1 L 4 -1 Z"/>
<text fill="#0000ff" font-size="3.0" style="text-anchor:middle;text-align:center;font-family:Courier" transform="rotate(-6.45761078843,10.3310413172,-27.9687644674) translate(10.3310413172,-27.9687644674) scale(1,-1) " freecad:skip="1">
12,92 </text>
<path id="Dimension011" d="M 22.0601691459 44.7083843452 A 93.4803507919 93.4803507919 0 0 1 1.05659741456e-06 47.3486297037 " stroke="#0000ff" stroke-width="0.175 px" style="stroke-width:0.175;stroke-miterlimit:4;stroke-dasharray:none;fill:none;fill-rule: evenodd "/>
<path transform="rotate(-159.272358474,22.0601691459,44.7083843452) translate(22.0601691459,44.7083843452) scale(0.4,0.4)" freecad:skip="1" fill="#0000ff" stroke="none" style="stroke-miterlimit:4;stroke-dasharray:none" d="M 0 0 L 4 1 L 4 -1 Z"/>
<path transform="rotate(-34.3774706654,1.05659741456e-06,47.3486297037) translate(1.05659741456e-06,47.3486297037) scale(0.4,0.4)" freecad:skip="1" fill="#0000ff" stroke="none" style="stroke-miterlimit:4;stroke-dasharray:none" d="M 0 0 L 4 1 L 4 -1 Z"/>
<text fill="#0000ff" font-size="3.0" style="text-anchor:middle;text-align:center;font-family:Courier" transform="rotate(6.82491456947,10.9899671049,47.6791350691) translate(10.9899671049,47.6791350691) scale(1,-1) " freecad:skip="1">
13,65 </text>
<path id="Line_w0000" d="M 11.5169609423 1.29321426692 L 22.1771576255 45.1901221116 " stroke="#0000ff" stroke-width="0.175 px" style="stroke-width:0.175;stroke-miterlimit:4;stroke-dasharray:none;fill:none;fill-rule: evenodd "/>
<path id="Line001_w0000" d="M 10.8460771053 14.0199308066 L 20.4308732256 -27.7784449673 " stroke="#0000ff" stroke-width="0.175 px" style="stroke-width:0.175;stroke-miterlimit:4;stroke-dasharray:none;fill:none;fill-rule: evenodd "/>
<path id="Line002_w0000" d="M -4.30173668628e-12 30.0 L 8.78906414145e-07 47.7542587453 " stroke="#0000ff" stroke-width="0.175 px" style="stroke-width:0.175;stroke-miterlimit:4;stroke-dasharray:none;fill:none;fill-rule: evenodd "/>
<path id="Line003_w0000" d="M -2.23840217908e-06 -15.2169215052 L -2.98352810081e-06 -30.2688348247 " stroke="#0000ff" stroke-width="0.175 px" style="stroke-width:0.175;stroke-miterlimit:4;stroke-dasharray:none;fill:none;fill-rule: evenodd "/>
</g>


  </g>
</svg>

