<?xml version="1.0" encoding="UTF-8" standalone="no"?>
<!-- Created with Inkscape (http://www.inkscape.org/) -->

<svg
   xmlns:dc="http://purl.org/dc/elements/1.1/"
   xmlns:cc="http://creativecommons.org/ns#"
   xmlns:rdf="http://www.w3.org/1999/02/22-rdf-syntax-ns#"
   xmlns:svg="http://www.w3.org/2000/svg"
   xmlns="http://www.w3.org/2000/svg"
   xmlns:sodipodi="http://sodipodi.sourceforge.net/DTD/sodipodi-0.dtd"
   xmlns:inkscape="http://www.inkscape.org/namespaces/inkscape"
   xmlns:freecad="http://www.freecadweb.org/wiki/index.php?title=Svg_Namespace"
   width="297mm"
   height="210mm"
   viewBox="0 0 297 210"
   id="svg5211"
   version="1.1"
   inkscape:version="0.48.1 "
   sodipodi:docname="iso7200-a4-landscape">
  <defs
     id="defs5213" />
  <sodipodi:namedview
     id="base"
     pagecolor="#ffffff"
     bordercolor="#666666"
     borderopacity="1.0"
     inkscape:pageopacity="0.0"
     inkscape:pageshadow="2"
     inkscape:document-units="mm"
     inkscape:current-layer="layer1"
     showgrid="false"
     fit-margin-top="10"
     fit-margin-left="0"
     fit-margin-right="0"
     fit-margin-bottom="0"
     inkscape:window-width="1280"
     inkscape:window-height="962"
     inkscape:window-x="-8"
     inkscape:window-y="-8"
     inkscape:window-maximized="1" />
<!-- Working space 20 10 287 200 -->
<!-- Title block 107 164 287 200 -->
  <metadata
     id="metadata5216">
    <rdf:RDF>
      <cc:Work
         rdf:about="">
        <dc:format>image/svg+xml</dc:format>
        <dc:type
           rdf:resource="http://purl.org/dc/dcmitype/StillImage" />
        <dc:title></dc:title>
      </cc:Work>
    </rdf:RDF>
  </metadata>
  <g
     inkscape:label="Ebene 1"
     inkscape:groupmode="layer"
     id="layer1">
      <rect id="zeichenrahmen" y="10" x="20"
         height="190"
         width="267"
         style="fill:none;stroke:#000000;stroke-width:0.35;stroke-linecap:miter;stroke-miterlimit:4" />
       <!-- width-30, height-20 -->
    <g id="schriftfeld"
       transform="translate(87,-87)">
       <!-- A4 Portrait based for other formats width-210, height-297 -->
       <!--        page       rect   translation
                   w    h    rw   rh   tx   ty
            A4-P  210  297  180  277    0    0
            A4-L  297  210  267  190   87  -87
            A3-L  420  297  390  277  210    0
            A2-L  594  420  564  400  384  123
            A1-L  841  594  811  574  631  297
            A0-L 1189  841 1159  821  979  544

 -->
    <g id="schriftfeldrahmen"
       style="fill:none;stroke:#000000;stroke-width:0.35;stroke-linecap:miter;stroke-miterlimit:4">
      <rect id="schriftfeld-aussen"
         width="180" height="36" x="20" y="251" />
      <path id="schriftfeld-h1" d="M 20,260 H 200" />
      <path d="M 89,269 H 200" id="schriftfeld-h2" />
      <path id="schriftfeld-h3" d="m 149,278 h 51" />
      <path id="schriftfeld-v1" d="m 89,251 v 36" />
      <path d="m 45,251 v 9" id="schriftfeld-v2" />
      <path id="schriftfeld-v3" d="m 132,251 v 9" />
      <path d="m 175,251 v 9" id="schriftfeld-v4" />
      <path id="schriftfeld-v5" d="m 89,251 v 36" />
      <path d="m 149,260 v 27" id="schriftfeld-v6" />
      <path id="schriftfeld-v7" d="m 156,278 v 9" />
      <path d="m 181,278 v 9" id="schriftfeld-v8" />
      <path id="schriftfeld-v9" d="m 191,278 v 9" />
    </g>
    <g id="schriftfeldtext2"
        style="font-size:2px;font-style:normal;font-weight:normal;text-align:start;line-height:125%;letter-spacing:0px;word-spacing:0px;writing-mode:lr-tb;text-anchor:start;fill:#000000;fill-opacity:1;stroke:none;font-family:osifont"
       xml:space="preserve">
    <text y="253" x="21"><tspan id="tspan5781" y="253" x="21">Responsible department</tspan></text>
    <text x="46" y="253"><tspan id="tspan5783" x="46" y="253">Technical reference</tspan></text>
    <text y="253" x="90"><tspan y="253" x="90" id="tspan5785">Created by</tspan></text>
    <text x="133" y="253"><tspan id="tspan5787" x="133" y="253">Approved by</tspan></text>
    <text y="253" x="176"><tspan y="253" x="176" id="tspan5789">Classification/key words</tspan></text>
    <text x="21" y="262"><tspan x="21" y="262" id="tspan5791">Legal owner</tspan></text>
    <text y="262" x="90"><tspan id="tspan5793" y="262" x="90">Document type</tspan></text>
    <text x="150" y="262"><tspan x="150" y="262" id="tspan5795">Document status</tspan></text>
    <text x="90" y="271"><tspan x="90" y="271" id="tspan5797">Title, Supplementary title</tspan></text>
    <text y="271" x="150"><tspan id="tspan5799" y="271" x="150">Identification number</tspan></text>
    <text x="150" y="280"><tspan x="150" y="280" id="tspan5801">Rev.</tspan></text>
    <text y="280" x="157"><tspan id="tspan5803" y="280" x="157">Date of issue</tspan></text>
    <text x="182" y="280"><tspan x="182" y="280" id="tspan5805">Language</tspan></text>
    <text y="280" x="192"><tspan id="tspan5807" y="280" x="192">Seg./Sh.</tspan></text>
    </g>
    <g id="schriftfeldtext4"
       style="font-size:4px;font-style:normal;font-weight:normal;text-align:start;line-height:125%;letter-spacing:0px;word-spacing:0px;writing-mode:lr-tb;text-anchor:start;fill:#000000;fill-opacity:1;stroke:none;font-family:osifont"
       xml:space="preserve">
    <text freecad:editable="Creator" x="90" y="258"><tspan id="tspan5815" x="90" y="258">DFDMaker</tspan> </text>
    <text freecad:editable="ApprovalPerson" y="258" x="133"><tspan y="258" x="133" id="tspan5817">DFDMaker</tspan> </text>
    <text freecad:editable="LegalOwner" y="267" x="21"><tspan id="tspan5821" y="267" x="21">DFDMaker</tspan> </text>
    <text freecad:editable="DocumentType" x="90" y="267"><tspan x="90" y="267" id="tspan5823">Plano</tspan></text>
    <text freecad:editable="Title" y="276" x="90"><tspan id="tspan5827" y="276" x="90">T30-Ej1</tspan></text>
    <text freecad:editable="IdNumber" x="150" y="276"><tspan x="150" y="276" id="tspan5829">0001</tspan></text>
    <text freecad:editable="Date" x="157" y="285"><tspan x="157" y="285" id="tspan5833">2010-04-21</tspan></text>
    <text freecad:editable="OptResponsibleDept" y="258" x="21"><tspan y="258" x="21">aa</tspan></text>
    <text freecad:editable="OptTechnicalRef" x="46" y="258"><tspan x="46" y="258">bb</tspan></text>
    <text freecad:editable="Classification" y="258" x="176"><tspan y="258" x="176">cc</tspan></text>
    <text freecad:editable="OptDocumentStatus" x="150" y="267"><tspan x="150" y="267">dd</tspan></text>
    <text freecad:editable="OptRevison" x="150" y="285"><tspan x="150" y="285">ee</tspan></text>
    <text freecad:editable="OptLanguage" x="182" y="285"><tspan x="182" y="285">ff</tspan></text>
    <text freecad:editable="SegmentsOrSheets" y="285" x="192"><tspan y="285" x="192">gg</tspan></text>
    <text freecad:editable="OptSupTitle" y="281" x="90"><tspan id="tspan5827" y="281" x="90"></tspan></text>
    <text freecad:editable="OptSupTitle2" y="285" x="90"><tspan id="tspan5827" y="285" x="90"></tspan></text>
    </g>
      </g>
<g id="Ortho_0_0"
   transform="rotate(0,-110,320) translate(-110,320) scale(1,1)"
  >
<g   stroke="rgb(0, 0, 0)"
   stroke-width="0.35"
   stroke-linecap="butt"
   stroke-linejoin="miter"
   fill="none"
   transform="scale(1,-1)"
  >
<path d="M175.497 229.639 A3.7 3.7 0 0 0 175.915 232.344" /><path id= "2" d=" M 175.497 229.639 L 185.603 185.566 " />
<path d="M190.413 216.121 A3.7 3.7 0 0 0 187.103 210.766" /><path id= "4" d=" M 187.103 208.814 L 187.103 210.766 " />
<path id= "5" d=" M 185.603 185.566 L 192.603 185.566 " />
<path id= "6" d=" M 187.103 203.566 L 187.103 210.766 " />
<path id= "7" d=" M 192.603 185.566 L 192.603 203.566 " />
<path id= "8" d=" M 192.603 203.566 L 187.103 203.566 " />
<path d="M182.413 232.121 A3.7 3.7 0 0 1 175.497 229.639" /><path id= "10" d=" M 182.413 232.121 L 190.413 216.121 " />
<path d="M187.103 210.766 A3.7 3.7 0 0 1 190.413 216.121" /><circle cx ="199.401" cy ="264.934" r ="2.75" /><circle cx ="199.401" cy ="264.934" r ="2.65" /><circle cx ="199.401" cy ="264.934" r ="1.45" /><path d="M200.845,264.934 L200.789,265.03  L200.735,265.123  L200.683,265.213  L200.632,265.302  L200.582,265.388  L200.533,265.474  L200.484,265.559  L200.435,265.644  L200.385,265.729  L200.335,265.816  L200.284,265.904  L200.232,265.994  L200.178,266.087  L200.123,266.184 " /><path d="M200.123,266.184 L200.012,266.184  L199.904,266.184  L199.8,266.184  L199.698,266.184  L199.598,266.184  L199.499,266.184  L199.401,266.184  L199.303,266.184  L199.204,266.184  L199.104,266.184  L199.002,266.184  L198.898,266.184  L198.791,266.184  L198.679,266.184 " /><path d="M198.679,266.184 L198.624,266.087  L198.57,265.994  L198.518,265.904  L198.467,265.816  L198.417,265.729  L198.368,265.644  L198.319,265.559  L198.27,265.474  L198.22,265.388  L198.17,265.302  L198.119,265.213  L198.067,265.123  L198.013,265.03  L197.958,264.934 " /><path d="M197.958,264.934 L198.013,264.837  L198.067,264.744  L198.119,264.654  L198.17,264.566  L198.22,264.479  L198.27,264.394  L198.319,264.309  L198.368,264.224  L198.417,264.138  L198.467,264.052  L198.518,263.963  L198.57,263.873  L198.624,263.78  L198.679,263.684 " /><path d="M198.679,263.684 L198.791,263.684  L198.898,263.684  L199.002,263.684  L199.104,263.684  L199.204,263.684  L199.303,263.684  L199.401,263.684  L199.499,263.684  L199.598,263.684  L199.698,263.684  L199.8,263.684  L199.904,263.684  L200.012,263.684  L200.123,263.684 " /><path d="M200.123,263.684 L200.178,263.78  L200.232,263.873  L200.284,263.963  L200.335,264.052  L200.385,264.138  L200.435,264.224  L200.484,264.309  L200.533,264.394  L200.582,264.479  L200.632,264.566  L200.683,264.654  L200.735,264.744  L200.789,264.837  L200.845,264.934 " /><path d="M200.845,264.934 L200.789,265.03  L200.735,265.123  L200.683,265.213  L200.632,265.302  L200.582,265.388  L200.533,265.474  L200.484,265.559  L200.435,265.644  L200.385,265.729  L200.335,265.816  L200.284,265.904  L200.232,265.994  L200.178,266.087  L200.123,266.184 " /><path d="M200.123,266.184 L200.012,266.184  L199.904,266.184  L199.8,266.184  L199.698,266.184  L199.598,266.184  L199.499,266.184  L199.401,266.184  L199.303,266.184  L199.204,266.184  L199.104,266.184  L199.002,266.184  L198.898,266.184  L198.791,266.184  L198.679,266.184 " /><path d="M198.679,266.184 L198.624,266.087  L198.57,265.994  L198.518,265.904  L198.467,265.816  L198.417,265.729  L198.368,265.644  L198.319,265.559  L198.27,265.474  L198.22,265.388  L198.17,265.302  L198.119,265.213  L198.067,265.123  L198.013,265.03  L197.958,264.934 " /><path d="M197.958,264.934 L198.013,264.837  L198.067,264.744  L198.119,264.654  L198.17,264.566  L198.22,264.479  L198.27,264.394  L198.319,264.309  L198.368,264.224  L198.417,264.138  L198.467,264.052  L198.518,263.963  L198.57,263.873  L198.624,263.78  L198.679,263.684 " /><path d="M198.679,263.684 L198.791,263.684  L198.898,263.684  L199.002,263.684  L199.104,263.684  L199.204,263.684  L199.303,263.684  L199.401,263.684  L199.499,263.684  L199.598,263.684  L199.698,263.684  L199.8,263.684  L199.904,263.684  L200.012,263.684  L200.123,263.684 " /><path d="M200.123,263.684 L200.178,263.78  L200.232,263.873  L200.284,263.963  L200.335,264.052  L200.385,264.138  L200.435,264.224  L200.484,264.309  L200.533,264.394  L200.582,264.479  L200.632,264.566  L200.683,264.654  L200.735,264.744  L200.789,264.837  L200.845,264.934 " /><circle cx ="187.103" cy ="214.466" r ="2.75" /><circle cx ="187.103" cy ="214.466" r ="2.65" /><circle cx ="187.103" cy ="214.466" r ="1.45" /><path d="M188.547,214.466 L188.491,214.563  L188.438,214.656  L188.385,214.746  L188.335,214.834  L188.285,214.921  L188.235,215.006  L188.186,215.091  L188.137,215.176  L188.088,215.262  L188.038,215.349  L187.987,215.437  L187.934,215.527  L187.881,215.62  L187.825,215.716 " /><path d="M187.825,215.716 L187.714,215.716  L187.607,215.716  L187.502,215.716  L187.4,215.716  L187.3,215.716  L187.202,215.716  L187.103,215.716  L187.005,215.716  L186.906,215.716  L186.806,215.716  L186.705,215.716  L186.6,215.716  L186.493,215.716  L186.382,215.716 " /><path d="M186.382,215.716 L186.326,215.62  L186.273,215.527  L186.22,215.437  L186.169,215.349  L186.119,215.262  L186.07,215.176  L186.021,215.091  L185.972,215.006  L185.922,214.921  L185.872,214.834  L185.822,214.746  L185.769,214.656  L185.716,214.563  L185.66,214.466 " /><path d="M185.66,214.466 L185.716,214.37  L185.769,214.277  L185.822,214.187  L185.872,214.099  L185.922,214.012  L185.972,213.926  L186.021,213.841  L186.07,213.756  L186.119,213.671  L186.169,213.584  L186.22,213.496  L186.273,213.406  L186.326,213.313  L186.382,213.216 " /><path d="M186.382,213.216 L186.493,213.216  L186.6,213.216  L186.705,213.216  L186.806,213.216  L186.906,213.216  L187.005,213.216  L187.103,213.216  L187.202,213.216  L187.3,213.216  L187.4,213.216  L187.502,213.216  L187.607,213.216  L187.714,213.216  L187.825,213.216 " /><path d="M187.825,213.216 L187.881,213.313  L187.934,213.406  L187.987,213.496  L188.038,213.584  L188.088,213.671  L188.137,213.756  L188.186,213.841  L188.235,213.926  L188.285,214.012  L188.335,214.099  L188.385,214.187  L188.438,214.277  L188.491,214.37  L188.547,214.466 " /><path d="M188.547,214.466 L188.491,214.563  L188.438,214.656  L188.385,214.746  L188.335,214.834  L188.285,214.921  L188.235,215.006  L188.186,215.091  L188.137,215.176  L188.088,215.262  L188.038,215.349  L187.987,215.437  L187.934,215.527  L187.881,215.62  L187.825,215.716 " /><path d="M187.825,215.716 L187.714,215.716  L187.607,215.716  L187.502,215.716  L187.4,215.716  L187.3,215.716  L187.202,215.716  L187.103,215.716  L187.005,215.716  L186.906,215.716  L186.806,215.716  L186.705,215.716  L186.6,215.716  L186.493,215.716  L186.382,215.716 " /><path d="M186.382,215.716 L186.326,215.62  L186.273,215.527  L186.22,215.437  L186.169,215.349  L186.119,215.262  L186.07,215.176  L186.021,215.091  L185.972,215.006  L185.922,214.921  L185.872,214.834  L185.822,214.746  L185.769,214.656  L185.716,214.563  L185.66,214.466 " /><path d="M185.66,214.466 L185.716,214.37  L185.769,214.277  L185.822,214.187  L185.872,214.099  L185.922,214.012  L185.972,213.926  L186.021,213.841  L186.07,213.756  L186.119,213.671  L186.169,213.584  L186.22,213.496  L186.273,213.406  L186.326,213.313  L186.382,213.216 " /><path d="M186.382,213.216 L186.493,213.216  L186.6,213.216  L186.705,213.216  L186.806,213.216  L186.906,213.216  L187.005,213.216  L187.103,213.216  L187.202,213.216  L187.3,213.216  L187.4,213.216  L187.502,213.216  L187.607,213.216  L187.714,213.216  L187.825,213.216 " /><path d="M187.825,213.216 L187.881,213.313  L187.934,213.406  L187.987,213.496  L188.038,213.584  L188.088,213.671  L188.137,213.756  L188.186,213.841  L188.235,213.926  L188.285,214.012  L188.335,214.099  L188.385,214.187  L188.438,214.277  L188.491,214.37  L188.547,214.466 " /><circle cx ="179.103" cy ="230.466" r ="2.75" /><circle cx ="179.103" cy ="230.466" r ="2.65" /><circle cx ="179.103" cy ="230.466" r ="1.45" /><path d="M180.547,230.466 L180.491,230.563  L180.438,230.656  L180.385,230.746  L180.335,230.834  L180.285,230.921  L180.235,231.006  L180.186,231.091  L180.137,231.176  L180.088,231.262  L180.038,231.349  L179.987,231.437  L179.934,231.527  L179.881,231.62  L179.825,231.716 " /><path d="M179.825,231.716 L179.714,231.716  L179.607,231.716  L179.502,231.716  L179.4,231.716  L179.3,231.716  L179.202,231.716  L179.103,231.716  L179.005,231.716  L178.906,231.716  L178.806,231.716  L178.705,231.716  L178.6,231.716  L178.493,231.716  L178.382,231.716 " /><path d="M178.382,231.716 L178.326,231.62  L178.273,231.527  L178.22,231.437  L178.169,231.349  L178.119,231.262  L178.07,231.176  L178.021,231.091  L177.972,231.006  L177.922,230.921  L177.872,230.834  L177.822,230.746  L177.769,230.656  L177.716,230.563  L177.66,230.466 " /><path d="M177.66,230.466 L177.716,230.37  L177.769,230.277  L177.822,230.187  L177.872,230.099  L177.922,230.012  L177.972,229.926  L178.021,229.841  L178.07,229.756  L178.119,229.671  L178.169,229.584  L178.22,229.496  L178.273,229.406  L178.326,229.313  L178.382,229.216 " /><path d="M178.382,229.216 L178.493,229.216  L178.6,229.216  L178.705,229.216  L178.806,229.216  L178.906,229.216  L179.005,229.216  L179.103,229.216  L179.202,229.216  L179.3,229.216  L179.4,229.216  L179.502,229.216  L179.607,229.216  L179.714,229.216  L179.825,229.216 " /><path d="M179.825,229.216 L179.881,229.313  L179.934,229.406  L179.987,229.496  L180.038,229.584  L180.088,229.671  L180.137,229.756  L180.186,229.841  L180.235,229.926  L180.285,230.012  L180.335,230.099  L180.385,230.187  L180.438,230.277  L180.491,230.37  L180.547,230.466 " /><path d="M180.547,230.466 L180.491,230.563  L180.438,230.656  L180.385,230.746  L180.335,230.834  L180.285,230.921  L180.235,231.006  L180.186,231.091  L180.137,231.176  L180.088,231.262  L180.038,231.349  L179.987,231.437  L179.934,231.527  L179.881,231.62  L179.825,231.716 " /><path d="M179.825,231.716 L179.714,231.716  L179.607,231.716  L179.502,231.716  L179.4,231.716  L179.3,231.716  L179.202,231.716  L179.103,231.716  L179.005,231.716  L178.906,231.716  L178.806,231.716  L178.705,231.716  L178.6,231.716  L178.493,231.716  L178.382,231.716 " /><path d="M178.382,231.716 L178.326,231.62  L178.273,231.527  L178.22,231.437  L178.169,231.349  L178.119,231.262  L178.07,231.176  L178.021,231.091  L177.972,231.006  L177.922,230.921  L177.872,230.834  L177.822,230.746  L177.769,230.656  L177.716,230.563  L177.66,230.466 " /><path d="M177.66,230.466 L177.716,230.37  L177.769,230.277  L177.822,230.187  L177.872,230.099  L177.922,230.012  L177.972,229.926  L178.021,229.841  L178.07,229.756  L178.119,229.671  L178.169,229.584  L178.22,229.496  L178.273,229.406  L178.326,229.313  L178.382,229.216 " /><path d="M178.382,229.216 L178.493,229.216  L178.6,229.216  L178.705,229.216  L178.806,229.216  L178.906,229.216  L179.005,229.216  L179.103,229.216  L179.202,229.216  L179.3,229.216  L179.4,229.216  L179.502,229.216  L179.607,229.216  L179.714,229.216  L179.825,229.216 " /><path d="M179.825,229.216 L179.881,229.313  L179.934,229.406  L179.987,229.496  L180.038,229.584  L180.088,229.671  L180.137,229.756  L180.186,229.841  L180.235,229.926  L180.285,230.012  L180.335,230.099  L180.385,230.187  L180.438,230.277  L180.491,230.37  L180.547,230.466 " /><path d="M245.412 230.154 A1.45 1.45 0 1 0 242.907 231.149" /><path d="M215.148 249.928 A1.45 1.45 0 0 0 217.654 248.934" /><path d="M223.148 265.928 A1.45 1.45 0 0 0 225.653 264.934" /><path d="M237.412 214.154 A1.45 1.45 0 1 0 234.907 215.149" /><path id= "61" d=" M 226.33 244.434 L 223.015 244.434 " />
<path id= "62" d=" M 214.505 244.434 L 209.045 244.434 " />
<path id= "63" d=" M 200.457 244.434 L 197.275 244.434 " />
<path id= "64" d=" M 226.33 244.434 L 229.687 247.791 " />
<path id= "65" d=" M 235.114 253.218 L 235.516 253.62 " />
<path id= "66" d=" M 197.275 244.434 L 193.718 247.991 " />
<path id= "67" d=" M 188.313 253.396 L 188.089 253.62 " />
<path d="M235.516 253.62 A16 16 0 0 1 224.202 280.934" /><path d="M199.402 280.934 A16 16 0 0 1 188.089 253.62" /><path id= "70" d=" M 199.402 280.934 L 224.202 280.934 " />
<path d="M219.421 250.761 A3.7 3.7 0 0 1 212.986 247.106" /><path id= "72" d=" M 219.421 250.761 L 235.754 222.011 " />
<path id= "73" d=" M 212.986 247.106 L 232.745 212.327 " />
<path d="M232.745 212.327 A3.7 3.7 0 0 1 235.962 210.454" /><path d="M235.962 210.454 A3.7 3.7 0 0 1 239.179 215.982" /><path d="M240.652 231.809 A3.7 3.7 0 0 0 247.568 229.327" /><path id= "77" d=" M 240.652 231.809 L 232.652 215.809 " />
<path id= "78" d=" M 247.568 229.327 L 237.462 185.254 " />
<path d="M235.962 210.454 A3.7 3.7 0 0 0 232.652 215.809" /><path id= "80" d=" M 237.462 185.254 L 230.462 185.254 " />
<path id= "81" d=" M 235.962 203.254 L 235.962 210.454 " />
<path id= "82" d=" M 230.462 185.254 L 230.462 203.254 " />
<path id= "83" d=" M 230.462 203.254 L 235.962 203.254 " />
<path id= "84" d=" M 235.962 210.454 L 235.962 208.502 " />
<path id= "85" d=" M 225.82 254.597 L 239.77 230.043 " />
<path id= "86" d=" M 232.255 258.252 L 247.179 231.982 " />
<path d="M225.15,252.649 C225.195,252.885 225.196,253.026 225.195,253.073 " /><path d="M224.727,251.443 C224.978,251.956 225.095,252.366 225.15,252.649 " /><path d="M233.884,258.009 C233.924,257.984 234.046,257.913 234.271,257.831 " /><path d="M223.086,252.663 C223.137,252.38 223.248,251.968 223.492,251.452 " /><path d="M220.081,252.078 C220.493,252.474 220.743,252.819 220.891,253.066 " /><path d="M235.669,261.738 C235.714,261.728 235.853,261.702 236.093,261.702 " /><path d="M218.957,253.785 C218.907,253.502 218.872,253.077 218.924,252.508 " /><path d="M217.032,254.915 C217.218,255.066 217.31,255.174 217.339,255.211 " /><path d="M215.933,254.263 C216.455,254.495 216.808,254.733 217.032,254.915 " /><path d="M236.07,265.852 C236.117,265.858 236.256,265.882 236.482,265.964 " /><path d="M215.46,256.252 C215.317,256.003 215.138,255.616 214.992,255.063 " /><path d="M236.482,265.964 C236.752,266.063 237.138,266.245 237.604,266.574 " /><path d="M214.038,257.972 C214.265,258.051 214.387,258.12 214.427,258.145 " /><path d="M212.782,257.735 C213.352,257.774 213.766,257.878 214.038,257.972 " /><path d="M235.04,269.855 C235.082,269.877 235.205,269.947 235.389,270.101 " /><path d="M235.389,270.101 C235.609,270.287 235.909,270.589 236.235,271.059 " /><path d="M212.27,261.868 C212.51,261.865 212.649,261.889 212.695,261.898 " /><path d="M232.704,273.265 C232.735,273.3 232.827,273.407 232.947,273.615 " /><path d="M232.947,273.615 C233.09,273.865 233.269,274.252 233.415,274.804 " /><path d="M228.326,277.79 C227.914,277.393 227.664,277.048 227.516,276.801 " /><path d="M213.091,270.256 C213.273,270.1 213.395,270.028 213.436,270.006 " /><path d="M212.258,271.226 C212.578,270.752 212.874,270.445 213.091,270.256 " /><path d="M225.321,277.204 C225.27,277.488 225.159,277.899 224.915,278.416 " /><path d="M223.68,278.424 C223.429,277.911 223.312,277.501 223.257,277.218 " /><path d="M223.257,277.218 C223.212,276.983 223.211,276.841 223.212,276.795 " /><path d="M215.131,274.932 C215.269,274.377 215.442,273.988 215.582,273.736 " /><path d="M221.057,276.846 C220.912,277.095 220.667,277.444 220.261,277.846 " /><path d="M219.097,277.432 C219.037,276.863 219.067,276.438 219.112,276.154 " /><path d="M219.112,276.154 C219.151,275.917 219.198,275.784 219.216,275.74 " /><path d="M225.555 254.559 A10.4625 10.4625 0 0 1 225.82 254.597" /><path d="M225.116 254.015 A0.50625 0.50625 0 0 0 225.555 254.559" /><path id= "118" d=" M 225.195 253.073 L 225.116 254.015 " />
<path d="M232.255 258.252 A10.4625 10.4625 0 0 1 232.423 258.461" /><path d="M225.15,252.649 C225.195,252.885 225.196,253.026 225.195,253.073 " /><path d="M232.423 258.461 A0.50625 0.50625 0 0 0 233.115 258.559" /><path d="M224.727,251.443 C224.978,251.956 225.095,252.366 225.15,252.649 " /><path id= "123" d=" M 233.115 258.559 L 233.884 258.009 " />
<path d="M223.492 251.452 A13.5 13.5 0 0 1 224.727 251.443" /><path d="M233.884,258.009 C233.924,257.984 234.046,257.913 234.271,257.831 " /><path d="M223.086,252.663 C223.137,252.38 223.248,251.968 223.492,251.452 " /><path d="M234.271,257.831 C234.542,257.733 234.954,257.624 235.524,257.577 " /><path d="M223.047,253.088 C223.045,253.041 223.044,252.9 223.086,252.663 " /><path d="M235.524 257.577 A13.5 13.5 0 0 1 236.149 258.642" /><path id= "130" d=" M 223.139 254.029 L 223.047 253.088 " />
<path d="M236.149,258.642 C235.829,259.116 235.533,259.422 235.316,259.611 " /><path d="M222.708 254.579 A0.50625 0.50625 0 0 0 223.139 254.029" /><path d="M235.316,259.611 C235.134,259.768 235.012,259.839 234.971,259.862 " /><path d="M221.925 254.722 A10.4625 10.4625 0 0 1 222.708 254.579" /><path id= "135" d=" M 234.971 259.862 L 234.116 260.265 " />
<path d="M221.327 254.361 A0.50625 0.50625 0 0 0 221.925 254.722" /><path d="M234.116 260.265 A0.50625 0.50625 0 0 0 233.864 260.917" /><path id= "138" d=" M 221.078 253.449 L 221.327 254.361 " />
<path d="M233.864 260.917 A10.4625 10.4625 0 0 1 234.141 261.662" /><path d="M220.891,253.066 C221.014,253.272 221.063,253.405 221.078,253.449 " /><path d="M234.141 261.662 A0.50625 0.50625 0 0 0 234.758 261.991" /><path d="M220.081,252.078 C220.493,252.474 220.743,252.819 220.891,253.066 " /><path id= "143" d=" M 234.758 261.991 L 235.669 261.738 " />
<path d="M218.924 252.508 A13.5 13.5 0 0 1 220.081 252.078" /><path d="M235.669,261.738 C235.714,261.728 235.853,261.702 236.093,261.702 " /><path d="M218.957,253.785 C218.907,253.502 218.872,253.077 218.924,252.508 " /><path d="M236.093,261.702 C236.381,261.703 236.806,261.742 237.357,261.892 " /><path d="M219.066,254.198 C219.048,254.154 218.998,254.022 218.957,253.785 " /><path d="M237.357 261.892 A13.5 13.5 0 0 1 237.58 263.107" /><path id= "150" d=" M 219.473 255.05 L 219.066 254.198 " />
<path d="M237.58,263.107 C237.118,263.443 236.735,263.63 236.466,263.733 " /><path d="M219.256 255.715 A0.50625 0.50625 0 0 0 219.473 255.05" /><path d="M236.466,263.733 C236.242,263.818 236.103,263.843 236.056,263.85 " /><path d="M218.57 256.117 A10.4625 10.4625 0 0 1 219.256 255.715" /><path id= "155" d=" M 236.056 263.85 L 235.115 263.937 " />
<path d="M217.884 255.982 A0.50625 0.50625 0 0 0 218.57 256.117" /><path d="M235.115 263.937 A0.50625 0.50625 0 0 0 234.655 264.463" /><path id= "158" d=" M 217.339 255.211 L 217.884 255.982 " />
<path d="M234.655 264.463 A10.4625 10.4625 0 0 1 234.661 265.259" /><path d="M217.032,254.915 C217.218,255.066 217.31,255.174 217.339,255.211 " /><path d="M234.661 265.259 A0.50625 0.50625 0 0 0 235.128 265.779" /><path d="M215.933,254.263 C216.455,254.495 216.808,254.733 217.032,254.915 " /><path id= "163" d=" M 235.128 265.779 L 236.07 265.852 " />
<path d="M214.992 255.063 A13.5 13.5 0 0 1 215.933 254.263" /><path d="M236.07,265.852 C236.117,265.858 236.256,265.882 236.482,265.964 " /><path d="M215.46,256.252 C215.317,256.003 215.138,255.616 214.992,255.063 " /><path d="M236.482,265.964 C236.752,266.063 237.138,266.245 237.604,266.574 " /><path d="M215.703,256.602 C215.672,256.568 215.58,256.46 215.46,256.252 " /><path d="M237.604 266.574 A13.5 13.5 0 0 1 237.398 267.792" /><path id= "170" d=" M 216.378 257.264 L 215.703 256.602 " />
<path d="M237.398,267.792 C236.849,267.95 236.425,267.994 236.137,267.999 " /><path d="M216.401 257.963 A0.50625 0.50625 0 0 0 216.378 257.264" /><path d="M236.137,267.999 C235.897,268.002 235.758,267.979 235.712,267.969 " /><path d="M215.894 258.576 A10.4625 10.4625 0 0 1 216.401 257.963" /><path id= "175" d=" M 235.712 267.969 L 234.798 267.729 " />
<path d="M215.204 258.684 A0.50625 0.50625 0 0 0 215.894 258.576" /><path d="M234.798 267.729 A0.50625 0.50625 0 0 0 234.186 268.066" /><path id= "178" d=" M 214.427 258.145 L 215.204 258.684 " />
<path d="M234.186 268.066 A10.4625 10.4625 0 0 1 233.919 268.816" /><path d="M214.038,257.972 C214.265,258.051 214.387,258.12 214.427,258.145 " /><path d="M233.919 268.816 A0.50625 0.50625 0 0 0 234.18 269.464" /><path d="M212.782,257.735 C213.352,257.774 213.766,257.878 214.038,257.972 " /><path id= "183" d=" M 234.18 269.464 L 235.04 269.855 " />
<path d="M212.172 258.809 A13.5 13.5 0 0 1 212.782 257.735" /><path d="M235.04,269.855 C235.082,269.877 235.205,269.947 235.389,270.101 " /><path d="M213.018,259.766 C212.798,259.581 212.498,259.278 212.172,258.809 " /><path d="M235.389,270.101 C235.609,270.287 235.909,270.589 236.235,271.059 " /><path d="M213.367,260.012 C213.325,259.99 213.202,259.921 213.018,259.766 " /><path d="M236.235 271.059 A13.5 13.5 0 0 1 235.625 272.132" /><path id= "190" d=" M 214.227 260.403 L 213.367 260.012 " />
<path d="M235.625,272.132 C235.055,272.093 234.641,271.99 234.369,271.896 " /><path d="M214.488 261.052 A0.50625 0.50625 0 0 0 214.227 260.403" /><path d="M234.369,271.896 C234.142,271.817 234.02,271.747 233.98,271.722 " /><path d="M214.221 261.801 A10.4625 10.4625 0 0 1 214.488 261.052" /><path id= "195" d=" M 233.98 271.722 L 233.203 271.184 " />
<path d="M213.609 262.139 A0.50625 0.50625 0 0 0 214.221 261.801" /><path d="M233.203 271.184 A0.50625 0.50625 0 0 0 232.513 271.292" /><path id= "198" d=" M 212.695 261.898 L 213.609 262.139 " />
<path d="M232.513 271.292 A10.4625 10.4625 0 0 1 232.005 271.905" /><path d="M212.27,261.868 C212.51,261.865 212.649,261.889 212.695,261.898 " /><path d="M232.005 271.905 A0.50625 0.50625 0 0 0 232.029 272.603" /><path d="M211.009,262.075 C211.558,261.918 211.982,261.873 212.27,261.868 " /><path id= "203" d=" M 232.029 272.603 L 232.704 273.265 " />
<path d="M210.803 263.293 A13.5 13.5 0 0 1 211.009 262.075" /><path d="M232.704,273.265 C232.735,273.3 232.827,273.407 232.947,273.615 " /><path d="M211.925,263.903 C211.655,263.804 211.269,263.623 210.803,263.293 " /><path d="M232.947,273.615 C233.09,273.865 233.269,274.252 233.415,274.804 " /><path d="M212.337,264.015 C212.29,264.009 212.151,263.986 211.925,263.903 " /><path d="M233.415 274.804 A13.5 13.5 0 0 1 232.474 275.605" /><path id= "210" d=" M 213.279 264.089 L 212.337 264.015 " />
<path d="M232.474,275.605 C231.952,275.373 231.599,275.134 231.375,274.953 " /><path d="M213.746 264.609 A0.50625 0.50625 0 0 0 213.279 264.089" /><path d="M231.375,274.953 C231.189,274.801 231.097,274.693 231.068,274.657 " /><path d="M213.752 265.404 A10.4625 10.4625 0 0 1 213.746 264.609" /><path id= "215" d=" M 231.068 274.657 L 230.523 273.885 " />
<path d="M213.292 265.931 A0.50625 0.50625 0 0 0 213.752 265.404" /><path d="M230.523 273.885 A0.50625 0.50625 0 0 0 229.837 273.75" /><path id= "218" d=" M 212.351 266.017 L 213.292 265.931 " />
<path d="M229.837 273.75 A10.4625 10.4625 0 0 1 229.151 274.153" /><path d="M211.941,266.135 C212.165,266.05 212.304,266.024 212.351,266.017 " /><path d="M229.151 274.153 A0.50625 0.50625 0 0 0 228.934 274.817" /><path d="M210.827,266.761 C211.289,266.425 211.672,266.238 211.941,266.135 " /><path id= "223" d=" M 228.934 274.817 L 229.341 275.67 " />
<path d="M211.05 267.975 A13.5 13.5 0 0 1 210.827 266.761" /><path d="M229.341,275.67 C229.359,275.713 229.409,275.845 229.45,276.082 " /><path d="M212.314,268.165 C212.026,268.164 211.601,268.126 211.05,267.975 " /><path d="M229.45,276.082 C229.5,276.366 229.535,276.79 229.483,277.359 " /><path d="M212.738,268.129 C212.693,268.139 212.554,268.165 212.314,268.165 " /><path d="M229.483 277.359 A13.5 13.5 0 0 1 228.326 277.79" /><path id= "230" d=" M 213.649 267.876 L 212.738 268.129 " />
<path d="M228.326,277.79 C227.914,277.393 227.664,277.048 227.516,276.801 " /><path d="M214.266 268.205 A0.50625 0.50625 0 0 0 213.649 267.876" /><path d="M227.516,276.801 C227.393,276.595 227.344,276.463 227.329,276.418 " /><path d="M214.543 268.951 A10.4625 10.4625 0 0 1 214.266 268.205" /><path id= "235" d=" M 227.329 276.418 L 227.08 275.506 " />
<path d="M214.291 269.603 A0.50625 0.50625 0 0 0 214.543 268.951" /><path d="M227.08 275.506 A0.50625 0.50625 0 0 0 226.482 275.145" /><path id= "238" d=" M 213.436 270.006 L 214.291 269.603 " />
<path d="M226.482 275.145 A10.4625 10.4625 0 0 1 225.699 275.289" /><path d="M213.091,270.256 C213.273,270.1 213.395,270.028 213.436,270.006 " /><path d="M225.699 275.289 A0.50625 0.50625 0 0 0 225.268 275.839" /><path d="M212.258,271.226 C212.578,270.752 212.874,270.445 213.091,270.256 " /><path id= "243" d=" M 225.268 275.839 L 225.36 276.78 " />
<path d="M212.883 272.291 A13.5 13.5 0 0 1 212.258 271.226" /><path d="M225.36,276.78 C225.362,276.826 225.363,276.968 225.321,277.204 " /><path d="M214.136,272.037 C213.865,272.135 213.453,272.243 212.883,272.291 " /><path d="M225.321,277.204 C225.27,277.488 225.159,277.899 224.915,278.416 " /><path d="M214.523,271.858 C214.483,271.883 214.361,271.955 214.136,272.037 " /><path d="M224.915 278.416 A13.5 13.5 0 0 1 223.68 278.424" /><path id= "250" d=" M 215.292 271.309 L 214.523 271.858 " />
<path d="M223.68,278.424 C223.429,277.911 223.312,277.501 223.257,277.218 " /><path d="M215.984 271.407 A0.50625 0.50625 0 0 0 215.292 271.309" /><path d="M223.257,277.218 C223.212,276.983 223.211,276.841 223.212,276.795 " /><path d="M216.499 272.013 A10.4625 10.4625 0 0 1 215.984 271.407" /><path id= "255" d=" M 223.212 276.795 L 223.29 275.853 " />
<path d="M216.486 272.711 A0.50625 0.50625 0 0 0 216.499 272.013" /><path d="M223.29 275.853 A0.50625 0.50625 0 0 0 222.852 275.309" /><path id= "258" d=" M 215.82 273.383 L 216.486 272.711 " />
<path d="M222.852 275.309 A10.4625 10.4625 0 0 1 222.068 275.176" /><path d="M215.582,273.736 C215.699,273.526 215.789,273.418 215.82,273.383 " /><path d="M222.068 275.176 A0.50625 0.50625 0 0 0 221.474 275.545" /><path d="M215.131,274.932 C215.269,274.377 215.442,273.988 215.582,273.736 " /><path id= "263" d=" M 221.474 275.545 L 221.238 276.461 " />
<path d="M216.082 275.719 A13.5 13.5 0 0 1 215.131 274.932" /><path d="M221.238,276.461 C221.224,276.505 221.177,276.638 221.057,276.846 " /><path d="M217.172,275.052 C216.951,275.236 216.601,275.48 216.082,275.719 " /><path d="M221.057,276.846 C220.912,277.095 220.667,277.444 220.261,277.846 " /><path d="M217.475,274.751 C217.446,274.788 217.356,274.897 217.172,275.052 " /><path d="M220.261 277.846 A13.5 13.5 0 0 1 219.097 277.432" /><path id= "270" d=" M 218.01 273.972 L 217.475 274.751 " />
<path d="M219.097,277.432 C219.037,276.863 219.067,276.438 219.112,276.154 " /><path d="M218.693 273.828 A0.50625 0.50625 0 0 0 218.01 273.972" /><path d="M219.112,276.154 C219.151,275.917 219.198,275.784 219.216,275.74 " /><path d="M219.385 274.221 A10.4625 10.4625 0 0 1 218.693 273.828" /><path id= "275" d=" M 219.216 275.74 L 219.611 274.882 " />
<path d="M219.611 274.882 A0.50625 0.50625 0 0 0 219.385 274.221" /><path d="M175.497 229.639 A3.7 3.7 0 0 1 182.292 228.589" /><path id= "278" d=" M 189.853 256.012 L 175.915 232.344 " />
<path id= "279" d=" M 196.23 252.257 L 183.312 230.322 " />
<path d="M189.388,255.878 C189.943,256.014 190.333,256.187 190.585,256.327 " /><path d="M196.15,253.049 C196.15,252.761 196.188,252.337 196.338,251.785 " /><path d="M188.173,259.861 C188.41,259.899 188.543,259.946 188.586,259.964 " /><path d="M186.895,259.848 C187.463,259.787 187.888,259.816 188.173,259.861 " /><path d="M200.3,253.066 C200.306,253.019 200.329,252.88 200.411,252.654 " /><path d="M200.411,252.654 C200.51,252.383 200.691,251.997 201.02,251.53 " /><path d="M202.238,251.734 C202.396,252.283 202.442,252.707 202.447,252.995 " /><path d="M202.447,252.995 C202.451,253.235 202.427,253.374 202.418,253.42 " /><path d="M187.115,264.008 C187.351,263.962 187.492,263.961 187.539,263.962 " /><path d="M185.91,264.432 C186.423,264.181 186.832,264.063 187.115,264.008 " /><path d="M204.305,254.089 C204.327,254.047 204.396,253.924 204.55,253.74 " /><path d="M187.133,266.071 C186.849,266.021 186.438,265.91 185.92,265.667 " /><path d="M204.55,253.74 C204.735,253.52 205.037,253.219 205.506,252.892 " /><path d="M187.557,266.109 C187.51,266.112 187.369,266.113 187.133,266.071 " /><path d="M186.552,269.077 C186.948,268.665 187.292,268.414 187.539,268.266 " /><path d="M207.718,256.42 C207.753,256.388 207.86,256.296 208.068,256.176 " /><path d="M208.068,256.176 C208.318,256.032 208.704,255.853 209.257,255.706 " /><path d="M189.394,272.122 C189.545,271.935 189.653,271.844 189.69,271.815 " /><path d="M188.744,273.222 C188.975,272.699 189.213,272.346 189.394,272.122 " /><path d="M210.129,259.778 C210.172,259.76 210.304,259.711 210.541,259.669 " /><path d="M210.541,259.669 C210.824,259.619 211.249,259.582 211.818,259.634 " /><path d="M192.456,275.111 C192.534,274.884 192.604,274.761 192.629,274.721 " /><path d="M211.245,263.758 C211.292,263.756 211.433,263.755 211.67,263.796 " /><path d="M211.67,263.796 C211.953,263.846 212.365,263.957 212.882,264.2 " /><path d="M196.356,276.873 C196.352,276.633 196.375,276.493 196.385,276.447 " /><path d="M210.933,267.88 C210.978,267.894 211.111,267.941 211.319,268.061 " /><path d="M210.933,267.88 C210.978,267.894 211.111,267.941 211.319,268.061 " /><path d="M211.319,268.061 C211.568,268.205 211.917,268.45 212.32,268.855 " /><path d="M200.623,277.194 C200.537,276.97 200.511,276.831 200.504,276.785 " /><path d="M209.23,271.646 C209.267,271.675 209.376,271.765 209.531,271.948 " /><path d="M209.531,271.948 C209.716,272.169 209.96,272.519 210.2,273.037 " /><path d="M204.742,276.037 C204.585,275.856 204.513,275.734 204.491,275.693 " /><path d="M206.341,274.603 C206.367,274.643 206.438,274.764 206.521,274.99 " /><path d="M189.388,255.878 C189.943,256.014 190.333,256.187 190.585,256.327 " /><path d="M188.603 256.83 A13.5 13.5 0 0 1 189.388 255.878" /><path d="M189.272,257.919 C189.087,257.698 188.843,257.349 188.603,256.83 " /><path d="M196.15,253.049 C196.15,252.761 196.188,252.337 196.338,251.785 " /><path d="M189.572,258.221 C189.535,258.193 189.426,258.103 189.272,257.919 " /><path d="M196.338 251.785 A13.5 13.5 0 0 1 197.552 251.56" /><path id= "319" d=" M 190.353 258.755 L 189.572 258.221 " />
<path d="M197.552,251.56 C197.889,252.022 198.076,252.404 198.18,252.673 " /><path d="M190.498 259.438 A0.50625 0.50625 0 0 0 190.353 258.755" /><path d="M198.18,252.673 C198.265,252.898 198.291,253.036 198.298,253.083 " /><path d="M190.106 260.131 A10.4625 10.4625 0 0 1 190.498 259.438" /><path id= "324" d=" M 198.298 253.083 L 198.386 254.024 " />
<path d="M189.445 260.358 A0.50625 0.50625 0 0 0 190.106 260.131" /><path d="M198.386 254.024 A0.50625 0.50625 0 0 0 198.913 254.483" /><path id= "327" d=" M 188.586 259.964 L 189.445 260.358 " />
<path d="M198.913 254.483 A10.4625 10.4625 0 0 1 199.709 254.476" /><path d="M188.173,259.861 C188.41,259.899 188.543,259.946 188.586,259.964 " /><path d="M199.709 254.476 A0.50625 0.50625 0 0 0 200.228 254.008" /><path d="M186.895,259.848 C187.463,259.787 187.888,259.816 188.173,259.861 " /><path id= "332" d=" M 200.228 254.008 L 200.3 253.066 " />
<path d="M186.482 261.012 A13.5 13.5 0 0 1 186.895 259.848" /><path d="M200.3,253.066 C200.306,253.019 200.329,252.88 200.411,252.654 " /><path d="M187.483,261.807 C187.234,261.663 186.885,261.417 186.482,261.012 " /><path d="M200.411,252.654 C200.51,252.383 200.691,251.997 201.02,251.53 " /><path d="M187.869,261.988 C187.825,261.974 187.691,261.926 187.483,261.807 " /><path d="M201.02 251.53 A13.5 13.5 0 0 1 202.238 251.734" /><path id= "339" d=" M 188.785 262.222 L 187.869 261.988 " />
<path d="M202.238,251.734 C202.396,252.283 202.442,252.707 202.447,252.995 " /><path d="M189.156 262.815 A0.50625 0.50625 0 0 0 188.785 262.222" /><path d="M202.447,252.995 C202.451,253.235 202.427,253.374 202.418,253.42 " /><path d="M189.024 263.599 A10.4625 10.4625 0 0 1 189.156 262.815" /><path id= "344" d=" M 202.418 253.42 L 202.179 254.335 " />
<path d="M188.481 264.039 A0.50625 0.50625 0 0 0 189.024 263.599" /><path d="M202.179 254.335 A0.50625 0.50625 0 0 0 202.517 254.946" /><path id= "347" d=" M 187.539 263.962 L 188.481 264.039 " />
<path d="M202.517 254.946 A10.4625 10.4625 0 0 1 203.267 255.212" /><path d="M187.115,264.008 C187.351,263.962 187.492,263.961 187.539,263.962 " /><path d="M203.267 255.212 A0.50625 0.50625 0 0 0 203.915 254.95" /><path d="M185.91,264.432 C186.423,264.181 186.832,264.063 187.115,264.008 " /><path id= "352" d=" M 203.915 254.95 L 204.305 254.089 " />
<path d="M185.92 265.667 A13.5 13.5 0 0 1 185.91 264.432" /><path d="M204.305,254.089 C204.327,254.047 204.396,253.924 204.55,253.74 " /><path d="M187.133,266.071 C186.849,266.021 186.438,265.91 185.92,265.667 " /><path d="M204.55,253.74 C204.735,253.52 205.037,253.219 205.506,252.892 " /><path d="M187.557,266.109 C187.51,266.112 187.369,266.113 187.133,266.071 " /><path d="M205.506 252.892 A13.5 13.5 0 0 1 206.581 253.5" /><path id= "359" d=" M 188.498 266.017 L 187.557 266.109 " />
<path d="M206.581,253.5 C206.543,254.07 206.44,254.484 206.346,254.757 " /><path d="M189.049 266.447 A0.50625 0.50625 0 0 0 188.498 266.017" /><path d="M206.346,254.757 C206.268,254.983 206.198,255.106 206.174,255.146 " /><path d="M189.194 267.229 A10.4625 10.4625 0 0 1 189.049 266.447" /><path id= "364" d=" M 206.174 255.146 L 205.636 255.924 " />
<path d="M188.833 267.828 A0.50625 0.50625 0 0 0 189.194 267.229" /><path d="M205.636 255.924 A0.50625 0.50625 0 0 0 205.745 256.614" /><path id= "367" d=" M 187.922 268.078 L 188.833 267.828 " />
<path d="M205.745 256.614 A10.4625 10.4625 0 0 1 206.359 257.12" /><path d="M187.539,268.266 C187.745,268.142 187.877,268.093 187.922,268.078 " /><path d="M206.359 257.12 A0.50625 0.50625 0 0 0 207.058 257.096" /><path d="M186.552,269.077 C186.948,268.665 187.292,268.414 187.539,268.266 " /><path id= "372" d=" M 207.058 257.096 L 207.718 256.42 " />
<path d="M186.984 270.234 A13.5 13.5 0 0 1 186.552 269.077" /><path d="M207.718,256.42 C207.753,256.388 207.86,256.296 208.068,256.176 " /><path d="M188.262,270.199 C187.978,270.249 187.553,270.285 186.984,270.234 " /><path d="M208.068,256.176 C208.318,256.032 208.704,255.853 209.257,255.706 " /><path d="M188.674,270.089 C188.63,270.107 188.498,270.157 188.262,270.199 " /><path d="M209.257 255.706 A13.5 13.5 0 0 1 210.059 256.646" /><path id= "379" d=" M 189.526 269.681 L 188.674 270.089 " />
<path d="M210.059,256.646 C209.827,257.168 209.59,257.522 209.408,257.746 " /><path d="M190.19 269.896 A0.50625 0.50625 0 0 0 189.526 269.681" /><path d="M209.408,257.746 C209.257,257.932 209.15,258.024 209.113,258.053 " /><path d="M190.594 270.582 A10.4625 10.4625 0 0 1 190.19 269.896" /><path id= "384" d=" M 209.113 258.053 L 208.342 258.6 " />
<path d="M190.46 271.268 A0.50625 0.50625 0 0 0 190.594 270.582" /><path d="M208.342 258.6 A0.50625 0.50625 0 0 0 208.208 259.286" /><path id= "387" d=" M 189.69 271.815 L 190.46 271.268 " />
<path d="M208.208 259.286 A10.4625 10.4625 0 0 1 208.612 259.971" /><path d="M189.394,272.122 C189.545,271.935 189.653,271.844 189.69,271.815 " /><path d="M208.612 259.971 A0.50625 0.50625 0 0 0 209.277 260.187" /><path d="M188.744,273.222 C188.975,272.699 189.213,272.346 189.394,272.122 " /><path id= "392" d=" M 209.277 260.187 L 210.129 259.778 " />
<path d="M189.546 274.161 A13.5 13.5 0 0 1 188.744 273.222" /><path d="M210.129,259.778 C210.172,259.76 210.304,259.711 210.541,259.669 " /><path d="M190.734,273.691 C190.485,273.835 190.098,274.015 189.546,274.161 " /><path d="M210.541,259.669 C210.824,259.619 211.249,259.582 211.818,259.634 " /><path d="M191.084,273.448 C191.049,273.479 190.942,273.571 190.734,273.691 " /><path d="M211.818 259.634 A13.5 13.5 0 0 1 212.251 260.79" /><path id= "399" d=" M 191.745 272.772 L 191.084 273.448 " />
<path d="M212.251,260.79 C211.855,261.202 211.51,261.453 211.263,261.602 " /><path d="M192.443 272.747 A0.50625 0.50625 0 0 0 191.745 272.772" /><path d="M211.263,261.602 C211.057,261.725 210.925,261.775 210.88,261.789 " /><path d="M193.057 273.253 A10.4625 10.4625 0 0 1 192.443 272.747" /><path id= "404" d=" M 210.88 261.789 L 209.969 262.04 " />
<path d="M193.166 273.944 A0.50625 0.50625 0 0 0 193.057 273.253" /><path d="M209.969 262.04 A0.50625 0.50625 0 0 0 209.609 262.638" /><path id= "407" d=" M 192.629 274.721 L 193.166 273.944 " />
<path d="M209.609 262.638 A10.4625 10.4625 0 0 1 209.754 263.421" /><path d="M192.456,275.111 C192.534,274.884 192.604,274.761 192.629,274.721 " /><path d="M209.754 263.421 A0.50625 0.50625 0 0 0 210.305 263.851" /><path d="M192.221,276.367 C192.26,275.797 192.362,275.383 192.456,275.111 " /><path id= "412" d=" M 210.305 263.851 L 211.245 263.758 " />
<path d="M193.296 276.975 A13.5 13.5 0 0 1 192.221 276.367" /><path d="M211.245,263.758 C211.292,263.756 211.433,263.755 211.67,263.796 " /><path d="M194.252,276.127 C194.067,276.348 193.765,276.649 193.296,276.975 " /><path d="M211.67,263.796 C211.953,263.846 212.365,263.957 212.882,264.2 " /><path d="M194.497,275.779 C194.476,275.82 194.406,275.943 194.252,276.127 " /><path d="M212.882 264.2 A13.5 13.5 0 0 1 212.893 265.435" /><path id= "419" d=" M 194.887 274.918 L 194.497 275.779 " />
<path d="M212.893,265.435 C212.38,265.687 211.97,265.805 211.687,265.86 " /><path d="M195.535 274.656 A0.50625 0.50625 0 0 0 194.887 274.918" /><path d="M211.687,265.86 C211.452,265.905 211.31,265.906 211.264,265.905 " /><path d="M196.285 274.921 A10.4625 10.4625 0 0 1 195.535 274.656" /><path id= "424" d=" M 211.264 265.905 L 210.322 265.829 " />
<path d="M196.624 275.533 A0.50625 0.50625 0 0 0 196.285 274.921" /><path d="M210.322 265.829 A0.50625 0.50625 0 0 0 209.778 266.268" /><path id= "427" d=" M 196.385 276.447 L 196.624 275.533 " />
<path d="M209.778 266.268 A10.4625 10.4625 0 0 1 209.647 267.053" /><path d="M196.356,276.873 C196.352,276.633 196.375,276.493 196.385,276.447 " /><path d="M209.647 267.053 A0.50625 0.50625 0 0 0 210.017 267.645" /><path d="M196.565,278.133 C196.406,277.584 196.361,277.16 196.356,276.873 " /><path id= "432" d=" M 210.017 267.645 L 210.933 267.88 " />
<path d="M197.783 278.337 A13.5 13.5 0 0 1 196.565 278.133" /><path d="M210.933,267.88 C210.978,267.894 211.111,267.941 211.319,268.061 " /><path d="M198.391,277.213 C198.293,277.484 198.112,277.87 197.783,278.337 " /><path d="M211.319,268.061 C211.568,268.205 211.917,268.45 212.32,268.855 " /><path d="M198.502,276.802 C198.496,276.848 198.473,276.988 198.391,277.213 " /><path d="M212.32 268.855 A13.5 13.5 0 0 1 211.908 270.019" /><path id= "439" d=" M 198.574 275.86 L 198.502 276.802 " />
<path d="M211.908,270.019 C211.339,270.08 210.914,270.051 210.63,270.006 " /><path d="M199.093 275.392 A0.50625 0.50625 0 0 0 198.574 275.86" /><path d="M210.63,270.006 C210.393,269.968 210.26,269.921 210.216,269.904 " /><path d="M199.889 275.385 A10.4625 10.4625 0 0 1 199.093 275.392" /><path id= "444" d=" M 210.216 269.904 L 209.357 269.51 " />
<path d="M200.416 275.844 A0.50625 0.50625 0 0 0 199.889 275.385" /><path d="M209.357 269.51 A0.50625 0.50625 0 0 0 208.696 269.737" /><path id= "447" d=" M 200.504 276.785 L 200.416 275.844 " />
<path d="M208.696 269.737 A10.4625 10.4625 0 0 1 208.304 270.429" /><path d="M200.623,277.194 C200.537,276.97 200.511,276.831 200.504,276.785 " /><path d="M208.304 270.429 A0.50625 0.50625 0 0 0 208.45 271.113" /><path d="M201.25,278.307 C200.913,277.846 200.726,277.463 200.623,277.194 " /><path id= "452" d=" M 208.45 271.113 L 209.23 271.646 " />
<path d="M202.465 278.082 A13.5 13.5 0 0 1 201.25 278.307" /><path d="M209.23,271.646 C209.267,271.675 209.376,271.765 209.531,271.948 " /><path d="M202.652,276.818 C202.652,277.106 202.614,277.531 202.465,278.082 " /><path d="M209.531,271.948 C209.716,272.169 209.96,272.519 210.2,273.037 " /><path d="M202.616,276.394 C202.626,276.439 202.652,276.578 202.652,276.818 " /><path d="M210.2 273.037 A13.5 13.5 0 0 1 209.414 273.99" /><path id= "459" d=" M 202.361 275.483 L 202.616 276.394 " />
<path d="M209.414,273.99 C208.859,273.853 208.47,273.68 208.218,273.541 " /><path d="M202.689 274.866 A0.50625 0.50625 0 0 0 202.361 275.483" /><path d="M208.218,273.541 C208.008,273.424 207.899,273.334 207.864,273.303 " /><path d="M203.434 274.588 A10.4625 10.4625 0 0 1 202.689 274.866" /><path id= "464" d=" M 207.864 273.303 L 207.191 272.639 " />
<path d="M204.086 274.839 A0.50625 0.50625 0 0 0 203.434 274.588" /><path d="M207.191 272.639 A0.50625 0.50625 0 0 0 206.493 272.626" /><path id= "467" d=" M 204.491 275.693 L 204.086 274.839 " />
<path d="M206.493 272.626 A10.4625 10.4625 0 0 1 205.888 273.143" /><path d="M204.742,276.037 C204.585,275.856 204.513,275.734 204.491,275.693 " /><path d="M205.888 273.143 A0.50625 0.50625 0 0 0 205.791 273.835" /><path d="M205.713,276.868 C205.238,276.55 204.931,276.254 204.742,276.037 " /><path id= "472" d=" M 205.791 273.835 L 206.341 274.603 " />
<path d="M206.777 276.242 A13.5 13.5 0 0 1 205.713 276.868" /><path d="M206.341,274.603 C206.367,274.643 206.438,274.764 206.521,274.99 " /><path d="M206.521,274.99 C206.619,275.26 206.729,275.672 206.777,276.242 " /><circle cx ="224.203" cy ="264.934" r ="2.75" /><circle cx ="224.203" cy ="264.934" r ="2.65" /><circle cx ="224.203" cy ="264.934" r ="1.45" /><path d="M225.647,264.934 L225.591,265.03  L225.538,265.123  L225.485,265.213  L225.435,265.301  L225.385,265.388  L225.335,265.474  L225.286,265.559  L225.237,265.644  L225.188,265.729  L225.138,265.816  L225.087,265.904  L225.034,265.994  L224.981,266.087  L224.925,266.184 " /><path d="M224.925,266.184 L224.814,266.184  L224.707,266.184  L224.602,266.184  L224.5,266.184  L224.4,266.184  L224.302,266.184  L224.203,266.184  L224.105,266.184  L224.006,266.184  L223.906,266.184  L223.805,266.184  L223.7,266.184  L223.593,266.184  L223.482,266.184 " /><path d="M223.482,266.184 L223.426,266.087  L223.373,265.994  L223.32,265.904  L223.269,265.816  L223.219,265.729  L223.17,265.644  L223.121,265.559  L223.072,265.474  L223.022,265.388  L222.972,265.301  L222.922,265.213  L222.869,265.123  L222.816,265.03  L222.76,264.934 " /><path d="M222.76,264.934 L222.816,264.837  L222.869,264.744  L222.922,264.654  L222.972,264.566  L223.022,264.479  L223.072,264.394  L223.121,264.309  L223.17,264.224  L223.219,264.138  L223.269,264.051  L223.32,263.963  L223.373,263.873  L223.426,263.78  L223.482,263.684 " /><path d="M223.482,263.684 L223.593,263.684  L223.7,263.684  L223.805,263.684  L223.906,263.684  L224.006,263.684  L224.105,263.684  L224.203,263.684  L224.302,263.684  L224.4,263.684  L224.5,263.684  L224.602,263.684  L224.707,263.684  L224.814,263.684  L224.925,263.684 " /><path d="M224.925,263.684 L224.981,263.78  L225.034,263.873  L225.087,263.963  L225.138,264.051  L225.188,264.138  L225.237,264.224  L225.286,264.309  L225.335,264.394  L225.385,264.479  L225.435,264.566  L225.485,264.654  L225.538,264.744  L225.591,264.837  L225.647,264.934 " /><path d="M225.647,264.934 L225.591,265.03  L225.538,265.123  L225.485,265.213  L225.435,265.301  L225.385,265.388  L225.335,265.474  L225.286,265.559  L225.237,265.644  L225.188,265.729  L225.138,265.816  L225.087,265.904  L225.034,265.994  L224.981,266.087  L224.925,266.184 " /><path d="M224.925,266.184 L224.814,266.184  L224.707,266.184  L224.602,266.184  L224.5,266.184  L224.4,266.184  L224.302,266.184  L224.203,266.184  L224.105,266.184  L224.006,266.184  L223.906,266.184  L223.805,266.184  L223.7,266.184  L223.593,266.184  L223.482,266.184 " /><path d="M223.482,266.184 L223.426,266.087  L223.373,265.994  L223.32,265.904  L223.269,265.816  L223.219,265.729  L223.17,265.644  L223.121,265.559  L223.072,265.474  L223.022,265.388  L222.972,265.301  L222.922,265.213  L222.869,265.123  L222.816,265.03  L222.76,264.934 " /><path d="M222.76,264.934 L222.816,264.837  L222.869,264.744  L222.922,264.654  L222.972,264.566  L223.022,264.479  L223.072,264.394  L223.121,264.309  L223.17,264.224  L223.219,264.138  L223.269,264.051  L223.32,263.963  L223.373,263.873  L223.426,263.78  L223.482,263.684 " /><path d="M223.482,263.684 L223.593,263.684  L223.7,263.684  L223.805,263.684  L223.906,263.684  L224.006,263.684  L224.105,263.684  L224.203,263.684  L224.302,263.684  L224.4,263.684  L224.5,263.684  L224.602,263.684  L224.707,263.684  L224.814,263.684  L224.925,263.684 " /><path d="M224.925,263.684 L224.981,263.78  L225.034,263.873  L225.087,263.963  L225.138,264.051  L225.188,264.138  L225.237,264.224  L225.286,264.309  L225.335,264.394  L225.385,264.479  L225.435,264.566  L225.485,264.654  L225.538,264.744  L225.591,264.837  L225.647,264.934 " /><circle cx ="216.204" cy ="248.934" r ="2.75" /><circle cx ="216.204" cy ="248.934" r ="2.65" /><circle cx ="216.204" cy ="248.934" r ="1.45" /><path d="M217.647,248.934 L217.591,249.03  L217.538,249.123  L217.485,249.213  L217.435,249.302  L217.385,249.388  L217.335,249.474  L217.286,249.559  L217.237,249.644  L217.188,249.729  L217.138,249.816  L217.087,249.904  L217.034,249.994  L216.981,250.087  L216.925,250.184 " /><path d="M216.925,250.184 L216.814,250.184  L216.707,250.184  L216.602,250.184  L216.501,250.184  L216.401,250.184  L216.302,250.184  L216.204,250.184  L216.105,250.184  L216.007,250.184  L215.907,250.184  L215.805,250.184  L215.7,250.184  L215.593,250.184  L215.482,250.184 " /><path d="M215.482,250.184 L215.426,250.087  L215.373,249.994  L215.32,249.904  L215.269,249.816  L215.219,249.729  L215.17,249.644  L215.121,249.559  L215.072,249.474  L215.023,249.388  L214.972,249.302  L214.922,249.213  L214.869,249.123  L214.816,249.03  L214.76,248.934 " /><path d="M214.76,248.934 L214.816,248.837  L214.869,248.744  L214.922,248.654  L214.972,248.566  L215.023,248.479  L215.072,248.394  L215.121,248.309  L215.17,248.224  L215.219,248.138  L215.269,248.052  L215.32,247.963  L215.373,247.873  L215.426,247.78  L215.482,247.684 " /><path d="M215.482,247.684 L215.593,247.684  L215.7,247.684  L215.805,247.684  L215.907,247.684  L216.007,247.684  L216.105,247.684  L216.204,247.684  L216.302,247.684  L216.401,247.684  L216.501,247.684  L216.602,247.684  L216.707,247.684  L216.814,247.684  L216.925,247.684 " /><path d="M216.925,247.684 L216.981,247.78  L217.034,247.873  L217.087,247.963  L217.138,248.052  L217.188,248.138  L217.237,248.224  L217.286,248.309  L217.335,248.394  L217.385,248.479  L217.435,248.566  L217.485,248.654  L217.538,248.744  L217.591,248.837  L217.647,248.934 " /><path d="M217.647,248.934 L217.591,249.03  L217.538,249.123  L217.485,249.213  L217.435,249.302  L217.385,249.388  L217.335,249.474  L217.286,249.559  L217.237,249.644  L217.188,249.729  L217.138,249.816  L217.087,249.904  L217.034,249.994  L216.981,250.087  L216.925,250.184 " /><path d="M216.925,250.184 L216.814,250.184  L216.707,250.184  L216.602,250.184  L216.501,250.184  L216.401,250.184  L216.302,250.184  L216.204,250.184  L216.105,250.184  L216.007,250.184  L215.907,250.184  L215.805,250.184  L215.7,250.184  L215.593,250.184  L215.482,250.184 " /><path d="M215.482,250.184 L215.426,250.087  L215.373,249.994  L215.32,249.904  L215.269,249.816  L215.219,249.729  L215.17,249.644  L215.121,249.559  L215.072,249.474  L215.023,249.388  L214.972,249.302  L214.922,249.213  L214.869,249.123  L214.816,249.03  L214.76,248.934 " /><path d="M214.76,248.934 L214.816,248.837  L214.869,248.744  L214.922,248.654  L214.972,248.566  L215.023,248.479  L215.072,248.394  L215.121,248.309  L215.17,248.224  L215.219,248.138  L215.269,248.052  L215.32,247.963  L215.373,247.873  L215.426,247.78  L215.482,247.684 " /><path d="M215.482,247.684 L215.593,247.684  L215.7,247.684  L215.805,247.684  L215.907,247.684  L216.007,247.684  L216.105,247.684  L216.204,247.684  L216.302,247.684  L216.401,247.684  L216.501,247.684  L216.602,247.684  L216.707,247.684  L216.814,247.684  L216.925,247.684 " /><path d="M216.925,247.684 L216.981,247.78  L217.034,247.873  L217.087,247.963  L217.138,248.052  L217.188,248.138  L217.237,248.224  L217.286,248.309  L217.335,248.394  L217.385,248.479  L217.435,248.566  L217.485,248.654  L217.538,248.744  L217.591,248.837  L217.647,248.934 " /><circle cx ="207.401" cy ="248.934" r ="2.75" /><circle cx ="207.401" cy ="248.934" r ="2.65" /><circle cx ="207.401" cy ="248.934" r ="1.45" /><path d="M208.845,248.934 L208.789,249.03  L208.735,249.123  L208.683,249.213  L208.632,249.302  L208.582,249.388  L208.533,249.474  L208.484,249.559  L208.435,249.644  L208.385,249.729  L208.335,249.816  L208.284,249.904  L208.232,249.994  L208.178,250.087  L208.123,250.184 " /><path d="M208.123,250.184 L208.012,250.184  L207.904,250.184  L207.8,250.184  L207.698,250.184  L207.598,250.184  L207.499,250.184  L207.401,250.184  L207.303,250.184  L207.204,250.184  L207.104,250.184  L207.002,250.184  L206.898,250.184  L206.791,250.184  L206.679,250.184 " /><path d="M206.679,250.184 L206.624,250.087  L206.57,249.994  L206.518,249.904  L206.467,249.816  L206.417,249.729  L206.368,249.644  L206.319,249.559  L206.27,249.474  L206.22,249.388  L206.17,249.302  L206.119,249.213  L206.067,249.123  L206.013,249.03  L205.958,248.934 " /><path d="M205.958,248.934 L206.013,248.837  L206.067,248.744  L206.119,248.654  L206.17,248.566  L206.22,248.479  L206.27,248.394  L206.319,248.309  L206.368,248.224  L206.417,248.138  L206.467,248.052  L206.518,247.963  L206.57,247.873  L206.624,247.78  L206.679,247.684 " /><path d="M206.679,247.684 L206.791,247.684  L206.898,247.684  L207.002,247.684  L207.104,247.684  L207.204,247.684  L207.303,247.684  L207.401,247.684  L207.499,247.684  L207.598,247.684  L207.698,247.684  L207.8,247.684  L207.904,247.684  L208.012,247.684  L208.123,247.684 " /><path d="M208.123,247.684 L208.178,247.78  L208.232,247.873  L208.284,247.963  L208.335,248.052  L208.385,248.138  L208.435,248.224  L208.484,248.309  L208.533,248.394  L208.582,248.479  L208.632,248.566  L208.683,248.654  L208.735,248.744  L208.789,248.837  L208.845,248.934 " /><path d="M208.845,248.934 L208.789,249.03  L208.735,249.123  L208.683,249.213  L208.632,249.302  L208.582,249.388  L208.533,249.474  L208.484,249.559  L208.435,249.644  L208.385,249.729  L208.335,249.816  L208.284,249.904  L208.232,249.994  L208.178,250.087  L208.123,250.184 " /><path d="M208.123,250.184 L208.012,250.184  L207.904,250.184  L207.8,250.184  L207.698,250.184  L207.598,250.184  L207.499,250.184  L207.401,250.184  L207.303,250.184  L207.204,250.184  L207.104,250.184  L207.002,250.184  L206.898,250.184  L206.791,250.184  L206.679,250.184 " /><path d="M206.679,250.184 L206.624,250.087  L206.57,249.994  L206.518,249.904  L206.467,249.816  L206.417,249.729  L206.368,249.644  L206.319,249.559  L206.27,249.474  L206.22,249.388  L206.17,249.302  L206.119,249.213  L206.067,249.123  L206.013,249.03  L205.958,248.934 " /><path d="M205.958,248.934 L206.013,248.837  L206.067,248.744  L206.119,248.654  L206.17,248.566  L206.22,248.479  L206.27,248.394  L206.319,248.309  L206.368,248.224  L206.417,248.138  L206.467,248.052  L206.518,247.963  L206.57,247.873  L206.624,247.78  L206.679,247.684 " /><path d="M206.679,247.684 L206.791,247.684  L206.898,247.684  L207.002,247.684  L207.104,247.684  L207.204,247.684  L207.303,247.684  L207.401,247.684  L207.499,247.684  L207.598,247.684  L207.698,247.684  L207.8,247.684  L207.904,247.684  L208.012,247.684  L208.123,247.684 " /><path d="M208.123,247.684 L208.178,247.78  L208.232,247.873  L208.284,247.963  L208.335,248.052  L208.385,248.138  L208.435,248.224  L208.484,248.309  L208.533,248.394  L208.582,248.479  L208.632,248.566  L208.683,248.654  L208.735,248.744  L208.789,248.837  L208.845,248.934 " /><path id= "521" d=" M 187.369 222.209 L 204.213 250.811 " />
<path id= "522" d=" M 190.292 212.589 L 210.589 247.056 " />
<path d="M210.589 247.056 A3.7 3.7 0 0 1 204.213 250.811" /><circle cx ="235.962" cy ="214.154" r ="2.75" /><circle cx ="235.962" cy ="214.154" r ="2.65" /><circle cx ="235.962" cy ="214.154" r ="1.45" /><path d="M237.405,214.154 L237.35,214.251  L237.296,214.344  L237.244,214.434  L237.193,214.522  L237.143,214.609  L237.093,214.694  L237.044,214.779  L236.995,214.864  L236.946,214.95  L236.896,215.036  L236.845,215.125  L236.793,215.215  L236.739,215.308  L236.683,215.404 " /><path d="M236.683,215.404 L236.572,215.404  L236.465,215.404  L236.361,215.404  L236.259,215.404  L236.159,215.404  L236.06,215.404  L235.962,215.404  L235.864,215.404  L235.765,215.404  L235.665,215.404  L235.563,215.404  L235.459,215.404  L235.351,215.404  L235.24,215.404 " /><path d="M235.24,215.404 L235.185,215.308  L235.131,215.215  L235.079,215.125  L235.028,215.036  L234.978,214.95  L234.928,214.864  L234.879,214.779  L234.83,214.694  L234.781,214.609  L234.731,214.522  L234.68,214.434  L234.628,214.344  L234.574,214.251  L234.518,214.154 " /><path d="M234.518,214.154 L234.574,214.058  L234.628,213.965  L234.68,213.875  L234.731,213.786  L234.781,213.7  L234.83,213.614  L234.879,213.529  L234.928,213.444  L234.978,213.359  L235.028,213.272  L235.079,213.184  L235.131,213.094  L235.185,213.001  L235.24,212.904 " /><path d="M235.24,212.904 L235.351,212.904  L235.459,212.904  L235.563,212.904  L235.665,212.904  L235.765,212.904  L235.864,212.904  L235.962,212.904  L236.06,212.904  L236.159,212.904  L236.259,212.904  L236.361,212.904  L236.465,212.904  L236.572,212.904  L236.683,212.904 " /><path d="M236.683,212.904 L236.739,213.001  L236.793,213.094  L236.845,213.184  L236.896,213.272  L236.946,213.359  L236.995,213.444  L237.044,213.529  L237.093,213.614  L237.143,213.7  L237.193,213.786  L237.244,213.875  L237.296,213.965  L237.35,214.058  L237.405,214.154 " /><path d="M237.405,214.154 L237.35,214.251  L237.296,214.344  L237.244,214.434  L237.193,214.522  L237.143,214.609  L237.093,214.694  L237.044,214.779  L236.995,214.864  L236.946,214.95  L236.896,215.036  L236.845,215.125  L236.793,215.215  L236.739,215.308  L236.683,215.404 " /><path d="M236.683,215.404 L236.572,215.404  L236.465,215.404  L236.361,215.404  L236.259,215.404  L236.159,215.404  L236.06,215.404  L235.962,215.404  L235.864,215.404  L235.765,215.404  L235.665,215.404  L235.563,215.404  L235.459,215.404  L235.351,215.404  L235.24,215.404 " /><path d="M235.24,215.404 L235.185,215.308  L235.131,215.215  L235.079,215.125  L235.028,215.036  L234.978,214.95  L234.928,214.864  L234.879,214.779  L234.83,214.694  L234.781,214.609  L234.731,214.522  L234.68,214.434  L234.628,214.344  L234.574,214.251  L234.518,214.154 " /><path d="M234.518,214.154 L234.574,214.058  L234.628,213.965  L234.68,213.875  L234.731,213.786  L234.781,213.7  L234.83,213.614  L234.879,213.529  L234.928,213.444  L234.978,213.359  L235.028,213.272  L235.079,213.184  L235.131,213.094  L235.185,213.001  L235.24,212.904 " /><path d="M235.24,212.904 L235.351,212.904  L235.459,212.904  L235.563,212.904  L235.665,212.904  L235.765,212.904  L235.864,212.904  L235.962,212.904  L236.06,212.904  L236.159,212.904  L236.259,212.904  L236.361,212.904  L236.465,212.904  L236.572,212.904  L236.683,212.904 " /><path d="M236.683,212.904 L236.739,213.001  L236.793,213.094  L236.845,213.184  L236.896,213.272  L236.946,213.359  L236.995,213.444  L237.044,213.529  L237.093,213.614  L237.143,213.7  L237.193,213.786  L237.244,213.875  L237.296,213.965  L237.35,214.058  L237.405,214.154 " /><circle cx ="243.962" cy ="230.154" r ="2.75" /><circle cx ="243.962" cy ="230.154" r ="2.65" /><circle cx ="243.962" cy ="230.154" r ="1.45" /><path d="M245.405,230.154 L245.35,230.251  L245.296,230.344  L245.244,230.434  L245.193,230.522  L245.143,230.609  L245.093,230.694  L245.044,230.779  L244.995,230.864  L244.946,230.95  L244.896,231.036  L244.845,231.125  L244.793,231.215  L244.739,231.308  L244.683,231.404 " /><path d="M244.683,231.404 L244.572,231.404  L244.465,231.404  L244.361,231.404  L244.259,231.404  L244.159,231.404  L244.06,231.404  L243.962,231.404  L243.864,231.404  L243.765,231.404  L243.665,231.404  L243.563,231.404  L243.459,231.404  L243.351,231.404  L243.24,231.404 " /><path d="M243.24,231.404 L243.185,231.308  L243.131,231.215  L243.079,231.125  L243.028,231.036  L242.978,230.95  L242.928,230.864  L242.879,230.779  L242.83,230.694  L242.781,230.609  L242.731,230.522  L242.68,230.434  L242.628,230.344  L242.574,230.251  L242.518,230.154 " /><path d="M242.518,230.154 L242.574,230.058  L242.628,229.965  L242.68,229.875  L242.731,229.786  L242.781,229.7  L242.83,229.614  L242.879,229.529  L242.928,229.444  L242.978,229.359  L243.028,229.272  L243.079,229.184  L243.131,229.094  L243.185,229.001  L243.24,228.904 " /><path d="M243.24,228.904 L243.351,228.904  L243.459,228.904  L243.563,228.904  L243.665,228.904  L243.765,228.904  L243.864,228.904  L243.962,228.904  L244.06,228.904  L244.159,228.904  L244.259,228.904  L244.361,228.904  L244.465,228.904  L244.572,228.904  L244.683,228.904 " /><path d="M244.683,228.904 L244.739,229.001  L244.793,229.094  L244.845,229.184  L244.896,229.272  L244.946,229.359  L244.995,229.444  L245.044,229.529  L245.093,229.614  L245.143,229.7  L245.193,229.786  L245.244,229.875  L245.296,229.965  L245.35,230.058  L245.405,230.154 " /><path d="M245.405,230.154 L245.35,230.251  L245.296,230.344  L245.244,230.434  L245.193,230.522  L245.143,230.609  L245.093,230.694  L245.044,230.779  L244.995,230.864  L244.946,230.95  L244.896,231.036  L244.845,231.125  L244.793,231.215  L244.739,231.308  L244.683,231.404 " /><path d="M244.683,231.404 L244.572,231.404  L244.465,231.404  L244.361,231.404  L244.259,231.404  L244.159,231.404  L244.06,231.404  L243.962,231.404  L243.864,231.404  L243.765,231.404  L243.665,231.404  L243.563,231.404  L243.459,231.404  L243.351,231.404  L243.24,231.404 " /><path d="M243.24,231.404 L243.185,231.308  L243.131,231.215  L243.079,231.125  L243.028,231.036  L242.978,230.95  L242.928,230.864  L242.879,230.779  L242.83,230.694  L242.781,230.609  L242.731,230.522  L242.68,230.434  L242.628,230.344  L242.574,230.251  L242.518,230.154 " /><path d="M242.518,230.154 L242.574,230.058  L242.628,229.965  L242.68,229.875  L242.731,229.786  L242.781,229.7  L242.83,229.614  L242.879,229.529  L242.928,229.444  L242.978,229.359  L243.028,229.272  L243.079,229.184  L243.131,229.094  L243.185,229.001  L243.24,228.904 " /><path d="M243.24,228.904 L243.351,228.904  L243.459,228.904  L243.563,228.904  L243.665,228.904  L243.765,228.904  L243.864,228.904  L243.962,228.904  L244.06,228.904  L244.159,228.904  L244.259,228.904  L244.361,228.904  L244.465,228.904  L244.572,228.904  L244.683,228.904 " /><path d="M244.683,228.904 L244.739,229.001  L244.793,229.094  L244.845,229.184  L244.896,229.272  L244.946,229.359  L244.995,229.444  L245.044,229.529  L245.093,229.614  L245.143,229.7  L245.193,229.786  L245.244,229.875  L245.296,229.965  L245.35,230.058  L245.405,230.154 " /></g>
</g>



<g id="ViewGroup" transform="rotate(0.0,-110.0,320.0) translate(-110.0,320.0) scale(1.0,-1.0)"><text fill="#0000ff" font-size="6.0" style="text-anchor:start;text-align:left;font-family:" transform="rotate(0.0,173.63355192,287.987356309) translate(173.63355192,287.987356309) scale(1,-1) " freecad:skip="1">
1</text>
<circle cx="175.1350318" cy="289.755292339" r="5.0" stroke="#0000ff" stroke-width="0.35 px" style="stroke-width:0.35;stroke-miterlimit:4;stroke-dasharray:none;fill:none"/>
<path id="DWire_w0000" d="M 180.1350318 289.755292339 L 198.895842652 289.755292339 L 211.802379593 280.933724804 " stroke="#0000ff" stroke-width="0.35 px" style="stroke-width:0.35;stroke-miterlimit:4;stroke-dasharray:none;fill:none;fill-rule: evenodd "/>
<circle cx="212.082654197" cy="198.543990397" r="5.0" stroke="#0000ff" stroke-width="0.35 px" style="stroke-width:0.35;stroke-miterlimit:4;stroke-dasharray:none;fill:none"/>
<text fill="#0000ff" font-size="6.0" style="text-anchor:start;text-align:left;font-family:" transform="rotate(0.0,210.893718009,196.939795299) translate(210.893718009,196.939795299) scale(1,-1) " freecad:skip="1">
5</text>
<path id="Line017_w0000" d="M 206.926174073 198.183915213 L 192.603480124 194.566297687 " stroke="#0000ff" stroke-width="0.35 px" style="stroke-width:0.35;stroke-miterlimit:4;stroke-dasharray:none;fill:none;fill-rule: evenodd "/>
<path id="Line018_w0000" d="M 216.926174073 198.183915213 L 230.461780539 194.254255991 " stroke="#0000ff" stroke-width="0.35 px" style="stroke-width:0.35;stroke-miterlimit:4;stroke-dasharray:none;fill:none;fill-rule: evenodd "/>
<circle cx="247.639946673" cy="282.124431381" r="5.0" stroke="#0000ff" stroke-width="0.35 px" style="stroke-width:0.35;stroke-miterlimit:4;stroke-dasharray:none;fill:none"/>
<text fill="#0000ff" font-size="6.0" style="text-anchor:start;text-align:left;font-family:" transform="rotate(0.0,246.451010485,280.520236282) translate(246.451010485,280.520236282) scale(1,-1) " freecad:skip="1">
6</text>
<path id="Line016_w0000" d="M 227.240127625 268.175646337 L 243.507224968 279.683915213 " stroke="#0000ff" stroke-width="0.35 px" style="stroke-width:0.35;stroke-miterlimit:4;stroke-dasharray:none;fill:none;fill-rule: evenodd "/>
<circle cx="165.631932313" cy="251.585534" r="5.0" stroke="#0000ff" stroke-width="0.35 px" style="stroke-width:0.35;stroke-miterlimit:4;stroke-dasharray:none;fill:none"/>
<text fill="#0000ff" font-size="6.0" style="text-anchor:start;text-align:left;font-family:" transform="rotate(0.0,164.442996125,249.981338901) translate(164.442996125,249.981338901) scale(1,-1) " freecad:skip="1">
2</text>
<path id="DWire001_w0000" d="M 170.631932313 251.585534 L 177.802352274 251.585534 L 182.884191225 244.177774232 " stroke="#0000ff" stroke-width="0.35 px" style="stroke-width:0.35;stroke-miterlimit:4;stroke-dasharray:none;fill:none;fill-rule: evenodd "/>
<circle cx="211.926174073" cy="224.893635235" r="5.0" stroke="#0000ff" stroke-width="0.35 px" style="stroke-width:0.35;stroke-miterlimit:4;stroke-dasharray:none;fill:none"/>
<text fill="#0000ff" font-size="6.0" style="text-anchor:start;text-align:left;font-family:" transform="rotate(0.0,210.737237885,223.289440136) translate(210.737237885,223.289440136) scale(1,-1) " freecad:skip="1">
4</text>
<path id="Line012_w0000" d="M 200.440565194 229.822474354 L 207.596047054 227.393635235 " stroke="#0000ff" stroke-width="0.35 px" style="stroke-width:0.35;stroke-miterlimit:4;stroke-dasharray:none;fill:none;fill-rule: evenodd "/>
<path id="Line013_w0000" d="M 222.865553332 229.716352024 L 216.256301092 227.393635235 " stroke="#0000ff" stroke-width="0.35 px" style="stroke-width:0.35;stroke-miterlimit:4;stroke-dasharray:none;fill:none;fill-rule: evenodd "/>
<text fill="#0000ff" font-size="6.0" style="text-anchor:start;text-align:left;font-family:" transform="rotate(0.0,253.155968812,250.282654228) translate(253.155968812,250.282654228) scale(1,-1) " freecad:skip="1">
3</text>
<circle cx="254.344905" cy="251.886849327" r="5.0" stroke="#0000ff" stroke-width="0.35 px" style="stroke-width:0.35;stroke-miterlimit:4;stroke-dasharray:none;fill:none"/>
<path id="DWire002_w0000" d="M 249.344905 251.886849327 L 243.079684358 251.886849327 L 239.716765127 245.117044277 " stroke="#0000ff" stroke-width="0.35 px" style="stroke-width:0.35;stroke-miterlimit:4;stroke-dasharray:none;fill:none;fill-rule: evenodd "/>
<circle cx="258.289539938" cy="205.144998804" r="5.0" stroke="#0000ff" stroke-width="0.35 px" style="stroke-width:0.35;stroke-miterlimit:4;stroke-dasharray:none;fill:none"/>
<text fill="#0000ff" font-size="6.0" style="text-anchor:start;text-align:left;font-family:" transform="rotate(0.0,257.10060375,203.540803706) translate(257.10060375,203.540803706) scale(1,-1) " freecad:skip="1">
8</text>
<path id="DWire005_w0000" d="M 253.289539938 205.144998804 L 245.289539938 205.144998804 L 238.256747859 212.829255991 " stroke="#0000ff" stroke-width="0.35 px" style="stroke-width:0.35;stroke-miterlimit:4;stroke-dasharray:none;fill:none;fill-rule: evenodd "/>
<path id="Line019_w0000" d="M 246.611780539 230.154255991 L 257.289539938 230.144998804 " stroke="#0000ff" stroke-width="0.35 px" style="stroke-width:0.35;stroke-miterlimit:4;stroke-dasharray:none;fill:none;fill-rule: evenodd "/>
<circle cx="262.289539938" cy="230.144998804" r="5.0" stroke="#0000ff" stroke-width="0.35 px" style="stroke-width:0.35;stroke-miterlimit:4;stroke-dasharray:none;fill:none"/>
<text fill="#0000ff" font-size="6.0" style="text-anchor:start;text-align:left;font-family:" transform="rotate(0.0,261.10060375,228.540803706) translate(261.10060375,228.540803706) scale(1,-1) " freecad:skip="1">
7</text>
</g>


<g id="ViewGroup008" transform="rotate(0.0,110.0,320.0) translate(110.0,320.0) scale(1.0,-1.0)"><circle cx="80.0640402843" cy="289.270425243" r="5.0" stroke="#000000" stroke-width="0.35 px" style="stroke-width:0.35;stroke-miterlimit:4;stroke-dasharray:none;fill:none"/>
<text fill="#000000" font-size="6.0" style="text-anchor:start;text-align:left;font-family:" transform="rotate(0.0,78.562560404,287.502489213) translate(78.562560404,287.502489213) scale(1,-1) " freecad:skip="1">
1</text>
<text fill="#000000" font-size="6.0" style="text-anchor:start;text-align:left;font-family:" transform="rotate(0.0,88.4260855724,287.688431186) translate(88.4260855724,287.688431186) scale(1,-1) " freecad:skip="1">
Claw base</text>
<text fill="#000000" font-size="6.0" style="text-anchor:start;text-align:left;font-family:" transform="rotate(0.0,89.5560217907,275.484314842) translate(89.5560217907,275.484314842) scale(1,-1) " freecad:skip="1">
Left geared link</text>
<circle cx="80.0639258434" cy="275.936323566" r="5.0" stroke="#000000" stroke-width="0.35 px" style="stroke-width:0.35;stroke-miterlimit:4;stroke-dasharray:none;fill:none"/>
<text fill="#000000" font-size="6.0" style="text-anchor:start;text-align:left;font-family:" transform="rotate(0.0,78.8749896554,274.332128468) translate(78.8749896554,274.332128468) scale(1,-1) " freecad:skip="1">
2</text>
<text fill="#000000" font-size="6.0" style="text-anchor:start;text-align:left;font-family:" transform="rotate(0.0,78.6872378854,260.249440136) translate(78.6872378854,260.249440136) scale(1,-1) " freecad:skip="1">
3</text>
<circle cx="79.8761740734" cy="261.853635235" r="5.0" stroke="#000000" stroke-width="0.35 px" style="stroke-width:0.35;stroke-miterlimit:4;stroke-dasharray:none;fill:none"/>
<text fill="#000000" font-size="6.0" style="text-anchor:start;text-align:left;font-family:" transform="rotate(0.0,89.3682700207,261.40162651) translate(89.3682700207,261.40162651) scale(1,-1) " freecad:skip="1">
Right geared link</text>
<circle cx="79.8761740734" cy="248.043935222" r="5.0" stroke="#000000" stroke-width="0.35 px" style="stroke-width:0.35;stroke-miterlimit:4;stroke-dasharray:none;fill:none"/>
<text fill="#000000" font-size="6.0" style="text-anchor:start;text-align:left;font-family:" transform="rotate(0.0,78.6872378854,246.439740124) translate(78.6872378854,246.439740124) scale(1,-1) " freecad:skip="1">
4</text>
<text fill="#000000" font-size="6.0" style="text-anchor:start;text-align:left;font-family:" transform="rotate(0.0,88.813162904,246.598819656) translate(88.813162904,246.598819656) scale(1,-1) " freecad:skip="1">
Links</text>
<text fill="#000000" font-size="6.0" style="text-anchor:start;text-align:left;font-family:" transform="rotate(0.0,88.813162904,204.351116104) translate(88.813162904,204.351116104) scale(1,-1) " freecad:skip="1">
M3x16 bolts</text>
<circle cx="79.8761740734" cy="233.056100292" r="5.0" stroke="#000000" stroke-width="0.35 px" style="stroke-width:0.35;stroke-miterlimit:4;stroke-dasharray:none;fill:none"/>
<text fill="#000000" font-size="6.0" style="text-anchor:start;text-align:left;font-family:" transform="rotate(0.0,78.6872378854,231.451905193) translate(78.6872378854,231.451905193) scale(1,-1) " freecad:skip="1">
5</text>
<text fill="#000000" font-size="6.0" style="text-anchor:start;text-align:left;font-family:" transform="rotate(0.0,88.813162904,232.351116104) translate(88.813162904,232.351116104) scale(1,-1) " freecad:skip="1">
Fingers</text>
<circle cx="79.8761740734" cy="205.056100292" r="5.0" stroke="#000000" stroke-width="0.35 px" style="stroke-width:0.35;stroke-miterlimit:4;stroke-dasharray:none;fill:none"/>
<text fill="#000000" font-size="6.0" style="text-anchor:start;text-align:left;font-family:" transform="rotate(0.0,78.6872378854,203.451905193) translate(78.6872378854,203.451905193) scale(1,-1) " freecad:skip="1">
7</text>
<circle cx="79.8761740734" cy="219.056100292" r="5.0" stroke="#000000" stroke-width="0.35 px" style="stroke-width:0.35;stroke-miterlimit:4;stroke-dasharray:none;fill:none"/>
<text fill="#000000" font-size="6.0" style="text-anchor:start;text-align:left;font-family:" transform="rotate(0.0,78.6872378854,217.451905193) translate(78.6872378854,217.451905193) scale(1,-1) " freecad:skip="1">
6</text>
<text fill="#000000" font-size="6.0" style="text-anchor:start;text-align:left;font-family:" transform="rotate(0.0,88.813162904,218.351116104) translate(88.813162904,218.351116104) scale(1,-1) " freecad:skip="1">
M3x12 bolts</text>
<circle cx="79.8761740734" cy="190.516575644" r="5.0" stroke="#000000" stroke-width="0.35 px" style="stroke-width:0.35;stroke-miterlimit:4;stroke-dasharray:none;fill:none"/>
<text fill="#000000" font-size="6.0" style="text-anchor:start;text-align:left;font-family:" transform="rotate(0.0,78.6872378854,188.912380546) translate(78.6872378854,188.912380546) scale(1,-1) " freecad:skip="1">
8</text>
<text fill="#000000" font-size="6.0" style="text-anchor:start;text-align:left;font-family:" transform="rotate(0.0,88.813162904,188.351116104) translate(88.813162904,188.351116104) scale(1,-1) " freecad:skip="1">
M3 Nyloc nuts</text>
</g>


  </g>
</svg>

